<?xml version="1.0" encoding="UTF-8" standalone="no"?>
<svg
   xmlns:dc="http://purl.org/dc/elements/1.1/"
   xmlns:cc="http://creativecommons.org/ns#"
   xmlns:rdf="http://www.w3.org/1999/02/22-rdf-syntax-ns#"
   xmlns:svg="http://www.w3.org/2000/svg"
   xmlns="http://www.w3.org/2000/svg"
   xmlns:sodipodi="http://sodipodi.sourceforge.net/DTD/sodipodi-0.dtd"
   xmlns:inkscape="http://www.inkscape.org/namespaces/inkscape"
   inkscape:version="1.0 (4035a4f, 2020-05-01)"
   sodipodi:docname="demo-03.svg"
   id="svg14"
   height="891px"
   width="1270px"
   version="1.2">
  <metadata
     id="metadata20">
    <rdf:RDF>
      <cc:Work
         rdf:about="">
        <dc:format>image/svg+xml</dc:format>
        <dc:type
           rdf:resource="http://purl.org/dc/dcmitype/StillImage" />
        <dc:title></dc:title>
      </cc:Work>
    </rdf:RDF>
  </metadata>
  <defs
     id="defs18" />
  <sodipodi:namedview
     inkscape:current-layer="svg14"
     inkscape:window-maximized="1"
     inkscape:window-y="23"
     inkscape:window-x="0"
     inkscape:cy="445.5"
     inkscape:cx="635"
     inkscape:zoom="0.4519685"
     showgrid="false"
     id="namedview16"
     inkscape:window-height="1035"
     inkscape:window-width="1920"
     inkscape:pageshadow="2"
     inkscape:pageopacity="0"
     guidetolerance="10"
     gridtolerance="10"
     objecttolerance="10"
     borderopacity="1"
     bordercolor="#666666"
     pagecolor="#ffffff" />
  <desc
     id="desc10">plotter.vision</desc>
  <path
     id="path12"
     style="stroke:#ff0000;stroke-width:1;fill:none"
     d="  M 635.0492,446.9102  L 632.0853,442.4249 L 628.6978,443.7045 M 628.8192,443.8886  L 632.0853,442.4249 L 634.0906,436.9865 L 639.8914,434.6492 L 646.2762,444.2568 L 644.2109,449.6664 L 640.3861,451.2266 M 639.3319,449.6331  L 640.4703,446.6173 L 646.2762,444.2568 M 644.6573,448.4971  L 647.0608,452.1208 L 666.5644,444.1433 L 670.2795,434.8456 L 650.6375,442.8337 L 647.0608,452.1208 M 640.4703,446.6173  L 634.0906,436.9865 M 634.2866,436.9075  L 632.1638,437.1476 L 628.0561,435.5625 L 625.6101,432.7605 M 626.9411,430.9023  L 621.5493,438.4300 M 624.7771,437.7603  L 631.3349,447.7027 M 637.2237,446.4462  L 647.2764,461.6424 L 641.6215,469.2621 M 645.0451,468.4889  L 651.8657,478.8297 M 657.0439,477.4664  L 660.9832,467.6911 L 661.5396,471.5109 L 664.3694,474.7508 L 668.5730,476.3735 L 672.8066,475.8601 L 668.8394,485.3821 M 669.1300,485.2596  L 671.6510,483.1053 L 675.7198,473.3792 L 672.8066,475.8601 M 674.1281,477.1839  L 675.1812,478.7644 L 679.7924,467.7823 L 677.5377,464.4154 L 675.8181,468.5429 M 676.3911,469.7263  L 675.7198,473.3792 M 676.3911,469.7263  L 674.6172,466.0625 L 670.9655,463.5444 L 666.5891,462.9642 L 662.8684,464.5071 L 660.9832,467.6911 M 661.9013,466.0812  L 663.2497,462.7083 L 669.2424,447.8460 L 672.9527,446.3231 L 677.2816,447.3765 L 680.2143,450.5146 L 680.3805,454.2783 L 675.0846,467.0278 M 675.1706,467.2055  L 677.8235,460.8211 L 677.5377,464.4154 M 677.8235,460.8211  L 680.5313,458.3722 L 684.6228,457.9964 L 688.5417,459.8323 L 690.7995,463.1836 L 690.5324,466.7779 L 687.4548,473.9496 M 687.9548,472.7844  L 689.8218,472.9540 M 691.0928,472.4193  L 694.1790,465.2722 L 695.8550,462.7226 L 692.4909,470.5037 L 691.2869,472.3377 M 694.5885,470.9489  L 703.4115,484.0528 L 699.3719,493.0778 L 679.7861,501.4597 L 683.6867,492.4505 L 703.4115,484.0528 M 703.4049,484.0676  L 706.8230,482.6123 L 704.4558,487.8713 L 701.0516,489.3251 M 706.8230,482.6123  L 700.2306,472.8395 L 696.8280,474.2751 M 694.5885,470.9489  L 674.8852,479.2368 L 683.6867,492.4505 M 679.1309,493.6956  L 676.8780,498.9438 L 671.0711,501.4223 L 673.2998,496.1768 L 679.1309,493.6956 L 672.5627,483.8120 L 666.7365,486.2689 L 673.2998,496.1768 M 677.3650,497.8095  L 679.7861,501.4597 M 671.0711,501.4223  L 666.6247,494.6935 M 667.9775,492.9356  L 662.0320,500.6617 M 665.6769,499.7689  L 679.4033,520.5797 L 676.9633,523.6673 M 678.9943,521.0973  L 680.1451,522.8426 M 680.7863,522.6764  L 700.6591,552.8057 L 684.3794,572.6466 L 675.7386,578.3101 M 674.4201,579.8411  L 579.2435,607.3308 L 585.8254,603.0147 L 566.2402,571.3604 L 559.7150,575.6373 L 579.2435,607.3308 M 585.8559,603.0063  L 589.4691,598.3215 M 589.4386,598.3308  L 587.3121,596.0024 L 598.7061,581.1785 L 700.6591,552.8057 M 701.1026,554.6267  L 734.6026,605.4328 L 636.1517,651.4177 L 604.1402,600.1399 M 602.5575,600.5970  L 635.3519,653.1725 L 700.3487,622.7867 M 699.5008,623.1831  L 581.8406,689.3783 L 588.0216,699.6248 L 708.0422,631.8515 L 706.3689,647.2281 L 719.2837,639.9066 L 718.6325,645.0299 L 762.6344,620.0522 L 763.6213,614.7709 L 906.3380,533.8630 L 899.9475,551.9792 L 590.2513,728.2658 L 588.0216,699.6248 M 582.3825,695.6340  L 378.4155,357.0228 L 376.0162,348.1767 L 370.9473,339.7738 L 404.2510,323.3305 M 404.3429,323.4796  L 410.4171,319.5139 L 393.7674,292.6040 L 387.7414,296.5365 L 404.3429,323.4796 L 409.4888,322.7962 M 411.5965,321.4201  L 428.5386,348.8024 L 422.4119,352.8042 L 405.5189,325.3881 L 411.5965,321.4201 M 411.6273,321.4166  L 428.5693,348.7985 L 431.1502,344.2642 M 432.3550,346.2064  L 429.7695,350.7383 L 447.0117,378.6052 L 449.6637,374.1086 M 448.5345,372.2883  L 457.9322,356.3200 L 495.1963,350.6589 L 500.5144,358.9922 L 566.0614,348.7408 L 571.8786,357.5605 M 575.6088,356.9587  L 569.8165,348.1932 L 566.4623,349.3487 M 566.5772,349.5229  L 569.8165,348.1932 L 571.4781,342.4665 L 577.2257,340.3520 L 583.2660,349.4412 L 581.5482,355.1415 L 577.4842,356.6562 M 577.7927,356.6064  L 587.3297,371.0230 L 582.3981,378.4004 M 584.4290,377.4069  L 583.7503,376.3776 M 585.2942,377.9000  L 598.0834,397.2898 L 596.3641,399.7993 M 598.0834,397.2898  L 495.4014,416.1696 L 485.4889,431.8601 L 467.4777,402.8254 L 477.1378,386.9971 L 514.3890,380.7335 L 519.8025,389.2164 L 585.2942,377.9000 M 589.6401,376.6891  L 587.8371,373.9618 L 590.4107,365.6931 L 592.2281,368.4323 L 595.8070,368.7938 L 597.5615,366.4174 L 594.9413,374.6749 L 593.1957,377.0449 L 589.6401,376.6891 L 592.2281,368.4323 M 590.4107,365.6931  L 592.1708,363.3213 L 595.7426,363.6841 L 597.5615,366.4174 M 598.7004,368.0798  L 602.3878,366.6843 L 606.6683,367.2861 L 610.1914,369.6931 L 611.8442,373.1479 L 611.0980,376.5596 L 607.6920,386.8435 M 608.1247,386.8478  L 614.3337,396.1909 L 612.4466,401.7509 L 606.6907,403.9952 L 600.5211,394.6587 L 597.1501,395.8747 M 597.2682,396.0538  L 600.5211,394.6587 L 602.3501,389.0711 L 608.1247,386.8478 M 608.4541,387.3434  L 610.1910,382.1113 L 629.7240,374.6134 L 638.0656,387.0022 L 634.6589,396.5542 L 615.2404,404.1461 L 618.5096,394.5999 L 638.0656,387.0022 M 637.8092,387.7212  L 641.7730,386.1805 L 639.7730,391.7435 L 635.8254,393.2835 M 636.6391,399.2201  L 640.3332,397.7720 L 644.6084,398.8211 L 647.4746,401.8774 L 647.5926,405.5200 L 645.1782,412.0392 M 645.1396,412.0727  L 644.8121,415.5484 L 647.0040,418.8214 L 642.9577,429.6385 M 642.5575,429.7993  L 641.4960,428.2060 M 642.0826,429.9902  L 661.7022,422.1068 L 670.2795,434.8456 M 670.1233,435.2364  L 673.8437,433.7230 L 671.6648,439.1393 L 667.9596,440.6516 M 669.2424,447.8460  L 667.8851,451.2414 L 669.5259,454.9250 L 673.4023,457.1657 L 670.7948,463.5218 M 674.0616,465.6794  L 677.6924,456.9085 L 680.3805,454.2783 M 681.6748,453.6744  L 679.2286,459.5503 M 678.2134,460.4684  L 679.9841,456.2092 L 681.6748,453.6744 L 680.2611,451.5737 M 684.3770,455.7656  L 686.3114,458.6386 L 689.9313,458.9728 L 691.6094,456.4354 L 690.2982,459.5122 M 690.2948,459.5119  L 693.9123,459.8457 L 695.8550,462.7226 M 694.1790,465.2722  L 690.6682,464.9503 M 690.5324,466.7779  L 687.8328,469.2423 L 685.4611,474.7882 M 680.6879,476.7959  L 683.7280,469.6278 L 687.8328,469.2423 M 683.7280,469.6278  L 679.7924,467.7823 M 683.3939,458.1092  L 684.3770,455.7656 L 686.0611,453.2332 L 689.6737,453.5689 L 691.6094,456.4354 M 689.9313,458.9728  L 689.1691,460.7636 M 689.3197,460.9871  L 690.2948,459.5119 M 695.6585,454.7920  L 693.7418,451.9599 L 697.0898,444.1071 L 699.0225,446.9524 L 702.6145,447.2891 L 704.2667,444.7818 L 700.8719,452.6239 L 699.2270,455.1233 L 695.6585,454.7920 L 699.0225,446.9524 M 697.0898,444.1071  L 698.7478,441.6048 L 702.3328,441.9428 L 704.2667,444.7818 M 705.5583,445.1845  L 704.2888,448.4888 L 710.7513,433.6097 L 712.4209,437.2252 L 716.2602,439.4317 L 713.4648,445.7653 M 713.6916,445.7958  L 717.3151,448.2737 L 719.1145,451.8701 L 718.5147,455.4496 L 714.1277,465.2063 L 711.6882,467.3123 M 711.4160,467.4271  L 715.6965,457.8744 L 711.5513,458.3670 L 707.2155,468.1190 L 703.1014,466.5313 L 700.3009,463.3679 L 699.7041,459.6410 L 703.9649,449.8363 L 704.5726,453.5826 L 707.4011,456.7657 L 711.5513,458.3670 M 715.6965,457.8744  L 718.5147,455.4496 M 716.6277,459.6463  L 717.5226,460.9589 L 722.4901,449.9435 L 720.2237,446.6370 L 718.4635,450.5691 M 717.7523,449.1476  L 720.4462,443.1138 L 727.0720,440.3612 L 730.9466,442.1710 L 733.2158,445.4624 L 733.0114,448.9857 L 729.7037,456.1786 M 730.1782,455.1467  L 731.7982,455.2975 M 733.0720,454.7618  L 736.3854,447.5940 L 737.9891,445.0983 L 734.3789,452.9013 L 733.2264,454.6968 M 736.9537,453.1290  L 745.8200,465.9978 L 741.4883,475.0537 L 722.4018,483.2219 M 722.4018,483.2219  L 726.6024,474.1795 L 745.8200,465.9978 M 745.8129,466.0126  L 748.9309,464.6851 L 746.3954,469.9615 L 743.2896,471.2878 M 748.9309,464.6851  L 742.3067,455.0866 L 739.2043,456.3956 M 736.9537,453.1290  L 717.7552,461.2045 L 726.6024,474.1795 M 721.9360,475.4807  L 719.5086,480.7480 L 713.8502,483.1631 L 707.2901,473.4656 L 702.0500,475.5366 M 707.2901,473.4656  L 709.6567,468.1690 L 715.3336,465.7750 L 721.9360,475.4807 L 716.2548,477.8981 L 713.8502,483.1631 M 716.2548,477.8981  L 709.6567,468.1690 M 710.8003,467.6867  L 707.2155,468.1190 M 703.1014,466.5313  L 707.4011,456.7657 M 704.5726,453.5826  L 700.3009,463.3679 M 699.2270,455.1233  L 702.6145,447.2891 M 703.9649,449.8363  L 705.7631,446.7193 L 709.3884,445.2159 L 713.6916,445.7958 M 716.6313,447.8061  L 720.4649,439.1902 L 723.0596,436.6182 L 717.6025,448.8481 M 718.8096,446.5175  L 722.3114,438.6722 L 723.9299,436.1906 L 721.1064,442.5098 M 720.4462,443.1138  L 720.2237,446.6370 M 720.4462,443.1138  L 723.0635,440.7195 L 727.0720,440.3612 M 725.6051,440.4923  L 726.6150,438.2479 L 728.5449,441.0492 M 728.5969,441.0734  L 732.1166,441.4066 L 733.7225,438.9228 L 732.0232,442.6457 M 731.4410,442.8881  L 732.1166,441.4066 M 732.4819,441.9360  L 736.0367,442.2724 L 737.9891,445.0983 M 736.3854,447.5940  L 733.1100,447.2860 M 733.0114,448.9857  L 730.4022,451.3951 L 727.8517,456.9576 M 723.1089,458.9525  L 726.3812,451.7627 L 730.4022,451.3951 M 726.3812,451.7627  L 722.4901,449.9435 M 720.4649,439.1902  L 716.2602,439.4317 L 723.0596,436.6182 L 722.8356,432.9278 L 719.9074,429.8437 L 715.6432,428.8001 L 712.0279,430.2841 L 710.7513,433.6097 M 712.0279,430.2841  L 705.5583,445.1845 M 708.8256,445.4494  L 712.4209,437.2252 M 722.9470,434.7633  L 723.9299,436.1906 M 726.6150,438.2479  L 728.2270,435.7688 L 731.7772,436.1070 L 733.7225,438.9228 M 732.4819,441.9360  L 731.6607,443.2067 M 737.2392,437.5001  L 740.7471,437.8338 L 742.3220,435.3864 L 745.9577,427.5257 L 744.3763,429.9805 L 740.7471,437.8338 M 737.2392,437.5001  L 735.3132,434.7177 L 738.9036,426.8464 L 740.8457,429.6415 L 744.3763,429.9805 M 745.6108,431.3387  L 746.8048,428.1005 L 753.7254,413.1687 L 757.2495,411.7223 L 761.4506,412.7562 L 764.3059,415.7179 M 765.5331,414.6356  L 756.1107,401.2712 M 756.6850,400.0251  L 754.1797,405.4615 L 751.0287,406.7476 M 749.4207,410.2535  L 730.8795,417.8372 L 735.0368,408.5102 L 753.7017,400.9196 L 749.4207,410.2535 M 753.7254,413.1687  L 752.5261,416.4270 L 754.2223,419.9767 L 758.0252,422.1498 L 755.0546,428.4600 M 755.3323,428.4981  L 758.9277,430.9370 L 760.7508,434.4682 L 760.2190,437.9768 L 755.5310,447.7597 L 753.1696,449.8192 M 752.9152,449.9265  L 757.4921,440.3476 L 753.4322,440.8203 L 748.7928,450.5991 L 744.7296,449.0320 L 741.9311,445.9226 L 741.2868,442.2658 L 745.8515,432.4364 L 746.5077,436.1115 L 749.3341,439.2398 L 753.4322,440.8203 M 757.4921,440.3476  L 760.2190,437.9768 M 760.0301,433.0722  L 761.8243,429.3108 L 764.1010,432.5588 L 758.7967,443.6022 L 758.0420,442.5198 M 759.5309,443.6325  L 772.7310,438.0801 M 772.7206,438.0845  L 771.3281,437.9516 M 770.8858,438.8563  L 771.8668,436.8496 M 771.0600,435.7010  L 769.1690,439.5784 M 764.4567,441.5605  L 767.9484,434.3524 L 769.9856,434.1711 M 767.9484,434.3524  L 764.1010,432.5588 M 761.8243,429.3108  L 761.9865,425.8561 L 763.2951,424.6452 M 762.8239,423.9742  L 761.3764,427.0175 L 760.0299,429.1317 M 759.0548,431.1830  L 762.6197,423.6835 M 761.8395,422.5726  L 758.1295,430.3955 M 759.2618,431.5840  L 761.9865,425.8561 M 761.4119,421.9638  L 758.0252,422.1498 M 759.8100,419.6829  L 790.2499,392.8376 L 863.2610,494.6965 L 888.1776,499.0104 L 816.7094,400.1598 L 790.2499,392.8376 M 784.9845,397.4812  L 770.0220,376.5332 M 764.5838,368.9195  L 671.8780,239.1285 M 671.8780,239.1285  L 672.3313,226.0484 M 671.0411,224.1998  L 694.5034,256.9090 L 700.3621,253.9468 L 694.4769,256.9224 L 671.0148,224.2129 M 671.0411,224.1998  L 671.4627,211.5780 L 677.3516,208.6522 M 678.0181,209.5743  L 683.1133,207.0418 L 705.5805,238.0370 L 700.4541,240.6185 M 701.1338,241.5590  L 700.3621,253.9468 M 701.0629,253.6088  L 786.6284,372.4449 M 788.6644,372.7705  L 700.5755,250.5200 M 700.6924,248.6442  L 790.3874,373.0460 M 791.9988,379.9035  L 804.0643,396.6605 M 806.3305,397.2876  L 794.0285,380.2148 M 795.7461,380.4782  L 808.2485,397.8184 M 828.1590,385.4490  L 833.5569,380.4359 L 716.1898,361.7258 L 710.3767,367.3860 L 828.1590,385.4490 M 832.8161,379.8312  L 716.1898,361.7258 L 535.4412,104.0548 L 663.0080,147.8713 L 832.8161,379.8312 L 716.1837,361.1794 L 536.2666,104.7347 L 663.0080,147.8713 L 658.2672,152.9395 L 543.0474,114.3996 M 535.4412,104.0548  L 663.0282,147.5194 L 833.5569,380.4359 M 822.5646,378.1918  L 658.2672,152.9395 M 714.7770,168.0985  L 724.8973,24.1191 L 726.8087,26.5627 L 716.6016,168.4809 L 860.4188,361.7465 M 859.6625,362.9263  L 714.7770,168.0985 M 716.6016,168.4809  L 722.4153,165.6110 L 731.7585,44.0368 M 732.8895,45.4881  L 723.5216,165.8370 L 747.9637,153.7684 L 755.7263,74.7909 M 758.9080,78.8735  L 751.3958,153.0933 L 875.8847,317.1695 M 874.7451,314.2487  L 879.3889,322.1496 L 881.2507,325.2913 L 883.8854,328.7649 L 886.3002,331.9486 M 886.5758,332.1876  L 890.8425,336.6909 L 865.0162,374.8087 L 861.2894,370.5500 L 858.6127,367.8971 L 883.4620,329.4865 L 886.5758,332.1876 L 861.2894,370.5500 M 857.6339,370.1033  L 856.7645,367.6976 M 857.0886,366.9416  L 881.6201,328.6733 M 881.9806,328.8324  L 879.3889,322.1496 L 882.0716,328.8726 M 882.7523,329.1732  L 881.2507,325.2913 L 881.2030,323.8479 M 880.1609,322.4746  L 882.8059,325.9603 L 884.6685,329.1089 L 888.7254,334.4564 M 890.8425,336.6909  L 896.0846,342.8159 L 869.6380,380.5014 L 874.9509,387.3817 L 902.0707,350.2993 L 896.0846,342.8159 M 898.0513,341.4499  L 900.8162,339.5288 L 895.5507,333.4180 L 890.7211,331.8029 M 889.4795,330.1688  L 891.2568,328.9332 L 895.5507,333.4180 L 893.1936,335.0568 M 891.2568,328.9332  L 888.3065,328.6251 M 887.0595,326.9839  L 888.1143,326.2500 L 891.2568,328.9332 M 887.2134,325.8683  L 754.6560,151.4830 L 751.3958,153.0933 M 747.9637,153.7684  L 880.2908,328.4617 M 881.0711,329.5296  L 874.7451,314.2487 L 936.5163,395.6285 L 934.2631,394.4816 L 932.4475,391.3814 L 929.6981,387.7580 M 928.7754,387.2480  L 930.5909,390.3419 L 933.3292,393.9521 L 934.5437,397.4948 M 936.5163,395.6285  L 940.1077,407.5422 M 940.2883,407.8847  L 909.7072,439.0726 L 906.7624,433.8861 L 937.1783,401.9853 L 940.2883,407.8847 L 942.0995,412.1313 L 911.5007,442.7506 L 949.6769,434.5281 L 942.0995,412.1313 M 943.8211,410.9427  L 946.7853,408.8964 L 945.0006,404.6302 L 942.3271,406.4768 M 945.0006,404.6302  L 941.9133,398.7134 L 940.1398,399.9390 M 941.9133,398.7134  L 937.6478,391.3978 L 936.5701,392.1431 M 937.6478,391.3978  L 932.3917,383.0116 L 930.5825,384.2630 M 932.3917,383.0116  L 926.3871,373.9435 L 928.3751,381.3580 M 924.5923,381.7341  L 928.7754,387.2480 M 928.0916,387.0469  L 930.5909,390.3419 L 930.5710,388.9084 M 933.4803,388.0767  L 932.3917,383.0116 M 936.1167,382.9798  L 937.2130,386.4853 M 937.4892,387.1442  L 980.3986,418.1860 M 979.4047,420.7323  L 939.3942,391.6888 L 940.6046,394.5761 L 944.7995,402.6018 L 941.5727,396.4284 L 978.4165,423.2640 M 977.4340,425.7812  L 944.2326,401.5171 M 944.7995,402.6018  L 947.7106,407.2055 L 976.4570,428.2841 M 977.2151,426.3419  L 949.6160,406.1569 L 948.7859,404.8448 M 946.7853,408.8964  L 954.1775,431.4264 L 951.3305,433.3885 L 943.8211,410.9427 M 943.8212,410.9425  L 938.2880,394.4040 L 876.4700,313.0475 M 874.7451,314.2487  L 880.8451,329.8822 M 898.4638,341.9927  L 906.8208,347.0027 L 913.2892,355.5004 L 910.3016,357.5721 M 908.5258,358.8036  L 902.0707,350.2993 M 903.8415,349.0702  L 906.8208,347.0027 L 900.8162,339.5288 M 913.2892,355.5004  L 916.6404,365.9143 M 917.1288,366.5571  L 919.9167,364.6246 L 926.3871,373.9435 L 923.9984,375.5979 M 921.6157,377.2477  L 915.1458,367.9313 L 886.6542,403.4113 L 892.4948,411.8103 L 921.6157,377.2477 L 927.6267,386.3076 L 897.9581,419.9376 L 902.7875,427.4112 L 932.8948,394.6842 L 927.6267,386.3076 M 936.1167,382.9798  L 981.3983,415.6249 M 982.4038,413.0490  L 934.8320,378.8714 M 934.7654,378.6586  L 934.0871,375.1424 L 933.3694,371.4228 M 933.3693,371.4228  L 984.4323,407.8520 M 984.9520,409.4446  L 995.6323,382.1716 L 997.2011,384.1842 L 1000.3285,376.2501 L 997.9530,373.2131 L 953.5682,486.9233 M 953.5682,486.9233  L 920.9408,443.0777 M 919.4952,443.3835  L 955.0307,491.1682 L 986.4681,411.4133 L 984.9520,409.4446 L 989.1529,407.1173 L 998.5010,383.4680 M 997.2011,384.1842  L 1001.5241,381.8022 L 990.6704,409.0833 L 986.4681,411.4133 M 983.4151,410.4580  L 934.0871,375.1424 L 933.3693,371.4228 M 933.3685,371.4183  L 933.2225,368.0987 L 985.4555,405.2306 M 986.4847,402.5939  L 933.1336,364.8027 L 933.6177,361.8974 L 987.5200,399.9416 M 988.5614,397.2737  L 934.2160,359.0559 L 935.0662,356.3737 L 935.9212,353.6762 L 936.7811,350.9632 L 937.6459,348.2347 L 938.5157,345.4906 L 939.3905,342.7306 L 940.2704,339.9547 L 941.1553,337.1626 L 942.0454,334.3544 L 942.9407,331.5297 L 944.7471,325.8307 L 946.7506,324.7548 M 946.3799,323.4387  L 945.3260,324.0044 M 945.8131,323.0596  L 947.1576,320.4528 M 945.8131,323.0596  L 952.9117,327.8078 M 944.7471,325.8307  L 958.6454,335.1650 M 964.4042,342.5544  L 943.8413,328.6885 L 942.9407,331.5297 L 944.9332,330.4582 M 943.8413,328.6885  L 944.7471,325.8307 M 942.9407,331.5297  L 970.1885,349.9765 M 975.9985,357.4315  L 942.0454,334.3544 L 939.3905,342.7306 L 941.3611,341.6680 M 940.2704,339.9547  L 987.6957,372.4407 M 988.1172,372.9816  L 985.8799,374.2085 L 978.4027,372.9089 L 981.2787,376.9926 L 983.4090,381.5544 L 984.4197,385.7893 L 986.1250,377.8992 L 984.2266,387.9586 M 984.4001,388.1826  L 991.9603,388.5660 M 991.8837,388.7622  L 984.1482,388.8424 M 984.1435,388.9289  L 991.8736,388.7882 M 991.4656,389.8333  L 984.1435,388.9289 M 984.0832,389.0124  L 991.4555,389.8591 M 991.3790,390.0552  L 983.8312,389.6722 M 983.0946,390.0256  L 989.6089,394.5900 M 990.6627,391.8903  L 987.7717,389.8721 M 982.6213,390.5105  L 980.1416,390.1964 L 977.1318,388.0831 L 974.1084,384.5409 L 971.5841,380.1780 L 969.9875,375.7328 L 969.5913,371.9631 L 970.4705,369.5163 M 970.0499,370.6868  L 937.6459,348.2347 M 936.7811,350.9632  L 969.7975,373.9258 M 969.7991,373.9410  L 937.8704,352.6222 M 935.9212,353.6762  L 970.8141,378.0344 M 967.2283,378.9087  L 936.1547,358.0062 M 935.0662,356.3737  L 973.3186,383.1759 M 981.2787,376.9926  L 986.3067,375.5311 L 986.1250,377.8992 L 983.4090,381.5544 L 986.3067,375.5311 M 986.1515,374.6470  L 981.2787,376.9926 M 983.2808,372.9111  L 939.3905,342.7306 M 938.5157,345.4906  L 972.3738,368.8616 M 972.4832,368.8239  L 975.2887,370.0201 L 978.4027,372.9089 L 986.0070,374.1388 M 986.1548,374.0578  L 975.2887,370.0201 L 986.2089,374.0281 M 986.2167,374.0238  L 972.4832,368.8239 L 986.2183,374.0229 M 986.1515,374.6470  L 978.4027,372.9089 M 981.8340,364.9193  L 941.1553,337.1626 L 943.1368,336.0956 M 938.6971,309.5685  L 921.2710,366.5752 M 919.9167,364.6246  L 913.2892,355.5004 M 916.1270,359.4073  L 931.4596,307.9403 M 934.1262,306.9055  L 917.7076,361.5834 M 915.1458,367.9313  L 908.5258,358.8036 L 880.7126,395.1384 L 874.9509,387.3817 M 873.2074,388.0885  L 875.8794,391.3874 L 878.9356,395.3504 L 882.2388,399.8007 L 885.6390,404.5368 L 888.9808,409.3424 L 892.1112,413.9971 L 894.8878,418.2890 L 897.1855,422.0244 L 898.9036,425.0374 L 899.9692,427.1987 L 884.3020,438.0239 L 883.1908,435.8961 L 898.9036,425.0374 M 897.1855,422.0244  L 881.4335,432.9130 L 883.1908,435.8961 M 881.8822,436.8936  L 883.4799,438.6215 M 884.4431,439.4077  L 900.0080,428.6540 M 900.3405,428.4192  L 884.7233,439.2089 M 881.8822,436.8936  L 879.7245,434.3070 L 877.1027,430.9786 L 874.1310,427.0537 L 870.9357,422.7006 L 867.6509,418.1023 L 864.4141,413.4509 L 861.3599,408.9406 L 858.6164,404.7597 L 856.3002,401.0854 L 854.5113,398.0760 L 853.3300,395.8638 M 853.8522,394.8453  L 869.4608,384.0176 M 868.5427,383.4114  L 852.9865,394.2036 M 855.3780,396.4582  L 871.0372,385.5972 L 873.2074,388.0885 L 857.5017,398.9791 L 855.3780,396.4582 M 857.5017,398.9791  L 860.1333,402.3024 L 875.8794,391.3874 M 878.9356,395.3504  L 863.1570,406.2839 L 860.1333,402.3024 M 863.1570,406.2839  L 866.4373,410.7454 L 882.2388,399.8007 M 880.7126,395.1384  L 886.6542,403.4113 M 885.6390,404.5368  L 869.8257,415.4851 L 866.4373,410.7454 M 869.8257,415.4851  L 873.1665,420.2865 L 888.9808,409.3424 M 892.4948,411.8103  L 897.9581,419.9376 M 894.8878,418.2890  L 879.1049,429.2026 L 881.4335,432.9130 M 879.1049,429.2026  L 876.3072,424.9294 L 892.1112,413.9971 M 902.7875,427.4112  L 906.7624,433.8861 M 902.9111,436.2436  L 906.7354,440.7018 L 909.6237,443.7006 L 911.4376,445.0883 L 949.1527,437.1087 M 949.0285,437.1350  L 950.5090,442.0463 L 948.8675,439.2749 L 947.4996,437.4584 M 948.1944,437.3114  L 948.8675,439.2749 L 948.2252,437.3049 M 948.8448,437.1738  L 950.5090,442.0463 M 949.6103,441.4415  L 947.0800,438.0803 M 946.1391,437.7463  L 954.5439,448.9142 L 949.6770,434.5287 M 951.3307,433.3884  L 956.1542,447.8057 M 953.6640,440.3625  L 965.5769,456.1581 M 966.5390,453.6932  L 952.4766,435.0675 M 952.0019,435.3946  L 954.5400,433.6456 L 954.1775,431.4264 M 950.0660,436.7286  L 912.0794,444.7768 M 911.5007,442.7506  L 909.7072,439.0726 M 902.9111,436.2436  L 898.3238,430.5323 M 876.3072,424.9294  L 873.1665,420.2865 M 866.2308,385.0153  L 862.6850,379.2923 L 859.6408,374.0304 L 857.6339,370.1033 M 865.0162,374.8087  L 869.6380,380.5014 M 864.3172,355.6651  L 722.4153,165.6110 M 723.5216,165.8370  L 864.7761,354.9493 M 904.8089,316.5926  L 907.1836,317.3607 L 936.0239,306.1385 M 936.0423,306.1620  L 907.1836,317.3607 M 906.2872,316.2331  L 903.6574,314.7870 L 900.8956,311.1890 L 899.0642,306.8288 L 898.8460,303.3368 L 900.9777,302.3759 M 900.5705,302.1562  L 898.8502,303.3207 M 898.1187,302.3800  L 898.1892,305.6503 L 899.6260,309.8399 L 902.0453,313.8407 L 904.8089,316.5926 M 903.6574,314.7870  L 907.7068,313.3565 M 908.4828,312.6558  L 931.2344,299.9928 M 931.2792,300.0503  L 908.4828,312.6558 L 908.5318,315.9246 L 932.3421,301.4142 M 929.5274,297.8025  L 907.0418,308.4286 L 929.4605,297.7167 M 929.3899,297.6260  L 907.0418,308.4286 L 908.4828,312.6558 M 907.5978,311.4659  L 905.7557,307.0684 L 902.9700,303.4508 L 900.3362,302.0299 M 899.4410,300.9062  L 920.7229,286.5050 M 921.4659,287.4585  L 901.8115,301.6367 L 899.4410,300.9062 M 901.8115,301.6367  L 904.5962,304.3914 L 927.5268,295.2354 M 926.3422,293.7154  L 924.9986,294.1855 L 926.1751,293.5010 M 926.1170,293.4264  L 990.6152,376.1868 L 993.5831,368.4510 L 1000.5446,364.6351 L 1003.0746,367.8583 L 1001.7984,371.1008 M 1002.2318,370.8627  L 1003.5094,367.6196 M 1003.4941,367.5709  L 1004.9195,369.3864 L 997.9530,373.2131 M 997.5224,372.3938  L 1000.5446,364.6351 M 1003.4941,367.5709  L 1032.7027,351.5388 L 761.8994,11.9857 L 734.4887,24.9432 M 734.4869,24.9671  L 761.8970,12.0098 L 1032.6860,351.5480 M 1040.4074,354.2064  L 1000.3285,376.2501 M 997.5224,372.3938  L 990.6152,376.1868 M 993.5831,368.4510  L 729.5719,30.8380 L 728.8666,40.3261 L 923.0466,289.4867 M 923.6889,290.2530  L 925.4715,292.5403 M 924.4262,291.1990  L 929.0777,288.4943 M 928.2295,287.4430  L 924.2550,290.9793 M 923.2192,291.9008  L 904.5962,304.3914 L 907.0418,308.4286 M 906.1281,307.9575  L 900.8956,311.1890 M 899.0642,306.8288  L 903.7192,304.4237 M 904.5962,304.3914  L 924.9986,294.1855 L 923.2192,291.9008 M 921.5519,287.5687  L 901.8115,301.6367 L 921.4952,287.4960 M 927.1827,286.1455  L 904.5962,304.3914 M 907.5978,311.4659  L 907.7993,314.9609 M 908.5318,315.9246  L 935.7575,305.7966 M 939.3987,386.1011  L 961.7844,401.4845 M 949.6275,410.2371  L 952.2313,413.6646 M 952.2313,413.6646  L 954.8943,417.1703 L 959.5204,422.1760 L 971.8980,431.3121 L 974.8799,432.3245 M 975.4755,430.7987  L 973.8236,430.2408 M 975.4856,430.7728  L 952.2313,413.6646 M 951.0389,421.8606  L 969.4678,446.1898 M 977.3037,426.1148  L 968.5353,419.2780 M 961.4316,421.1176  L 959.4462,418.9726 M 945.8337,423.1686  L 936.5163,395.6285 M 934.2631,394.4816  L 936.3353,400.5484 M 936.1234,400.1873  L 934.2631,394.4816 M 932.8948,394.6842  L 937.1783,401.9853 M 939.3942,391.6888  L 937.4892,387.1442 M 935.8748,439.9180  L 957.7282,469.0892 L 961.3152,467.0763 M 956.9262,478.3205  L 929.2837,441.3125 M 928.4040,441.4986  L 956.5727,479.2260 M 955.0307,491.1682  L 990.4264,471.1878 L 1040.4074,354.2064 L 762.4466,6.4001 L 724.8973,24.1191 M 726.8087,26.5627  L 733.3384,23.4781 L 732.8936,29.2659 M 733.7726,28.8499  L 734.0605,25.1363 L 736.1079,27.7447 L 729.5719,30.8380 M 748.9431,84.8461  L 751.9904,88.7800 L 747.3803,91.0110 L 744.3367,87.0715 L 748.9431,84.8461 M 751.9904,88.7800  L 750.6262,102.9393 L 746.0690,105.1544 L 743.0625,101.2431 L 744.3367,87.0715 M 747.3803,91.0110  L 746.0690,105.1544 M 761.8132,82.6012  L 754.6560,151.4830 M 747.7075,163.8509  L 771.2604,195.0467 L 757.5773,201.9156 L 734.1078,170.5870 L 747.7075,163.8509 L 747.4076,166.8816 L 769.3664,195.9974 M 747.4076,166.8816  L 735.6855,172.6930 M 705.5805,238.0370  L 705.0538,245.9850 L 700.7219,248.1715 M 700.4383,252.7230  L 701.0639,253.5919 M 701.0629,253.6088  L 700.7563,258.4794 L 694.4769,256.9224 M 694.5034,256.9090  L 695.2066,244.5449 L 701.1338,241.5590 M 695.2066,244.5449  L 671.4627,211.5780 M 671.3986,213.4964  L 633.4359,232.3690 M 634.6297,232.6716  L 637.3067,235.4130 L 637.4037,238.6051 L 635.4321,244.8291 M 635.1265,245.0682  L 637.6794,243.0705 L 641.4870,242.8683 L 645.1007,244.5352 L 647.1471,247.4385 L 646.8433,250.4753 L 644.8224,256.6616 M 643.2439,257.2146  L 650.6484,254.6204 L 658.6419,265.9683 L 655.6234,274.8597 M 656.2371,273.0518  L 660.0572,271.6901 L 662.0467,265.8736 L 658.2120,267.2347 M 658.6419,265.9683  L 651.2294,268.5967 M 643.3229,271.4003  L 640.1916,272.5106 L 636.9216,282.5076 L 648.2542,278.4593 M 648.5157,287.6664  L 650.3072,290.2377 L 647.4404,298.6842 L 645.8199,300.8791 L 642.4166,300.5088 L 640.6402,297.9425 L 643.4644,289.4849 L 645.2546,292.0615 L 648.6794,292.4373 L 650.3072,290.2377 M 651.5625,291.6072  L 655.0557,290.3443 L 656.7303,290.5926 M 655.0078,290.3616  L 655.5220,288.8629 M 653.7620,286.3435  L 652.0236,291.4405 M 651.5625,291.6072  L 649.7832,294.3460 L 650.2893,297.6959 L 652.9275,300.5910 L 656.8593,302.1053 L 660.8282,301.7546 L 657.6723,310.7540 M 659.9549,309.9142  L 663.3985,300.1380 M 663.2380,299.9082  L 660.8282,301.7546 M 661.8467,304.5434  L 662.5405,305.5386 M 662.7706,304.8869  L 665.9114,303.7351 M 664.7455,302.0662  L 663.8931,304.4752 M 662.7706,304.8869  L 670.9589,316.6282 L 674.1030,315.4612 M 670.9589,316.6282  L 667.4075,326.4172 L 678.7861,322.1649 M 686.2141,318.4622  L 689.4835,309.7525 L 682.0415,312.5147 M 686.9656,316.4601  L 690.6033,315.1036 L 692.7564,309.4052 L 689.1048,310.7615 M 689.4835,309.7525  L 681.2759,298.1006 L 673.8415,300.8269 M 673.4180,300.2233  L 674.9204,296.0509 L 677.4622,293.9599 L 675.1541,300.3456 M 678.9249,298.9627  L 680.9415,293.4225 L 682.5255,291.2315 L 679.8273,298.6318 M 681.1632,294.9677  L 685.5021,301.1218 M 686.6220,300.7096  L 692.7564,309.4052 M 692.2629,310.7112  L 704.0748,327.4649 M 704.5110,326.8404  L 707.9317,327.2054 L 709.7825,329.8260 L 708.6824,332.5929 M 708.5590,332.5798  L 711.9840,332.9433 L 713.8412,335.5729 L 710.6254,343.5588 M 709.8552,343.8544  L 712.2722,337.8445 L 713.8412,335.5729 M 712.2722,337.8445  L 708.9861,337.4974 M 708.9070,338.6175  L 706.2626,345.2335 M 705.2650,345.6164  L 712.7282,342.7516 L 721.1587,354.7201 L 718.3359,361.5235 M 718.5482,361.0118  L 721.9663,359.6783 L 724.2912,354.1064 L 720.8600,355.4401 M 721.1587,354.7201  L 713.6882,357.6224 M 705.7189,360.7185  L 702.5625,361.9449 L 698.7156,371.5108 L 710.1385,367.0450 M 710.3767,367.3860  L 530.4124,109.7717 L 535.4412,104.0548 M 469.7702,202.7528  L 479.3726,217.3112 M 485.3071,216.7991  L 494.0686,230.0436 L 490.0217,237.1676 M 492.3232,236.9457  L 497.2537,244.4208 M 503.1861,243.8260  L 512.0949,257.2932 L 507.8942,264.4581 M 510.2948,264.1926  L 515.4370,271.9887 M 521.3663,271.3084  L 530.4262,285.0040 L 526.0616,292.2139 M 527.6998,291.3784  L 527.1094,290.4831 M 528.5698,291.8995  L 540.7176,310.3170 L 539.3493,312.5250 M 540.7176,310.3170  L 437.8437,324.2326 L 428.7171,340.3420 L 411.6450,312.8212 L 420.5410,296.5948 L 457.8123,292.0789 L 462.9468,300.1245 L 528.5698,291.8995 M 533.3396,290.4101  L 533.6967,293.7645 L 536.2514,296.6648 L 540.1920,298.1833 L 542.9471,287.4133 L 547.0463,287.0697 L 544.7452,295.9576 M 547.1592,295.1089  L 553.0377,303.9546 L 551.4808,309.7856 L 545.7789,311.8170 L 539.9367,302.9761 L 536.5998,304.0738 M 536.7116,304.2434  L 539.9367,302.9761 L 541.4392,297.1199 L 547.1592,295.1089 M 547.2739,295.2815  L 549.9637,284.9651 L 547.0463,287.0697 M 548.8657,289.1764  L 549.4616,290.0709 M 548.9933,290.2350  L 568.3454,283.4550 L 576.2440,295.1858 L 573.4090,305.1959 L 554.1681,312.0693 L 556.8675,302.0566 L 576.2440,295.1858 M 575.8846,296.4547  L 580.2109,294.9192 L 578.5428,300.7466 L 574.2341,302.2825 M 574.1022,305.9501  L 577.7626,304.6414 L 581.9341,305.6810 L 584.6748,308.5836 L 584.7036,311.9992 L 582.8778,318.2179 M 582.4452,318.5629  L 582.0414,321.8167 L 584.1152,324.9133 L 581.1854,334.8060 M 579.6437,335.3714  L 578.9007,334.2562 M 579.1731,335.5439  L 598.6167,328.4135 L 606.7323,340.4666 L 603.6187,350.2556 L 584.2878,357.4798 L 587.2649,347.6922 L 606.7323,340.4666 M 606.4113,341.4759  L 610.5737,339.9298 L 608.7438,345.6297 L 604.5984,347.1756 M 604.9380,351.9399  L 608.6155,350.5632 L 612.8382,351.6075 L 615.6405,354.5854 L 615.7126,358.1120 L 613.6195,364.4553 M 613.3592,364.6716  L 612.9925,368.0341 L 615.1241,371.2171 L 611.6869,381.5371 M 610.6638,381.9298  L 609.7658,380.5819 M 610.1910,382.1113  L 618.5096,394.5999 M 614.3337,396.1909  L 608.5539,398.4362 L 606.6907,403.9952 M 608.5539,398.4362  L 602.3501,389.0711 M 602.2472,389.3856  L 600.6619,389.5499 L 596.6114,387.9876 L 593.9380,384.9343 L 593.4912,381.3668 L 596.7749,371.0365 L 597.2299,374.6208 L 599.9290,377.6922 L 604.0145,379.2678 L 608.1804,378.8437 L 605.1689,387.9858 M 600.6619,389.5499  L 604.0145,379.2678 M 608.1804,378.8437  L 611.0980,376.5596 M 611.5240,372.4785  L 612.9925,368.0341 M 610.0391,369.5891  L 613.0114,360.5389 L 615.7126,358.1120 M 617.5795,358.4291  L 616.2627,362.4004 M 616.0753,362.4143  L 620.0995,362.1167 L 623.9013,363.8886 L 626.0363,367.0574 L 625.6873,370.4199 L 623.4298,377.0294 M 621.2151,377.8796  L 622.9788,372.6917 L 625.6873,370.4199 M 626.0240,369.1012  L 629.5735,369.4608 L 631.2799,367.0946 L 628.5253,375.0735 M 627.5051,375.4651  L 629.5735,369.4608 M 631.2799,367.0946  L 629.4424,364.3734 L 625.8999,364.0127 L 624.9073,365.3818 M 624.9277,365.3537  L 625.5561,363.5028 L 627.2642,361.1478 L 626.2763,364.0510 M 625.5561,363.5028  L 622.3790,363.1791 M 621.8799,362.9464  L 620.1816,360.4242 L 621.8953,358.0739 L 625.4332,358.4362 L 627.2642,361.1478 M 630.1139,357.9413  L 631.9281,360.6220 L 635.4236,360.9795 L 637.0984,358.6575 L 639.9703,350.3951 L 638.2876,352.7230 L 635.4236,360.9795 M 631.9281,360.6220  L 634.7695,352.3599 L 638.2876,352.7230 M 639.3855,354.8837  L 639.8913,358.4017 L 642.5905,361.4214 L 646.6255,362.9769 L 650.7065,362.5705 L 647.4139,371.7205 M 649.8114,370.6287  L 653.5321,360.3363 L 650.7065,362.5705 M 651.9319,364.7629  L 652.6766,365.8551 M 652.6986,365.7944  L 671.7447,358.4834 L 680.1332,370.6587 L 676.4372,380.2207 L 657.5003,387.6242 L 661.0663,378.0663 L 680.1332,370.6587 M 679.8551,371.3783  L 683.5465,369.9435 L 681.3798,375.5119 L 677.7029,376.9463 M 679.2458,382.5189  L 682.8468,381.1074 L 687.0590,382.1466 L 689.9214,385.1514 L 690.0966,388.7244 L 685.0235,401.3846 M 685.0769,401.4919  L 687.5872,395.2287 L 694.1871,392.6097 L 698.0037,394.3878 L 700.2106,397.5889 L 699.9635,400.9974 L 697.1213,407.8752 M 695.1406,408.6711  L 697.3478,403.3114 L 699.9635,400.9974 M 700.0690,399.5412  L 703.4644,399.8767 L 705.0851,397.4719 L 701.7468,405.4904 M 700.7440,406.4196  L 703.4644,399.8767 M 705.0851,397.4719  L 703.1861,394.7232 L 699.6676,394.3734 L 698.8379,395.5979 M 698.6880,395.3804  L 699.3123,393.8584 L 700.9350,391.4649 L 699.7375,394.3804 M 699.3123,393.8584  L 696.2039,393.5493 M 695.6380,393.2857  L 693.9003,390.7634 L 695.5288,388.3745 L 699.0427,388.7259 L 700.9350,391.4649 M 704.7736,390.5967  L 702.8995,387.8892 L 706.2217,379.8087 L 708.1111,382.5281 L 711.6058,382.8802 L 713.2041,380.5142 L 709.8375,388.5838 L 708.2460,390.9433 L 704.7736,390.5967 L 708.1111,382.5281 M 706.2217,379.8087  L 707.8259,377.4473 L 711.3136,377.8007 L 713.2041,380.5142 M 714.3718,381.5578  L 713.1478,384.6859 L 719.5538,369.3827 L 721.1894,372.8304 L 724.9304,374.9599 L 722.2065,381.3693 M 722.3969,381.3961  L 725.9292,383.7817 L 727.6909,387.2126 L 727.1190,390.6054 L 722.7737,400.6545 L 721.3914,401.8102 M 720.3595,402.2260  L 724.3863,392.8817 L 720.3568,393.3117 L 716.0599,403.3585 L 712.0528,401.8138 L 709.3183,398.7841 L 708.7254,395.2388 L 712.9508,385.1444 L 713.5546,388.7065 L 716.3158,391.7539 L 720.3568,393.3117 M 724.3863,392.8817  L 727.1190,390.6054 M 727.0899,386.0423  L 728.7665,382.1498 L 730.9814,385.3096 L 726.0626,396.6506 L 725.1013,395.2716 M 726.3919,396.1142  L 745.0390,388.6216 L 753.7017,400.9196 M 753.5219,401.3118  L 756.6850,400.0251 L 750.2123,390.8500 L 747.4057,391.9815 M 749.0841,391.3048  L 744.4198,384.6890 M 744.4548,383.4745  L 746.0075,381.1187 L 742.4372,389.1473 M 741.5442,390.0259  L 744.4548,383.4745 L 741.2866,383.1543 M 741.2112,384.4957  L 738.1676,391.3826 M 736.3160,392.1266  L 738.6812,386.7595 L 741.2112,384.4957 L 741.3991,381.1523 L 739.1817,378.0065 L 735.4071,376.2528 L 731.5096,376.5569 L 728.9716,378.8066 L 728.7665,382.1498 M 728.9716,378.8066  L 726.4216,384.7408 M 726.3073,384.5182  L 731.5336,372.3506 L 729.0186,374.7687 L 725.3312,383.3779 M 722.3969,381.3961  L 718.2099,380.8067 L 714.6890,382.2015 L 712.9508,385.1444 M 711.6058,382.8802  L 708.2460,390.9433 M 713.5546,388.7065  L 709.3183,398.7841 M 712.0528,401.8138  L 716.3158,391.7539 M 714.3718,381.5578  L 719.7044,368.8165 M 721.1894,372.8304  L 717.7541,380.9872 M 724.9304,374.9599  L 729.0186,374.7687 M 730.7361,374.8742  L 732.3026,372.5316 L 729.9923,377.9018 M 729.0920,378.6999  L 730.7361,374.8742 M 731.5336,372.3506  L 731.4198,370.6132 M 731.4678,371.3457  L 732.3026,372.5316 M 734.8687,371.1421  L 736.0498,372.8173 M 736.4816,372.1697  L 739.9366,372.5227 L 741.8379,375.2148 L 740.4801,378.3071 M 740.6401,378.0658  L 744.0996,378.4172 L 746.0075,381.1187 M 740.6401,378.0658  L 739.9536,379.1016 M 739.7398,378.7982  L 740.2831,377.5596 L 741.8379,375.2148 M 740.2831,377.5596  L 737.6420,377.2911 M 736.5097,376.7651  L 734.9213,374.5099 L 736.4816,372.1697 M 734.9213,374.5099  L 734.1230,376.3530 M 730.9814,385.3096  L 734.7715,387.0720 L 738.6812,386.7595 M 734.7715,387.0720  L 731.7588,393.9577 M 726.3919,396.1142  L 735.0368,408.5102 M 730.4608,410.0295  L 728.0575,415.4621 L 722.5619,417.7040 L 716.1499,408.4367 L 718.4955,402.9771 L 724.0085,400.7556 L 730.4608,410.0295 L 724.9437,412.2727 L 722.5619,417.7040 M 724.9437,412.2727  L 718.4955,402.9771 M 718.4427,403.0999  L 716.0599,403.3585 M 709.3448,407.3251  L 715.7879,416.6611 L 713.4414,422.0885 L 710.0197,423.4851 M 708.5152,426.9846  L 689.5019,434.7615 L 693.3771,425.4523 L 712.5210,417.6669 L 708.5152,426.9846 M 712.3527,418.0585  L 715.7879,416.6611 M 712.5210,417.6669  L 703.8985,405.1521 L 684.7746,412.8362 L 693.3771,425.4523 M 688.9050,426.9251  L 686.6660,432.3473 L 681.0300,434.6464 L 674.6503,425.2154 L 669.4331,427.1845 M 667.4339,424.2208  L 673.8437,433.7230 M 681.0300,434.6464  L 683.2462,429.2257 L 688.9050,426.9251 L 682.4845,417.4870 L 676.8303,419.7652 L 683.2462,429.2257 M 687.1187,431.2511  L 689.5019,434.7615 M 674.6503,425.2154  L 676.8303,419.7652 M 676.8170,419.7984  L 674.6422,420.0394 L 670.5856,418.4747 L 667.8498,415.3935 L 667.3042,411.7815 L 671.2270,401.7010 L 671.7824,405.3307 L 674.5451,408.4304 L 678.6368,410.0084 L 682.7498,409.5601 L 679.0034,418.8897 M 680.0997,418.4479  L 681.5269,417.2666 L 685.5723,407.2327 L 682.7498,409.5601 M 683.8323,411.5484  L 684.7508,412.8953 M 684.7746,412.8362  L 682.7411,417.8642 M 685.1410,412.6890  L 689.5265,401.8525 L 687.3225,398.6370 L 687.5872,395.2287 L 690.2107,392.9293 L 694.1871,392.6097 M 693.1185,392.6956  L 693.9003,390.7634 M 691.2653,388.7537  L 689.2495,393.7717 M 688.2119,394.6812  L 689.6304,391.1449 L 691.2653,388.7537 L 690.0085,386.9285 M 690.0966,388.7244  L 687.4932,391.1957 L 683.9954,399.9541 M 684.4738,400.2798  L 686.2116,403.7727 L 685.5723,407.2327 M 685.6847,402.7137  L 687.3225,398.6370 M 684.4738,400.2798  L 680.9146,397.8568 L 676.6583,397.2664 L 673.0475,398.6967 L 671.2270,401.7010 M 670.0061,399.3520  L 671.6743,396.9364 L 668.5475,404.9959 L 666.8870,407.4046 L 663.3553,407.0598 L 661.4910,404.3050 L 664.5718,396.2345 L 666.4514,399.0016 L 670.0061,399.3520 L 666.8870,407.4046 M 663.3553,407.0598  L 666.4514,399.0016 M 664.5718,396.2345  L 666.2456,393.8237 L 669.7934,394.1752 L 671.6743,396.9364 M 672.5992,399.4365  L 677.9392,385.7288 L 679.5479,389.2391 L 683.3241,391.4006 L 680.7755,397.8375 M 676.3534,397.3871  L 679.5479,389.2391 M 677.9392,385.7288  L 679.2458,382.5189 M 683.3241,391.4006  L 687.4932,391.1957 M 690.0966,388.7244  L 683.3241,391.4006 M 689.5265,401.8525  L 693.3589,403.6396 L 697.3478,403.3114 M 693.3589,403.6396  L 690.5496,410.5158 M 678.6368,410.0084  L 674.6422,420.0394 M 670.5856,418.4747  L 674.5451,408.4304 M 671.7824,405.3307  L 667.8498,415.3935 M 663.1177,414.2426  L 660.0244,422.2481 M 658.9061,423.2303  L 661.4258,416.6984 L 663.1177,414.2426 L 661.2287,411.4452 L 657.6491,411.0975 L 656.6648,412.5184 M 656.5953,412.4153  L 657.2956,410.5733 L 658.9895,408.1292 L 657.8515,411.1171 M 657.2956,410.5733  L 653.7136,410.2252 L 651.8327,407.4316 L 653.5323,404.9923 L 657.1072,405.3417 L 658.9895,408.1292 M 655.7694,411.1894  L 657.9645,414.4475 L 657.6552,417.9234 L 655.0261,424.7893 M 652.9102,425.6395  L 654.9506,420.2893 L 657.6552,417.9234 M 657.8390,416.3520  L 661.4258,416.6984 M 654.9506,420.2893  L 650.8797,420.6340 L 648.2853,427.4979 M 642.9545,424.2887  L 639.2257,434.3034 L 637.7516,435.5114 M 636.5880,435.9802  L 640.0385,426.6689 L 635.8389,427.1364 L 632.1638,437.1476 M 628.0561,435.5625  L 631.6952,425.5377 L 635.8389,427.1364 M 640.0385,426.6689  L 642.9545,424.2887 L 643.6646,420.7591 L 641.9526,417.2021 L 638.3662,414.7406 L 634.0383,414.1492 L 630.3340,415.6166 L 628.4276,418.6843 L 628.9320,422.3839 L 631.6952,425.5377 M 628.9320,422.3839  L 626.2463,429.8519 M 626.9411,430.9023  L 566.6244,443.2150 L 561.3448,450.9209 M 559.4336,451.3174  L 624.7771,437.7603 M 626.9411,430.9023  L 617.0649,415.9728 L 556.7087,427.7637 L 566.6244,443.2150 M 559.4336,451.3174  L 553.8211,442.5229 L 516.6159,450.0557 L 535.5653,480.3236 L 525.0877,495.6946 L 506.4067,465.5801 L 516.6159,450.0557 M 515.2975,447.9498  L 505.1068,463.4848 L 486.7653,433.9176 L 496.6957,418.2371 L 599.3717,399.2429 L 611.1664,417.1251 M 619.5309,419.7005  L 621.8521,413.0821 L 623.7208,415.8986 L 627.3377,416.2469 L 629.0787,413.7800 L 626.2052,421.8263 L 624.4728,424.2859 L 622.4357,424.0916 M 621.3871,422.5065  L 623.7208,415.8986 M 621.8521,413.0821  L 623.5989,410.6201 L 627.2086,410.9697 L 629.0787,413.7800 M 630.5778,415.5200  L 635.2526,402.4959 L 636.8324,406.0710 L 640.6445,408.2655 L 638.2833,414.7292 M 641.6074,416.9652  L 644.8971,408.0461 L 647.5926,405.5200 M 649.1814,405.3894  L 647.4379,410.0809 M 647.8523,409.7218  L 651.9100,409.3861 L 655.7694,411.1894 M 651.0748,409.4552  L 651.8327,407.4316 M 649.1814,405.3894  L 647.4753,407.8310 L 646.2630,411.0991 M 645.1396,412.0727  L 647.8523,409.7218 M 644.8971,408.0461  L 640.6445,408.2655 M 636.8324,406.0710  L 633.8923,414.2070 M 627.3377,416.2469  L 624.4728,424.2859 M 625.0671,428.0695  L 628.4276,418.6843 M 642.6802,418.7140  L 645.1396,412.0727 M 644.8121,415.5484  L 643.2206,419.8367 M 647.0040,418.8214  L 650.8797,420.6340 M 642.0826,429.9902  L 650.6375,442.8337 M 640.1804,435.0841  L 642.0826,429.9902 M 637.2237,446.4462  L 576.9511,459.3066 L 587.0497,475.0427 L 647.2764,461.6424 M 654.1868,461.8174  L 656.1089,464.7146 L 659.7646,465.0487 L 661.4906,462.4871 L 658.3504,470.3069 L 656.6326,472.8601 L 653.0013,472.5315 L 651.0951,469.6481 L 654.1868,461.8174 L 655.9189,459.2609 L 659.5671,459.5965 L 661.4906,462.4871 M 659.7646,465.0487  L 656.6326,472.8601 M 653.0013,472.5315  L 656.1089,464.7146 M 661.9013,466.0812  L 667.8851,451.2414 M 669.5259,454.9250  L 666.1958,463.1272 M 673.4023,457.1657  L 677.6924,456.9085 M 668.5730,476.3735  L 664.5584,486.0940 L 663.0720,485.5201 M 664.5584,486.0940  L 668.2189,485.6438 M 666.7365,486.2689  L 665.5147,489.2127 M 667.9775,492.9356  L 607.8540,507.4613 L 602.0178,515.3614 M 600.5361,515.7244  L 665.6769,499.7689 M 667.9775,492.9356  L 657.7436,477.4654 L 597.5676,491.4324 L 607.8540,507.4613 M 600.5361,515.7244  L 594.7136,506.6006 L 557.5840,515.4940 L 577.2585,546.9202 L 566.1796,561.9361 L 567.8278,563.7816 M 567.5540,564.1517  L 578.6533,549.1481 L 680.7863,522.6764 M 679.4033,520.5797  L 577.2585,546.9202 M 578.6533,549.1481  L 598.7061,581.1785 M 587.3121,596.0024  L 567.5540,564.1517 M 568.0352,564.9275  L 564.9083,569.1506 L 545.6861,538.0835 L 548.7333,533.8120 M 547.3904,531.6473  L 544.3487,535.9221 L 525.4795,505.4255 L 528.4438,501.1047 M 527.1255,498.9796  L 524.1666,503.3035 L 505.6407,473.3619 L 508.5246,468.9943 M 507.2302,466.9078  L 504.3516,471.2783 L 486.1597,441.8766 L 488.9656,437.4646 M 487.6946,435.4156  L 484.8937,439.8304 L 467.0270,410.9541 L 469.7572,406.5000 M 468.5088,404.4876  L 465.7835,408.9443 L 448.2332,380.5794 L 450.8900,376.0854 M 448.5345,372.2883  L 466.2243,400.8048 L 475.8669,384.9670 L 513.1191,378.7436 L 511.8385,381.1623 M 513.1191,378.7436  L 507.7388,370.3127 L 515.6370,369.0292 M 517.3060,366.3641  L 577.7927,356.6064 M 575.9289,356.9071  L 577.5130,351.5769 L 583.2660,349.4412 M 587.2649,347.6922  L 579.1731,335.5439 L 577.5931,340.9048 M 577.0929,340.4008  L 580.1128,330.1360 L 577.1948,332.3283 L 574.5623,341.3318 M 571.4781,342.4665  L 577.5130,351.5769 M 581.9195,353.9093  L 584.2878,357.4798 M 587.3297,371.0230  L 526.8707,381.2684 L 522.0538,388.8274 M 526.8707,381.2684  L 517.3060,366.3641 L 511.3195,375.9236 M 502.9101,358.6175  L 507.5228,351.1192 L 568.0353,341.8565 L 563.3070,349.1716 M 563.4583,348.9857  L 570.1294,347.1147 M 570.0161,343.2458  L 571.2868,343.1257 M 570.0161,343.2458  L 573.0623,332.7112 L 577.1948,332.3283 M 580.1128,330.1360  L 580.8930,326.8371 L 579.2967,323.4804 L 575.8348,321.1258 L 571.6009,320.5145 L 567.9308,321.8414 L 565.9878,324.6919 L 566.3959,328.1659 L 569.0335,331.1582 L 573.0623,332.7112 M 569.0335,331.1582  L 566.5985,339.6845 M 568.0353,341.8565  L 558.6615,327.6864 L 498.1266,336.4776 L 507.5228,351.1192 M 493.9488,348.7041  L 456.6841,354.3264 L 447.3034,370.3036 L 429.9266,342.2917 L 439.0697,326.1908 L 541.9411,312.1718 L 552.7413,328.5462 M 552.7817,328.5403  L 557.9697,326.3288 M 558.0021,326.2114  L 552.4578,328.1163 M 552.3048,327.8843  L 558.1207,325.7811 M 557.5510,327.8477  L 559.8260,319.5953 L 561.5942,322.2603 L 565.1359,322.6343 L 566.9024,320.3443 L 564.5229,328.7986 L 562.7654,331.0831 L 560.7704,330.8744 M 559.6660,329.2048  L 561.5942,322.2603 M 559.8260,319.5953  L 561.5980,317.3098 L 565.1327,317.6849 L 566.9024,320.3443 M 567.5761,322.3618  L 566.1939,322.8616 M 566.0789,323.2702  L 567.2508,322.8390 M 565.1359,322.6343  L 562.7654,331.0831 M 563.2082,334.5594  L 565.9878,324.6919 M 566.3959,328.1659  L 564.1747,336.0205 M 567.7116,342.3574  L 570.0161,343.2458 M 585.9616,333.0544  L 587.8761,326.6633 L 591.8801,326.3940 L 594.5912,324.2119 L 592.6463,330.6030 M 592.8177,330.5401  L 595.0726,323.1330 L 598.5855,323.5048 L 600.3049,321.2243 L 598.0225,328.6314 M 596.8815,329.0498  L 598.5855,323.5048 M 600.3049,321.2243  L 598.5169,318.5764 L 595.0108,318.2035 L 594.0108,319.5230 M 594.2034,319.2688  L 594.6763,317.7073 L 596.3972,315.4375 L 595.5403,318.2598 M 594.6763,317.7073  L 591.9058,317.4125 M 592.9004,317.8748  L 594.9775,320.9579 L 594.5912,324.2119 M 591.8801,326.3940  L 590.3514,331.4446 M 587.8761,326.6633  L 584.1152,324.9133 M 582.0414,321.8167  L 580.6912,326.4126 M 580.3518,325.6990  L 582.4452,318.5629 L 585.1636,316.3949 L 589.1547,316.1335 L 592.9004,317.8748 M 590.9087,316.9489  L 589.3875,314.6896 L 591.1139,312.4243 L 594.6154,312.7988 L 596.3972,315.4375 M 599.5757,312.8172  L 601.3417,315.4266 L 604.8017,315.7960 L 606.4894,313.5570 L 609.1189,305.1054 L 607.4231,307.3495 L 604.8017,315.7960 M 601.3417,315.4266  L 603.9409,306.9745 L 607.4231,307.3495 M 608.4042,309.3311  L 608.8627,312.7421 L 611.5009,315.6850 L 615.4806,317.2184 L 619.5299,316.8520 L 616.6290,325.8546 M 619.0329,324.9702  L 622.3575,314.7067 L 619.5299,316.8520 M 620.8901,319.2366  L 621.4701,320.0873 M 621.4903,320.0253  L 640.4558,313.0702 L 648.6198,324.9196 L 645.2186,334.7094 L 626.3608,341.7568 L 629.6328,331.9668 L 648.6198,324.9196 M 648.2692,325.9289  L 652.1705,324.4798 L 650.1748,330.1797 L 646.2888,331.6288 M 647.3597,336.0592  L 650.9457,334.7167 L 655.1069,335.7512 L 657.9061,338.6799 L 658.0351,342.1405 L 655.7219,348.5692 M 655.6251,348.6505  L 662.1981,346.1590 L 665.9583,347.9066 L 668.1054,351.0210 L 667.8180,354.3196 L 665.3618,360.9335 M 663.2768,361.7339  L 665.1971,356.5424 L 667.8180,354.3196 M 667.9482,353.0947  L 671.4378,353.4557 L 673.0739,351.1378 L 670.0826,359.1214 M 669.1905,359.4639  L 671.4378,353.4557 M 673.0739,351.1378  L 671.2260,348.4631 L 667.7433,348.1008 L 666.9058,349.2810 M 666.8220,349.1595  L 667.3976,347.5996 L 669.0355,345.2925 L 667.9880,348.1263 M 667.3976,347.5996  L 664.6921,347.3181 M 663.6275,346.8234  L 662.0723,344.5660 L 663.7159,342.2633 L 667.1941,342.6272 L 669.0355,345.2925 M 671.3533,342.3140  L 673.1775,344.9495 L 676.6151,345.3083 L 678.2217,343.0329 L 681.3323,334.7684 L 679.7186,337.0493 L 676.6151,345.3083 M 673.1775,344.9495  L 676.2592,336.6850 L 679.7186,337.0493 M 680.9400,339.1314  L 681.4936,342.5851 L 684.1922,345.5549 L 688.1779,347.0906 L 692.1770,346.7013 L 688.6176,355.8562 M 686.4006,356.7099  L 691.8925,354.5953 L 698.1715,363.6201 L 695.9481,369.1915 L 690.4734,371.3263 L 684.2331,362.3072 L 686.4006,356.7099 L 692.6754,365.7554 L 698.1715,363.6201 M 702.5625,361.9449  L 694.1505,349.8829 L 697.3038,348.6724 M 695.8914,346.6507  L 694.7091,349.6684 M 694.1505,349.8829  L 692.1572,354.9758 M 690.8949,354.8128  L 694.7297,344.9878 M 694.5839,344.7790  L 692.1770,346.7013 M 693.0480,349.2965  L 693.9011,350.5201 M 688.1779,347.0906  L 684.2068,357.3875 L 680.2542,355.8644 L 677.5812,352.9113 L 677.0373,349.4729 L 680.9400,339.1314 L 682.6995,336.2927 L 686.2069,334.9654 L 687.8992,335.2101 M 685.9729,335.0540  L 686.6133,333.3694 M 684.7775,330.7414  L 682.6483,336.3754 M 681.3323,334.7684  L 679.4923,332.1274 L 676.0397,331.7618 L 674.4204,334.0384 L 676.2592,336.6850 M 674.4204,334.0384  L 671.3533,342.3140 M 662.0723,344.5660  L 661.4739,346.2109 M 662.1981,346.1590  L 658.2535,346.4418 L 655.6251,348.6505 L 655.3206,351.9491 L 657.4647,355.0772 L 653.7141,365.4046 M 652.6986,365.7944  L 661.0663,378.0663 M 656.7795,379.7008  L 654.7197,385.2675 L 649.1071,387.4559 L 642.9003,378.2807 L 637.7068,380.1526 M 635.5382,376.9379  L 641.7730,386.1805 M 649.1071,387.4559  L 651.1442,381.8900 L 656.7795,379.7008 L 650.5337,370.5194 L 644.9031,372.6872 L 651.1442,381.8900 M 655.1362,384.1420  L 657.5003,387.6242 M 642.9003,378.2807  L 644.9031,372.6872 M 644.7606,373.0850  L 642.9553,373.2682 L 638.9545,371.7256 L 636.2808,368.7232 L 635.7841,365.2215 L 639.3855,354.8837 L 641.2265,351.9870 L 644.8220,350.6263 L 649.0325,351.2268 L 652.5296,353.5968 L 654.2084,356.9905 L 653.5321,360.3363 M 653.8004,356.1658  L 655.3206,351.9491 M 655.6251,348.6505  L 653.2914,355.1368 M 652.2399,353.4005  L 655.4245,344.5155 L 658.0351,342.1405 L 651.2906,344.6857 L 647.5755,342.5676 L 644.7304,350.6610 M 641.5920,351.8487  L 646.0250,339.1581 L 647.5755,342.5676 M 646.0250,339.1581  L 647.3597,336.0592 M 651.2906,344.6857  L 648.9708,351.2180 M 651.2906,344.6857  L 655.4245,344.5155 M 657.8360,344.9069  L 659.4858,342.6020 L 658.0318,346.6281 M 656.8608,347.6121  L 657.8360,344.9069 M 659.4858,342.6020  L 657.9703,340.4011 M 659.2396,326.1840  L 664.6926,324.1515 L 666.7449,318.4506 L 661.2705,320.4829 L 659.2396,326.1840 L 653.1643,317.4033 L 655.1623,311.6775 L 660.6323,309.6649 L 666.7449,318.4506 M 665.0825,323.0684  L 667.4075,326.4172 M 661.2705,320.4829  L 655.1623,311.6775 M 654.8810,312.4836  L 653.1983,312.6355 L 649.2987,311.1336 L 646.6850,308.2541 L 646.1878,304.9181 L 649.7832,294.3460 M 648.6794,292.4373  L 645.8199,300.8791 M 642.4166,300.5088  L 645.2546,292.0615 M 643.4644,289.4849  L 645.0977,287.2894 L 648.5157,287.6664 M 650.2893,297.6959  L 646.6850,308.2541 M 649.2987,311.1336  L 652.9275,300.5910 M 656.8593,302.1053  L 653.1983,312.6355 M 646.0682,315.6376  L 652.1705,324.4798 M 646.0682,315.6376  L 643.0023,316.7662 M 639.4239,313.4486  L 641.9196,306.0440 L 640.2695,308.2789 L 638.4050,313.8223 M 634.4070,315.2884  L 636.5384,308.8991 L 633.9135,311.0349 L 632.2368,316.0843 M 627.8857,317.6799  L 629.9883,311.2902 L 633.9135,311.0349 M 636.5384,308.8991  L 636.8638,305.7057 L 634.7740,302.6745 L 631.0687,300.9567 L 624.5236,303.3266 L 624.1813,306.5197 L 626.2680,309.5640 L 623.0468,319.4545 M 621.4903,320.0253  L 629.6328,331.9668 M 625.5230,333.7538  L 623.6336,339.4552 L 618.0450,341.5381 L 612.0043,332.6083 L 606.8351,334.3876 M 604.5070,330.9364  L 610.5737,339.9298 M 612.0043,332.6083  L 613.8385,326.8813 L 619.4447,324.8187 L 625.5230,333.7538 L 619.9119,335.8367 L 618.0450,341.5381 M 619.9119,335.8367  L 613.8385,326.8813 M 613.6034,327.6152  L 612.1189,327.7524 L 608.1724,326.2315 L 605.5587,323.3049 L 605.1083,319.9086 L 608.4042,309.3311 L 610.2638,306.5373 L 613.8437,305.2431 L 618.0092,305.8527 L 621.4461,308.1717 L 623.0685,311.4703 L 622.3575,314.7067 M 622.7743,310.8721  L 624.1813,306.5197 M 624.5236,303.3266  L 627.1557,301.2045 L 631.0687,300.9567 M 630.6446,300.9835  L 631.0956,299.6041 L 632.4773,301.6097 M 634.0262,302.3278  L 636.3367,302.5785 L 637.9885,300.3540 L 637.0723,303.1097 M 636.6733,303.0664  L 640.1209,303.4404 L 641.9196,306.0440 M 640.2695,308.2789  L 636.8151,307.9059 M 635.8287,304.2043  L 636.6733,303.0664 M 636.3367,302.5785  L 635.8076,304.1736 M 637.9885,300.3540  L 636.1960,297.7594 L 632.7529,297.3839 L 631.0956,299.6041 M 628.5559,297.6841  L 627.4191,301.1878 M 626.8924,299.9064  L 628.5559,297.6841 L 626.7958,295.1282 M 626.7534,293.4605  L 626.8387,296.8134 L 624.8102,303.0956 M 624.5236,303.3266  L 622.3601,310.0301 M 621.3301,308.0935  L 624.2221,299.0965 L 626.8387,296.8134 L 620.1231,299.2338 L 616.4672,297.1574 L 613.9174,305.2539 M 611.0941,306.2372  L 614.9724,293.8447 L 616.4672,297.1574 M 614.9724,293.8447  L 616.3331,290.8518 L 619.9037,289.5752 L 624.0152,290.6050 L 626.7534,293.4605 M 627.2896,292.8684  L 628.9303,290.6836 L 632.3320,291.0568 L 634.0992,293.6138 L 632.4634,295.8029 L 629.0555,295.4307 L 627.2896,292.8684 M 628.2439,292.8089  L 631.6402,293.1807 L 632.9766,295.1162 M 626.8924,299.9064  L 626.2308,301.9502 M 626.8924,299.9064  L 625.8757,299.7959 M 624.2221,299.0965  L 620.1231,299.2338 L 618.0151,305.8567 M 609.1189,305.1054  L 607.3378,302.4907 L 603.8622,302.1147 L 602.1612,304.3543 L 603.9409,306.9745 M 602.1612,304.3543  L 599.5757,312.8172 M 608.8627,312.7421  L 605.5587,323.3049 M 608.1724,326.2315  L 611.5009,315.6850 M 615.4806,317.2184  L 612.1189,327.7524 M 619.7761,325.3059  L 621.4903,320.0253 M 626.2680,309.5640  L 629.9883,311.2902 M 614.8251,290.4011  L 596.0489,297.1084 L 599.0412,287.1022 L 617.9459,280.3987 L 614.8251,290.4011 M 615.7335,287.4897  L 619.7926,286.0428 L 621.6254,280.2201 L 617.5503,281.6665 M 617.9459,280.3987  L 609.9975,268.8624 L 591.1150,275.4778 L 599.0412,287.1022 M 595.1006,289.0329  L 593.3733,294.8600 L 587.8095,296.8422 L 581.9282,288.1481 L 576.7839,289.8389 M 574.3055,286.1650  L 580.2109,294.9192 M 581.9282,288.1481  L 583.6021,282.2965 L 589.1832,280.3344 L 595.1006,289.0329 L 589.5145,291.0145 L 587.8095,296.8422 M 589.5145,291.0145  L 583.6021,282.2965 M 583.3032,283.3414  L 582.0994,283.4422 L 578.2057,281.9424 L 575.6497,279.0886 L 575.2434,275.7936 L 578.2486,264.9925 L 578.6621,268.3010 L 581.2417,271.1700 L 585.1676,272.6820 L 589.1854,272.3535 L 586.6268,281.2331 M 589.0943,280.3656  L 592.0137,270.2933 L 589.1854,272.3535 M 592.0137,270.2933  L 592.7575,267.1617 L 591.1891,263.9545 L 587.8104,261.6846 L 583.6889,261.0665 L 580.1251,262.2973 L 578.2486,264.9925 M 577.3785,263.1814  L 579.0862,261.0175 L 576.6873,269.6454 L 574.9881,271.8049 L 571.5628,271.4244 L 569.8432,268.8834 L 572.1988,260.2441 L 573.9316,262.7951 L 577.3785,263.1814 L 574.9881,271.8049 M 571.5628,271.4244  L 573.9316,262.7951 M 571.7480,261.8974  L 556.2179,267.2459 M 556.9074,268.2706  L 556.0442,271.5566 M 556.5282,271.5289  L 559.3128,270.5663 M 559.2623,270.7571  L 556.9897,271.5024 M 555.0823,271.6117  L 559.0406,271.3848 L 562.7319,273.0967 L 564.7537,276.0975 L 564.3320,279.2476 L 562.6538,285.4490 M 563.0798,285.2998  L 564.9501,278.3958 L 568.4271,278.7792 L 570.1582,276.5807 L 568.2631,283.4838 M 567.0206,283.9191  L 568.4271,278.7792 M 570.1582,276.5807  L 568.4177,274.0031 L 564.9474,273.6187 L 563.9406,274.8908 M 564.2560,274.4923  L 564.6217,273.1357 L 566.3543,270.9474 L 565.6119,273.6923 M 564.6217,273.1357  L 562.2491,272.8728 M 560.7692,272.1865  L 559.4160,270.1768 L 561.1539,267.9928 L 564.6196,268.3787 L 566.3543,270.9474 M 565.2460,269.3063  L 570.2907,267.2423 M 570.3212,267.1302  L 564.9632,268.8874 M 564.8130,268.6650  L 570.4324,266.7226 M 572.1988,260.2441  L 573.9115,258.0846 L 577.3520,258.4717 L 579.0862,261.0175 M 578.1772,259.6832  L 582.3669,258.2404 M 582.5240,257.6791  L 579.2035,259.3298 M 581.3496,261.8745  L 584.7469,249.7382 L 586.1884,252.9582 L 589.7869,254.9942 L 587.8699,261.7245 M 583.8957,261.0975  L 586.1884,252.9582 M 584.7469,249.7382  L 586.1319,246.8469 L 589.6865,245.6332 L 593.7494,246.6582 L 596.4290,249.4433 L 596.4728,252.6930 L 594.6858,258.8686 M 594.2486,259.2071  L 600.7650,256.9532 L 604.4170,258.6422 L 606.4518,261.5936 L 606.0904,264.6861 L 604.2364,270.8808 M 604.4407,270.8092  L 606.5057,263.9127 L 609.9255,264.2967 L 611.5883,262.1414 L 609.4998,269.0367 M 608.3743,269.4310  L 609.9255,264.2967 M 611.5883,262.1414  L 609.8367,259.6062 L 606.4237,259.2211 L 605.5727,260.3185 M 605.6616,260.2038  L 606.0960,258.7460 L 607.7603,256.6006 L 606.9594,259.2815 M 606.0960,258.7460  L 604.1720,258.5289 M 602.1533,257.5953  L 600.9363,255.8288 L 602.6060,253.6875 L 606.0147,254.0740 L 607.7603,256.6006 M 610.7277,254.7275  L 612.4580,257.2273 L 615.8278,257.6084 L 617.4608,255.4906 L 620.0954,246.8745 L 618.4548,248.9963 L 615.8278,257.6084 M 612.4580,257.2273  L 615.0641,248.6096 L 618.4548,248.9963 M 619.4467,250.7399  L 619.9077,253.9902 L 622.4877,256.8135 L 626.3670,258.3070 L 630.3060,257.9930 L 627.5027,266.8622 M 629.8530,266.0359  L 632.8920,256.4687 M 632.7177,256.2191  L 630.3060,257.9930 M 632.2182,261.0775  L 635.3461,259.9816 M 633.8177,260.5171  L 634.4145,258.6481 M 632.2182,261.0775  L 640.1916,272.5106 M 636.1467,274.4719  L 634.2576,280.2937 L 628.8270,282.2285 L 622.9101,273.6768 L 624.7467,267.8312 L 630.1940,265.9160 L 636.1467,274.4719 L 630.6949,276.4059 L 628.8270,282.2285 M 630.6949,276.4059  L 624.7467,267.8312 M 624.3981,268.9407  L 623.0013,269.0547 L 619.1533,267.5733 L 616.5968,264.7646 L 616.1439,261.5270 L 619.4467,250.7399 L 621.2441,248.0967 L 624.7228,246.8953 L 626.3800,247.1469 M 624.8168,246.9096  L 625.2456,245.5231 M 623.2325,244.1666  L 619.1809,245.5619 M 618.3506,244.3701  L 620.0954,246.8745 M 622.1166,247.7954  L 623.5582,243.1075 M 621.2902,239.8610  L 597.0434,251.9203 M 596.7028,251.4257  L 598.4419,253.9512 L 597.5157,257.1326 M 596.8831,257.1676  L 600.7650,256.9532 M 600.6038,256.9621  L 600.9363,255.8288 M 598.4419,253.9512  L 596.7662,256.0944 L 596.3304,257.5955 M 596.8831,257.1676  L 594.2486,259.2071 L 593.8707,262.2992 L 595.9023,265.2631 L 593.1284,274.7724 M 591.1150,275.4778  L 589.5489,280.8720 M 582.0994,283.4422  L 585.1676,272.6820 M 581.2417,271.1700  L 578.2057,281.9424 M 575.6497,279.0886  L 578.6621,268.3010 M 591.2221,264.0219  L 593.8514,254.8882 L 596.4728,252.6930 L 589.7869,254.9942 L 593.8514,254.8882 M 595.5290,255.9546  L 596.7662,256.0944 M 597.7478,252.9433  L 612.8244,247.7511 M 613.3206,246.1002  L 615.0641,248.6096 M 613.3206,246.1002  L 614.9665,243.9825 L 618.3506,244.3701 M 613.3206,246.1002  L 610.7277,254.7275 M 619.9077,253.9902  L 616.5968,264.7646 M 619.1533,267.5733  L 622.4877,256.8135 M 626.3670,258.3070  L 623.0013,269.0547 M 615.6835,271.6103  L 621.6254,280.2201 M 615.6835,271.6103  L 612.6306,272.6841 M 606.0904,264.6861  L 603.4625,266.7385 L 601.9954,271.6659 M 597.7419,273.1561  L 599.5688,266.9603 L 603.4625,266.7385 M 599.5688,266.9603  L 595.9023,265.2631 M 593.8707,262.2992  L 592.5725,266.7834 M 592.2493,266.1224  L 594.2486,259.2071 M 596.4467,250.7576  L 620.5363,238.7818 M 627.1544,232.8407  L 630.6239,231.6562 L 634.6297,232.6716 M 634.9945,233.0451  L 671.3496,214.9636 M 671.8780,239.1285  L 651.6205,249.2798 M 652.0272,248.0475  L 649.7550,254.9335 M 648.7412,255.2887  L 650.4296,250.1613 L 652.0272,248.0475 L 650.2657,245.5533 L 646.9078,245.1679 L 646.2018,246.0973 M 646.1487,246.0219  L 646.5782,244.7006 L 648.1774,242.5964 L 647.3242,245.2157 M 646.5782,244.7006  L 645.0883,244.5294 M 642.5426,243.3552  L 641.4640,241.8238 L 643.0681,239.7239 L 646.4218,240.1106 L 648.1774,242.5964 M 642.6242,240.3050  L 641.0263,238.0386 M 641.0263,238.0386  L 638.2857,238.9824 M 637.4037,238.6051  L 634.8669,240.7555 L 633.8837,243.8730 M 636.8523,243.7178  L 637.3737,242.0759 L 638.9838,239.9740 L 638.0037,243.0533 M 637.3737,242.0759  L 636.3419,241.9572 M 634.8669,240.7555  L 631.7488,240.8302 M 637.3759,237.6901  L 638.9838,239.9740 M 641.4640,241.8238  L 641.1230,242.8876 M 647.0656,249.7767  L 650.4296,250.1613 M 650.7697,251.8583  L 654.9561,257.7961 M 656.0716,257.4038  L 662.0467,265.8736 M 661.5908,267.2066  L 672.9440,283.3097 M 673.3842,282.7074  L 676.7711,283.0836 L 678.5733,285.6355 L 677.6044,288.3270 M 677.3260,288.2962  L 680.7171,288.6710 L 682.5255,291.2315 M 680.9415,293.4225  L 677.5442,293.0486 M 677.4622,293.9599  L 677.7295,290.8251 L 675.6283,287.8442 L 671.9625,286.1493 L 668.1253,286.3839 L 665.5761,288.4618 M 665.7171,288.3469  L 667.9441,281.9988 L 665.4133,284.2345 L 664.3451,287.2912 M 666.8924,287.3889  L 667.6717,285.1716 L 669.2686,282.9930 L 668.0542,286.4419 M 671.3311,286.1880  L 671.7934,284.8840 L 673.0334,286.6444 M 671.7934,284.8840  L 673.3842,282.7074 M 669.2686,282.9930  L 667.9043,281.0551 M 667.9441,281.9988  L 667.8052,278.7065 L 665.0701,275.8967 L 661.0172,274.8765 L 657.5332,276.1220 M 662.2695,284.3328  L 665.4133,284.2345 M 675.1218,287.6100  L 676.9876,287.8164 L 678.5733,285.6355 M 676.9876,287.8164  L 676.5220,289.1121 M 676.6259,289.2595  L 677.3260,288.2962 M 674.9204,296.0509  L 671.0712,296.2929 M 662.7706,304.8869  L 660.9317,310.0954 M 683.8360,301.7351  L 686.6220,300.7096 M 692.2298,319.2620  L 696.3310,320.2869 L 699.1263,323.1678 L 699.3095,326.5646 L 696.6695,333.3648 M 696.8466,333.0253  L 699.3908,330.8635 L 703.2581,330.5950 L 706.9776,332.3190 L 709.1357,335.3807 L 708.9070,338.6175 L 706.3704,340.7929 L 704.7444,344.8744 M 706.3704,340.7929  L 702.4911,341.0693 M 707.8654,333.5786  L 708.5590,332.5798 M 708.2115,332.0871  L 709.7825,329.8260 M 708.2115,332.0871  L 707.7080,333.3552 M 708.2115,332.0871  L 705.9618,331.8481 M 704.3446,331.0986  L 702.9348,329.0970 L 704.5110,326.8404 M 702.9348,329.0970  L 702.3223,330.6600 M 698.6926,331.4567  L 700.3639,327.1632 L 698.7814,329.4220 L 697.6444,332.3474 M 695.6284,331.8809  L 696.7859,328.8895 L 699.3095,326.5646 M 699.2570,325.5909  L 700.3639,327.1632 M 696.7859,328.8895  L 693.6161,329.0126 M 688.3464,321.5015  L 688.7319,320.5713 L 692.2298,319.2620 M 681.4936,342.5851  L 677.5812,352.9113 M 680.2542,355.8644  L 684.1922,345.5549 M 686.2153,357.1882  L 684.2068,357.3875 M 677.2773,360.8594  L 683.5465,369.9435 M 690.4734,371.3263  L 692.6754,365.7554 M 696.3705,368.1331  L 698.7156,371.5108 M 677.2773,360.8594  L 674.1988,362.0453 M 665.1971,356.5424  L 661.2402,356.8334 L 658.8146,363.4467 M 652.6986,365.7944  L 650.8287,370.9532 M 642.9553,373.2682  L 646.6255,362.9769 M 642.5905,361.4214  L 638.9545,371.7256 M 636.2808,368.7232  L 639.8913,358.4017 M 634.7695,352.3599  L 632.9408,349.6678 L 634.6289,347.3445 L 638.1403,347.7087 L 639.9703,350.3951 M 632.9408,349.6678  L 630.1139,357.9413 M 620.1816,360.4242  L 619.6037,362.1533 M 616.0753,362.4143  L 613.3592,364.6716 L 611.0861,371.5633 M 615.1241,371.2171  L 618.9416,372.9978 L 622.9788,372.6917 M 618.9416,372.9978  L 616.7164,379.6065 M 632.1643,378.2376  L 635.5382,376.9379 M 636.6391,399.2201  L 635.2526,402.4959 M 647.5078,402.9024  L 649.1814,405.3894 M 664.0454,425.5869  L 667.4339,424.2208 M 706.2541,408.5711  L 709.3448,407.3251 M 724.2364,401.0832  L 726.3919,396.1142 M 728.5140,414.4301  L 730.8795,417.8372 M 726.9130,427.9108  L 728.8294,430.6837 L 727.2382,433.1260 L 723.7249,432.7904 L 721.8096,430.0114 L 723.4064,427.5740 L 726.9130,427.9108 M 726.0308,429.8881  L 727.7374,432.3598 M 726.0308,429.8881  L 722.5298,429.5526 M 738.9036,426.8464  L 740.4910,424.3963 L 744.0145,424.7367 L 745.9577,427.5257 M 747.5662,429.3843  L 751.1001,427.9188 L 755.3323,428.4981 M 750.3763,428.2189  L 754.2223,419.9767 M 752.5261,416.4270  L 745.6108,431.3387 M 745.8515,432.4364  L 747.5662,429.3843 M 740.8457,429.6415  L 737.2392,437.5001 M 746.5077,436.1115  L 741.9311,445.9226 M 744.7296,449.0320  L 749.3341,439.2398 M 759.5309,443.6325  L 768.4186,456.3767 L 781.6306,450.7517 M 784.1424,454.3281  L 782.5409,457.4848 L 763.9349,465.4474 L 768.4186,456.3767 M 763.6488,457.7306  L 761.0563,463.0144 L 755.5408,465.3685 L 748.9499,455.8427 L 751.4827,450.5306 L 757.0159,448.1971 L 763.6488,457.7306 L 758.1117,460.0868 L 755.5408,465.3685 M 758.1117,460.0868  L 751.4827,450.5306 M 752.3044,450.1841  L 748.7928,450.5991 M 757.2048,448.4686  L 759.5309,443.6325 M 761.5488,462.0107  L 763.9349,465.4474 M 790.3575,463.1772  L 674.4697,513.0997 M 675.2659,514.3069  L 791.1642,464.3258 M 789.1411,502.9923  L 786.3977,503.0193 M 784.8260,503.1755  L 779.1113,504.3502 L 773.8292,506.5922 L 769.2070,509.8076 L 765.4455,513.8604 L 762.7097,518.5788 L 761.1224,523.7610 L 760.7575,529.1835 L 761.6367,534.6101 L 763.7269,539.8029 L 763.1897,542.9884 M 764.4543,541.1403  L 765.9482,543.3382 L 750.2108,566.2542 L 763.3823,558.9021 L 766.0801,543.2649 M 766.9410,544.5315  L 771.1414,548.5851 L 776.1445,551.7809 L 781.7301,553.9747 L 787.6495,555.0666 L 793.6390,555.0067 L 799.4308,553.7981 L 796.0369,569.2632 L 790.3636,570.4520 L 784.4977,570.5109 L 778.7014,569.4370 L 773.2329,567.2791 L 768.3354,564.1355 L 764.2246,560.1481 L 766.9410,544.5315 M 769.1124,543.0069  L 772.9049,546.6628 L 777.4206,549.5448 L 782.4605,551.5228 L 787.8012,552.5071 L 793.2047,552.4534 L 798.4304,551.3637 L 803.2460,549.2876 L 807.4376,546.3191 L 810.8213,542.5921 L 813.2499,538.2735 L 814.6199,533.5559 L 814.8752,528.6476 L 814.0094,523.7638 L 812.0648,519.1172 L 809.1295,514.9081 L 805.3340,511.3170 L 800.8443,508.4963 L 795.8550,506.5657 L 790.5810,505.6065 L 785.2483,505.6589 L 780.0855,506.7209 L 775.3143,508.7476 L 771.1402,511.6540 L 767.7448,515.3165 L 765.2771,519.5793 L 763.8471,524.2599 L 763.5215,529.1561 L 764.3190,534.0548 L 766.2088,538.7407 L 769.1124,543.0069 M 764.4543,541.1403  L 748.7542,564.0832 L 750.2108,566.2542 M 768.3354,564.1355  L 771.1414,548.5851 M 776.1445,551.7809  L 773.2329,567.2791 M 778.7014,569.4370  L 781.7301,553.9747 M 787.6495,555.0666  L 784.4977,570.5109 M 790.3636,570.4520  L 793.6390,555.0067 M 799.4308,553.7981  L 804.7673,551.4956 L 809.4111,548.2038 L 813.1583,544.0718 L 809.4909,559.6959 L 805.8167,563.7605 L 801.2654,566.9984 L 796.0369,569.2632 M 801.2654,566.9984  L 804.7673,551.4956 M 809.4111,548.2038  L 805.8167,563.7605 M 810.1971,558.4346  L 824.1454,565.5144 L 825.3649,563.3172 L 815.2672,540.6354 L 814.0179,542.8603 L 824.1454,565.5144 M 810.1971,558.4346  L 813.6663,543.6899 M 815.6147,541.4161  L 817.3597,534.0576 L 815.8458,539.2853 L 815.4362,541.0152 M 812.2098,540.1230  L 814.8752,528.6476 M 817.6384,528.6202  L 817.3597,534.0576 M 817.6384,528.6202  L 816.6753,523.2118 L 814.5179,518.0673 L 811.2650,513.4087 L 807.0608,509.4347 L 802.0896,506.3141 L 796.5662,504.1785 L 790.7284,503.1175 M 790.5810,505.6065  L 787.4122,521.8488 L 792.5779,522.7928 L 797.4637,524.6927 L 801.8592,527.4685 L 805.5738,531.0024 L 808.4449,535.1442 L 810.3450,539.7164 L 810.8429,542.5537 M 810.3450,539.7164  L 814.0094,523.7638 M 812.0648,519.1172  L 808.4449,535.1442 M 805.5738,531.0024  L 809.1295,514.9081 M 805.3340,511.3170  L 801.8592,527.4685 M 797.4637,524.6927  L 800.8443,508.4963 M 795.8550,506.5657  L 792.5779,522.7928 M 787.4122,521.8488  L 782.1881,521.9004 L 777.1296,522.9455 L 772.4539,524.9400 L 768.3627,527.8002 L 765.0338,531.4043 L 764.1397,532.9537 M 765.0338,531.4043  L 767.7448,515.3165 M 765.2771,519.5793  L 763.6023,529.6520 M 760.7575,529.1835  L 758.1794,545.0489 L 758.8636,549.3102 M 759.3255,548.6352  L 761.6367,534.6101 M 758.5406,539.7136  L 758.1794,545.0489 M 758.5406,539.7136  L 761.1224,523.7610 M 768.3627,527.8002  L 771.1402,511.6540 M 775.3143,508.7476  L 772.4539,524.9400 M 777.1296,522.9455  L 780.0855,506.7209 M 785.2483,505.6589  L 782.1881,521.9004 M 746.1197,534.0129  L 746.5156,537.6385 L 746.0317,540.7826 L 744.6823,543.3051 L 739.1364,548.9611 L 736.9665,550.7561 L 742.5202,545.0909 L 744.6823,543.3051 M 742.5202,545.0909  L 739.6344,546.0554 L 734.0760,551.7313 L 736.9665,550.7561 M 734.0760,551.7313  L 730.5878,551.8382 L 736.1483,546.1502 L 739.6344,546.0554 M 736.1483,546.1502  L 732.2134,545.3652 L 726.6543,551.0660 L 730.5878,551.8382 M 726.6543,551.0660  L 722.4498,549.4449 L 728.0045,543.7313 L 732.2134,545.3652 M 733.4745,542.1914  L 729.3874,541.0687 L 725.0764,538.9206 L 719.5250,538.2331 L 723.7103,541.3181 L 728.0045,543.7313 M 728.1706,540.4624  L 731.7572,536.7675 L 735.4069,542.2042 L 732.4106,536.6636 L 725.4961,534.5617 L 729.7046,536.4372 L 732.4106,536.6636 M 734.7138,536.2973  L 738.3603,541.7218 M 737.8610,540.9791  L 742.6031,536.1196 L 741.7741,539.0642 L 739.8841,541.1460 M 739.6563,541.2320  L 741.7741,539.0642 M 742.6031,536.1196  L 742.3231,532.5176 L 740.9604,528.5039 L 739.6933,526.2619 L 735.5534,526.8927 M 734.9906,526.0580  L 736.5233,529.0733 L 737.0599,532.7491 L 735.9600,535.4454 L 734.8847,536.5515 M 735.9102,535.4704  L 736.8173,538.1707 L 742.3231,532.5176 M 744.8667,530.0647  L 746.1197,534.0129 M 744.8667,530.0647  L 742.8150,525.9634 L 740.0554,521.8841 L 736.7068,517.9987 L 732.9116,514.4706 L 728.8297,511.4486 L 724.6332,509.0606 L 720.4992,507.4094 L 716.6035,506.5680 L 713.1140,506.5770 L 710.1832,507.4409 L 707.9418,509.1289 L 706.4927,511.5734 L 705.9060,514.6725 L 706.2137,518.2938 L 707.4083,522.2799 L 709.4417,526.4537 L 712.2260,530.6283 L 706.7145,536.3836 L 703.9448,532.2145 L 709.4417,526.4537 M 711.4225,523.8746  L 712.6869,526.1497 L 716.9509,525.5126 M 717.5154,526.3561  L 715.9901,523.3144 L 715.4971,519.6369 L 718.5742,516.0587 M 717.9181,516.1524  L 714.3216,510.7949 L 710.2631,515.0707 M 709.8971,516.2317  L 706.2137,518.2938 L 700.7461,524.0575 L 701.9263,528.0433 L 707.4083,522.2799 L 710.1034,519.8266 L 711.4225,523.8746 M 711.5875,523.7348  L 712.7484,521.0697 L 716.6505,516.9764 L 715.4971,519.6369 L 711.5875,523.7348 M 713.3781,526.0464  L 715.9901,523.3144 M 713.6643,519.7129  L 709.9437,517.0436 M 709.8971,516.2317  L 710.1034,519.8266 M 709.8971,516.2317  L 710.8103,513.3347 L 712.7723,511.3278 L 710.7814,513.4265 M 706.4927,511.5734  L 701.0504,517.3287 L 702.5092,514.8766 L 707.9418,509.1289 M 705.9060,514.6725  L 700.4518,520.4332 L 701.0504,517.3287 M 700.4518,520.4332  L 700.7461,524.0575 M 701.9263,528.0433  L 703.9448,532.2145 M 706.7145,536.3836  L 710.1130,540.3626 L 715.6383,534.6154 L 720.8430,535.8941 L 725.0764,538.9206 M 726.5739,539.6668  L 729.7046,536.4372 M 725.4961,534.5617  L 721.4042,531.4024 L 718.9452,528.4925 M 719.5107,529.3374  L 715.2498,529.9867 L 716.9837,532.1996 L 720.8430,535.8941 M 722.8334,537.3171  L 725.4961,534.5617 M 721.4042,531.4024  L 718.8847,534.0194 M 716.8836,532.0718  L 719.5107,529.3374 M 715.6383,534.6154  L 719.5250,538.2331 L 713.9876,543.9707 L 718.1630,547.0442 L 723.7103,541.3181 M 718.1630,547.0442  L 722.4498,549.4449 M 713.9876,543.9707  L 710.1130,540.3626 M 715.6383,534.6154  L 712.2260,530.6283 M 720.2326,515.8217  L 727.0946,517.9541 L 731.1330,521.0772 L 733.5675,523.9474 M 733.0056,523.1140  L 737.1486,522.4950 L 735.4380,520.3282 L 731.6508,516.7088 L 727.5014,513.7295 L 723.2642,511.5889 L 719.2207,510.4318 L 718.1106,511.5985 M 717.2932,510.3826  L 720.8867,515.7282 M 720.2326,515.8217  L 722.9297,516.0764 L 727.0946,517.9541 M 729.0221,519.4447  L 731.6508,516.7088 M 727.5014,513.7295  L 724.5540,516.8087 M 720.2371,514.7618  L 723.2642,511.5889 M 732.8095,523.0537  L 735.4380,520.3282 M 739.6933,526.2619  L 736.5814,529.4715 M 737.0308,532.5498  L 740.9604,528.5039 M 736.8173,538.1707  L 736.9216,539.5816 M 704.0062,548.5275  L 699.8636,557.2293 L 695.3850,559.2335 M 699.8636,557.2293  L 706.4437,567.1687 L 708.4528,570.2195 L 706.7446,572.9769 L 703.0209,572.6781 L 701.0131,569.6202 L 702.7277,566.8682 L 706.4437,567.1687 M 705.5480,569.0073  L 707.4309,571.8690 M 705.5480,569.0073  L 701.8383,568.7081 L 701.1450,569.8211 M 699.8087,577.5972  L 696.0686,582.0853 L 693.6362,582.7990 L 691.9862,580.2688 L 695.7164,575.7727 L 689.3170,577.6283 L 690.9757,580.1728 L 687.2440,584.6746 L 684.7884,585.3951 L 688.5177,580.8895 L 690.9757,580.1728 M 690.5483,580.6884  L 691.9862,580.2688 M 693.6362,582.7990  L 697.3740,578.3072 L 695.7164,575.7727 M 697.3740,578.3072  L 699.8087,577.5972 L 691.1577,564.3856 M 691.9325,563.4413  L 692.6633,564.8432 L 692.7562,566.8268 M 683.5185,573.2109  L 688.5177,580.8895 M 683.7554,583.8039  L 681.4963,588.5838 L 684.6529,586.1745 M 684.7884,585.3951  L 678.8603,576.2640 M 678.6792,576.3827  L 675.2934,583.6784 M 672.6918,585.4773  L 674.9231,588.9322 L 673.0525,591.7638 M 673.1169,591.7737  L 674.9231,588.9322 M 678.0685,587.9683  L 681.5870,580.4640 M 681.4963,588.5838  L 678.8421,589.1641 M 673.1169,591.7737  L 669.0695,591.1527 L 666.8385,587.6874 L 668.6546,584.8536 L 672.6918,585.4773 L 669.0170,591.0712 M 660.5769,583.8394  L 678.7929,612.1791 M 678.7929,612.1791  L 681.3878,611.1684 L 676.0671,619.0129 L 673.4836,620.0252 L 678.7929,612.1791 M 678.9091,614.8228  L 681.2198,613.9203 L 686.5560,606.0694 L 688.1488,608.5351 L 690.7240,607.5321 L 685.3627,615.3703 L 682.7986,616.3752 L 688.1488,608.5351 M 688.2831,611.1008  L 689.2594,612.6131 L 695.2614,609.8351 L 697.6957,604.9378 L 691.6679,607.7208 L 689.2594,612.6131 M 690.7240,607.5321  L 673.0644,580.2326 M 684.7920,597.0953  L 690.8146,594.3397 L 697.6957,604.9378 M 691.6679,607.7208  L 684.7920,597.0953 M 686.5560,606.0694  L 679.7952,608.6941 L 681.3878,611.1684 M 681.2198,613.9203  L 682.7986,616.3752 M 673.4836,620.0252  L 651.9262,586.3379 M 628.1967,593.1917  L 627.9657,595.6444 L 625.0654,602.5209 L 622.1514,605.2869 L 617.8077,605.7943 L 613.7015,603.8434 L 611.4102,600.1848 L 611.6315,597.9762 M 612.3990,597.7545  L 611.4102,600.1848 M 613.7015,603.8434  L 616.5278,596.9624 L 620.6633,598.9259 L 627.9657,595.6444 L 625.0353,598.4203 L 622.1514,605.2869 M 617.8077,605.7943  L 620.6633,598.9259 L 625.0353,598.4203 M 636.6553,616.8545  L 641.0336,616.3330 L 645.1881,618.3068 L 647.5412,622.0274 L 647.1924,626.0834 L 644.1328,632.8036 L 641.2211,635.6353 L 636.8557,636.1703 L 632.7122,634.1984 L 630.3825,630.4784 L 630.7542,626.4403 L 633.7178,619.6785 L 633.3478,623.7350 L 630.3825,630.4784 M 632.7122,634.1984  L 635.6971,627.4744 L 639.8704,629.4593 L 636.8557,636.1703 M 641.2211,635.6353  L 644.2644,628.9257 L 647.1924,626.0834 L 639.8704,629.4593 L 644.2644,628.9257 M 635.6971,627.4744  L 633.3478,623.7350 M 633.7178,619.6785  L 636.6553,616.8545 M 645.7885,619.2562  L 667.8889,611.2825 M 668.3633,613.3294  L 670.3841,616.4885 M 675.7962,634.2649  L 676.8547,635.9237 M 674.4134,637.2972  L 671.9458,636.0650 M 682.7345,632.0142  L 682.8076,630.9871 M 683.0366,630.8800  L 683.1708,632.3703 M 686.1308,630.7050  L 686.2094,629.3968 M 686.2587,629.3737  L 686.1586,630.6894 M 686.9903,630.2214  L 686.5242,629.2496 M 701.6870,622.0338  L 708.0422,631.8515 M 707.7340,631.3753  L 707.8734,629.9771 L 706.6194,625.7816 L 703.8545,622.2753 L 702.8004,621.6406 M 702.7598,621.6595  L 704.4027,623.6260 L 705.1753,627.4227 M 701.7502,622.1315  L 733.6462,607.2202 M 726.7218,611.5845  L 736.7885,626.9281 M 732.8320,629.1692  L 722.7758,613.8068 L 726.7218,611.5845 M 722.7758,613.8068  L 721.9877,619.9952 L 729.2910,631.1750 M 725.8923,633.5167  L 723.4455,633.0541 L 706.8913,642.4274 M 707.1590,639.9672  L 723.7740,630.5655 L 723.4455,633.0541 M 725.3409,633.4125  L 754.7256,616.7678 M 754.5756,617.2676  L 755.2411,615.0509 L 900.8638,532.5970 L 901.8240,529.8143 L 755.6855,612.5081 L 755.2411,615.0509 M 755.1705,615.2859  L 756.0100,610.4812 L 899.5627,529.2918 L 893.7831,521.2648 L 892.4843,525.1886 L 886.8733,525.1493 L 875.6113,509.4484 M 875.6356,509.4282  L 886.9011,525.1336 L 893.0509,521.6665 L 896.3504,511.6753 L 890.1251,515.1769 L 886.9011,525.1336 L 893.7876,521.2512 M 893.9630,518.9047  L 901.8240,529.8143 M 906.3380,533.8630  L 894.4624,517.3922 M 894.8624,516.1809  L 898.7892,513.9699 L 900.9368,507.5457 L 874.6169,471.2355 L 869.9616,473.8150 M 863.2610,494.6965  L 831.2940,521.4637 L 759.8100,419.6829 M 717.7552,461.2045  L 715.5494,466.0923 M 719.9993,479.6832  L 722.4018,483.2219 M 674.8852,479.2368  L 672.8090,484.1825 M 661.1538,482.6204  L 664.3694,474.7508 M 661.5396,471.5109  L 658.6029,478.7644 M 645.0451,468.4889  L 579.7958,483.2247 L 574.0798,474.2678 L 536.9085,482.4690 L 556.2154,513.3079 L 545.4418,528.5061 L 547.0395,530.3303 M 546.7906,530.6805  L 557.5840,515.4940 M 556.2154,513.3079  L 593.3480,504.4607 L 591.5079,507.3685 M 593.3480,504.4607  L 587.5625,495.3950 L 596.1441,493.3959 M 597.5676,491.4324  L 590.9016,500.6273 M 581.5055,482.8386  L 587.0497,475.0427 M 572.7391,472.1670  L 535.5653,480.3236 M 536.9085,482.4690  L 526.4117,497.8290 L 545.4418,528.5061 M 546.7906,530.6805  L 566.1796,561.9361 M 569.4034,567.1331  L 566.2708,571.3526 L 585.8559,603.0063 M 566.3146,571.2937  L 558.3564,573.4324 L 564.8777,569.1583 L 545.6555,538.0907 L 539.1898,542.3264 L 558.3564,573.4324 M 545.3450,538.2941  L 537.8563,540.1622 L 544.3181,535.9292 L 525.4489,505.4321 L 519.0416,509.6273 L 537.8563,540.1622 M 524.7670,505.8785  L 517.7325,507.5027 L 524.1360,503.3101 L 505.6101,473.3679 L 499.2602,477.5235 L 517.7325,507.5027 M 526.6389,497.4965  L 525.0877,495.6946 M 504.6064,474.0247  L 497.9747,475.4374 L 504.3209,471.2843 L 486.1291,441.8821 L 479.8355,445.9987 L 497.9747,475.4374 M 506.6149,465.2635  L 505.1068,463.4848 M 515.2975,447.9498  L 552.5047,440.4600 L 550.9798,443.0981 M 552.5047,440.4600  L 546.9273,431.7203 L 555.1304,430.1094 M 556.7087,427.7637  L 550.3927,437.1506 M 567.0591,463.2665  L 572.7391,472.1670 L 571.0672,474.9325 M 570.4628,468.6000  L 576.9511,459.3066 M 575.4406,461.4703  L 567.0591,463.2665 M 515.2975,447.9498  L 496.6957,418.2371 M 495.4014,416.1696  L 477.1378,386.9971 M 475.8669,384.9670  L 457.9322,356.3200 M 456.6841,354.3264  L 439.0697,326.1908 M 437.8437,324.2326  L 420.5410,296.5948 M 419.3367,294.6712  L 410.4567,310.9055 L 393.6814,283.8632 L 402.3374,267.5182 L 439.6037,263.5463 L 444.6499,271.4537 L 510.2948,264.1926 M 512.0949,257.2932  L 451.4849,263.7976 L 447.4025,271.1492 M 451.4849,263.7976  L 442.5685,249.9036 L 503.1861,243.8260 M 492.3232,236.9457  L 426.6666,243.2741 L 421.7063,235.5015 L 384.4504,238.9473 L 401.1541,265.6281 L 392.5136,281.9806 L 376.0274,255.4044 L 384.4504,238.9473 M 383.2876,237.0899  L 374.8796,253.5541 L 358.6751,227.4319 L 366.8719,210.8690 L 469.7702,202.7528 M 485.3071,216.7991  L 424.6810,222.0302 L 433.4456,235.6877 L 494.0686,230.0436 M 521.3663,271.3084  L 460.7665,278.2607 L 469.8386,292.3975 L 530.4262,285.0040 M 530.0440,284.4263  L 531.7844,277.3306 L 535.2895,277.7162 L 537.0668,275.5089 L 536.0581,279.5604 M 536.0315,279.5977  L 536.3951,282.9661 L 538.9733,285.8823 L 542.9471,287.4133 M 538.9733,285.8823  L 536.2514,296.6648 M 533.6967,293.7645  L 536.3951,282.9661 M 534.8912,284.1777  L 533.1482,286.3492 L 529.8308,285.9875 M 533.1482,286.3492  L 535.2895,277.7162 M 536.0315,279.5977  L 533.3396,290.4101 M 528.3337,281.8409  L 530.0635,274.7367 L 531.7844,277.3306 M 529.6604,276.3920  L 525.6442,277.7752 M 530.0635,274.7367  L 531.8460,272.5338 L 535.3443,272.9204 L 537.0668,275.5089 M 537.9902,276.8488  L 541.6427,275.5874 L 545.8310,276.2075 L 549.2337,278.5115 L 550.7759,281.7742 L 549.9637,284.9651 M 550.6878,281.5879  L 551.9241,276.8443 L 553.9423,279.8581 L 551.4410,289.3774 M 548.9933,290.2350  L 556.8675,302.0566 M 553.0377,303.9546  L 547.3122,305.9857 L 545.7789,311.8170 M 547.3122,305.9857  L 541.4392,297.1199 M 547.5625,295.7159  L 548.9933,290.2350 M 555.9989,287.7806  L 557.6484,281.5782 L 561.6193,281.3436 L 564.3320,279.2476 M 561.6193,281.3436  L 560.2926,286.2763 M 557.6484,281.5782  L 553.9423,279.8581 M 551.9241,276.8443  L 552.3628,273.6946 L 555.0823,271.6117 M 554.8056,271.8236  L 555.1636,270.4564 L 556.9074,268.2706 L 555.1796,265.7030 M 554.5304,267.1291  L 552.9327,273.2580 M 552.3628,273.6946  L 550.4429,281.0697 M 549.3756,278.8116  L 551.8213,269.3704 L 554.5304,267.1291 L 554.5425,263.8199 L 551.8611,260.9897 L 547.7396,259.9550 L 544.0967,261.1988 L 542.6350,264.1462 L 544.0474,267.4221 L 547.6782,269.4876 L 545.9396,276.2811 M 541.9713,275.6360  L 544.0474,267.4221 M 542.6350,264.1462  L 539.5841,276.2983 M 537.9902,276.8488  L 536.0315,279.5977 M 536.1640,274.1522  L 540.4976,272.6598 M 547.6782,269.4876  L 551.8213,269.3704 M 553.7052,270.2946  L 555.1636,270.4564 M 559.0899,271.4077  L 559.4160,270.1768 M 570.9619,287.3411  L 574.3055,286.1650 M 574.1022,305.9501  L 572.6636,309.0022 L 574.1294,312.3737 L 577.8187,314.4806 L 575.8891,321.1628 M 571.7981,320.5430  L 574.1294,312.3737 M 572.6636,309.0022  L 569.1490,321.4010 M 579.3150,323.5187  L 581.9979,314.3312 L 584.7036,311.9992 M 585.0581,310.1023  L 586.8330,312.7398 L 585.7647,316.3555 M 584.5466,316.8871  L 585.1004,315.0072 L 586.8330,312.7398 M 585.1004,315.0072  L 583.8593,314.8749 M 581.9979,314.3312  L 577.8187,314.4806 M 588.9534,316.1467  L 589.3875,314.6896 M 596.0489,297.1084  L 593.7225,293.6818 M 604.5070,330.9364  L 601.1480,332.1729 M 604.9380,351.9399  L 603.5245,355.1013 L 605.0459,358.5724 L 608.7956,360.7223 L 606.6625,367.2853 M 602.4366,366.6912  L 605.0459,358.5724 M 603.5245,355.1013  L 599.4748,367.7867 M 598.7004,368.0798  L 596.7749,371.0365 M 595.8070,368.7938  L 593.1957,377.0449 M 597.2299,374.6208  L 593.9380,384.9343 M 596.6114,387.9876  L 599.9290,377.6922 M 608.7956,360.7223  L 613.0114,360.5389 M 615.8595,360.7817  L 617.5795,358.4291 L 615.7556,355.7188 M 615.8595,360.7817  L 615.0328,363.2807 M 626.3608,341.7568  L 624.0156,338.3024 M 657.4647,355.0772  L 661.2402,356.8334 M 712.3689,339.2290  L 716.8670,345.6089 M 717.9911,345.1759  L 724.2912,354.1064 M 723.7584,355.3835  L 729.3265,363.2812 M 717.9911,345.1759  L 715.1946,346.2531 M 636.9216,282.5076  L 634.6165,279.1875 M 630.5264,266.3937  L 632.2182,261.0775 M 642.9126,256.7425  L 644.2973,252.4854 L 646.8433,250.4753 M 644.2973,252.4854  L 640.4782,252.6948 M 653.2966,258.3799  L 656.0716,257.4038 M 554.1681,312.0693  L 551.8173,308.5251 M 498.1266,336.4776  L 492.2977,346.1168 M 493.9488,348.7041  L 492.7704,351.0275 M 493.9488,348.7041  L 488.6631,340.4215 L 496.4296,339.2839 M 465.5915,299.7930  L 469.8386,292.3975 M 456.6078,290.1915  L 419.3367,294.6712 L 402.3374,267.5182 M 401.1541,265.6281  L 438.4199,261.6913 L 437.4894,263.7717 M 438.4199,261.6913  L 433.4035,253.8308 L 440.8359,253.0750 M 442.5685,249.9036  L 437.1855,259.7570 M 429.5176,242.9993  L 433.4456,235.6877 M 420.5427,233.6780  L 383.2876,237.0899 L 366.8719,210.8690 M 361.3675,231.7721  L 359.0472,236.4363 L 375.1346,262.4368 L 377.5141,257.8010 M 378.6577,259.6445  L 376.2740,264.2783 L 392.6390,290.7275 L 395.0836,286.1236 M 396.2471,287.9992  L 393.7981,292.6009 L 410.4479,319.5104 L 412.9596,314.9404 M 414.1435,316.8488  L 411.6273,321.4166 M 411.7859,312.5643  L 410.4567,310.9055 M 409.3780,331.6512  L 376.0162,348.1767 M 378.4155,357.0228  L 388.3690,352.0777 L 590.0434,684.7634 M 592.9783,683.1122  L 394.6339,356.4927 L 390.9380,356.3156 M 394.6622,356.4786  L 593.0086,683.0952 M 581.8406,689.3783  L 582.3825,695.6340 M 590.2513,728.2658  L 382.3190,381.2591 L 370.9473,339.7738 M 388.3690,352.0777  L 414.0902,339.2988 M 428.7171,340.3420  L 430.0781,342.0249 M 429.7388,350.7422  L 446.9810,378.6096 L 440.8008,382.6482 L 423.6086,354.7464 L 429.7388,350.7422 M 427.8008,352.0081  L 422.4119,352.8042 M 427.7486,361.4654  L 404.7036,373.0136 M 418.7106,379.2181  L 420.1719,382.9805 L 433.5394,399.5124 L 437.5553,402.1039 L 422.5172,383.4847 L 420.1719,382.9805 L 425.6075,382.9428 L 429.0681,381.4172 L 446.9006,403.6046 M 447.8022,403.3303  L 451.0931,402.3296 L 452.3327,401.3635 M 451.0931,402.3296  L 432.4756,379.0924 L 435.4122,376.2535 L 436.1831,375.1540 M 435.4122,376.2535  L 442.0712,384.5907 M 442.0188,384.6249  L 448.2025,380.5839 L 465.7528,408.9493 L 459.5183,413.0253 L 442.0188,384.6249 M 440.8008,382.6482  L 446.4559,381.7254 M 448.6980,372.0107  L 447.3034,370.3036 M 431.1584,366.9992  L 428.1454,368.3369 L 424.7764,370.6371 L 421.8651,373.4428 L 419.7586,376.4214 L 418.7106,379.2181 L 418.8519,381.4969 L 431.0495,396.5600 L 433.5394,399.5124 M 430.6353,396.0686  L 418.8519,381.4969 M 422.5172,383.4847  L 425.6075,382.9428 L 442.1972,403.5263 L 445.9146,403.5882 M 442.1972,403.5263  L 438.4011,402.3631 M 429.0681,381.4172  L 432.4756,379.0924 M 466.2243,400.8048  L 467.6544,402.5359 M 466.9963,410.9591  L 484.8631,439.8359 L 478.5732,443.9500 L 460.7582,415.0375 L 466.9963,410.9591 M 465.4661,411.9595  L 459.5183,413.0253 M 485.4889,431.8601  L 486.9568,433.6152 M 484.8449,442.7221  L 478.5732,443.9500 M 612.8545,400.5490  L 615.2404,404.1461 M 690.2028,536.9529  L 694.9657,534.8569 L 704.0062,548.5275 L 699.2381,550.6513 M 712.9575,582.4251  L 716.6855,582.7206 L 718.7121,585.7980 L 717.0094,588.5870 L 713.2736,588.2932 L 711.2483,585.2086 L 712.9575,582.4251 M 712.0456,584.2447  L 715.7673,584.5389 L 717.6935,587.4664 M 712.0456,584.2447  L 711.3545,585.3704 M 721.6649,629.9058  L 713.1721,634.7091 L 711.6650,632.3841 L 707.7431,634.6003 M 718.0281,637.9718  L 725.8923,633.5167 L 725.4127,637.0498 L 753.9474,620.8704 L 754.5756,617.2676 L 762.3511,612.8627 L 763.6213,614.7709 M 762.3511,612.8627  L 761.3745,618.1558 L 762.6344,620.0522 M 761.3745,618.1558  L 718.9926,642.1966 M 719.2837,639.9066  L 718.0281,637.9718 M 647.6976,647.4673  L 646.5032,652.9994 M 642.8211,655.0709  L 640.2124,650.9002 M 831.2940,521.4637  L 857.0060,524.9025 L 888.1776,499.0104 M 882.1109,504.0496  L 890.1251,515.1769 M 895.5533,510.5725  L 900.9368,507.5457 M 868.9258,515.0016  L 885.0112,537.5217 M 990.6704,409.0833  L 989.1529,407.1173 M 460.7665,278.2607  L 455.2391,288.0467 M 456.6078,290.1915  L 455.6031,292.3466 M 456.6078,290.1915  L 451.5040,282.1939 L 459.0390,281.3191 M 419.6794,235.6890  L 420.5427,233.6780 L 415.6115,225.9511 L 422.9486,225.3072 M 424.6810,222.0302  L 419.4382,231.9474 M 376.1498,255.1652  L 374.8796,253.5541 M 375.1039,262.4394  L 369.1320,266.3348 L 353.0913,240.3019 L 359.0165,236.4385 L 375.1039,262.4394 M 376.2433,264.2810  L 392.6082,290.7305 L 386.5856,294.6608 L 370.2681,268.1786 L 376.2433,264.2810 M 373.8499,265.8422  L 369.1320,266.3348 M 392.5136,281.9806  L 393.8125,283.6155 M 391.5086,294.0780  L 386.5856,294.6608 " />
</svg>
