<?xml version="1.0" encoding="UTF-8" standalone="no"?>
<!-- Created with Inkscape (http://www.inkscape.org/) -->

<svg
   width="600"
   height="428.66318"
   id="svg2"
   version="1.1"
   inkscape:version="1.2.1 (9c6d41e4, 2022-07-14)"
   sodipodi:docname="star_tom.svg"
   xmlns:inkscape="http://www.inkscape.org/namespaces/inkscape"
   xmlns:sodipodi="http://sodipodi.sourceforge.net/DTD/sodipodi-0.dtd"
   xmlns="http://www.w3.org/2000/svg"
   xmlns:svg="http://www.w3.org/2000/svg"
   xmlns:rdf="http://www.w3.org/1999/02/22-rdf-syntax-ns#"
   xmlns:cc="http://creativecommons.org/ns#"
   xmlns:dc="http://purl.org/dc/elements/1.1/">
  <defs
     id="defs4" />
  <sodipodi:namedview
     id="base"
     pagecolor="#ffffff"
     bordercolor="#666666"
     borderopacity="1.0"
     inkscape:pageopacity="0.0"
     inkscape:pageshadow="2"
     inkscape:zoom="8.6173152"
     inkscape:cx="202.67333"
     inkscape:cy="359.79884"
     inkscape:document-units="px"
     inkscape:current-layer="svg2"
     showgrid="false"
     fit-margin-top="0"
     fit-margin-left="0"
     fit-margin-right="0"
     fit-margin-bottom="0"
     inkscape:window-width="1920"
     inkscape:window-height="1027"
     inkscape:window-x="0"
     inkscape:window-y="25"
     inkscape:window-maximized="0"
     inkscape:showpageshadow="2"
     inkscape:pagecheckerboard="0"
     inkscape:deskcolor="#d1d1d1" />
  <metadata
     id="metadata7">
    <rdf:RDF>
      <cc:Work
         rdf:about="">
        <dc:format>image/svg+xml</dc:format>
        <dc:type
           rdf:resource="http://purl.org/dc/dcmitype/StillImage" />
        <dc:title />
      </cc:Work>
    </rdf:RDF>
  </metadata>
  <g
     inkscape:label="Layer 1"
     inkscape:groupmode="layer"
     id="layer1"
     transform="translate(-71.060242,-326.03787)"
     sodipodi:insensitive="true">
    <rect
       style="fill:#ef3d33;fill-opacity:1;fill-rule:nonzero;stroke:none"
       id="rect2991"
       width="600"
       height="428.66318"
       x="71.060242"
       y="326.03787"
       rx="29.901646"
       ry="32.257545" />
    <g
       style="font-style:normal;font-variant:normal;font-weight:normal;font-stretch:normal;font-size:44px;line-height:125%;font-family:Arial;-inkscape-font-specification:Arial;text-align:center;letter-spacing:0px;word-spacing:0px;text-anchor:middle;fill:#ffffff;fill-opacity:1;stroke:none"
       id="text3761">
      <path
         d="m 307.72119,419.79074 v -74 h -13.7 v 30.1 h -26.5 v -30.1 h -13.7 v 74 h 13.7 v -31.1 h 26.5 v 31.1 h 13.7"
         style="font-weight:bold;font-size:100px;font-family:'ITC Avant Garde Gothic Pro';-inkscape-font-specification:'ITC Avant Garde Gothic Pro';fill:#ffffff"
         id="path3955"
         inkscape:connector-curvature="0" />
      <path
         d="m 375.68994,391.29074 c 0,-16.09998 -12.50001,-28.9 -28.7,-28.9 -16.79998,0 -29.2,13.20002 -29.2,29.8 0,16.49998 12.70002,29.4 29.3,29.4 11.79999,0 23.20001,-8.00001 26.8,-19.3 h -14 c -2.7,4.9 -7.4,7.1 -12.8,7.1 -5.49999,0 -10.5,-2.8 -13.5,-7.4 -0.8,-1.2 -1.5,-2.5 -1.8,-4 h 43.1 c 0.5,-2.2 0.8,-4.5 0.8,-6.7 m -13.6,-4 h -30.7 c 1.9,-7.89999 7.60001,-12.7 15.7,-12.7 8.09999,0 13.7,4.70001 15,12.7"
         style="font-weight:bold;font-size:100px;font-family:'ITC Avant Garde Gothic Pro';-inkscape-font-specification:'ITC Avant Garde Gothic Pro';fill:#ffffff"
         id="path3957"
         inkscape:connector-curvature="0" />
      <path
         d="m 397.45244,419.79074 v -74 h -13.3 v 74 h 13.3"
         style="font-weight:bold;font-size:100px;font-family:'ITC Avant Garde Gothic Pro';-inkscape-font-specification:'ITC Avant Garde Gothic Pro';fill:#ffffff"
         id="path3959"
         inkscape:connector-curvature="0" />
      <path
         d="m 421.47588,419.79074 v -74 h -13.3 v 74 h 13.3"
         style="font-weight:bold;font-size:100px;font-family:'ITC Avant Garde Gothic Pro';-inkscape-font-specification:'ITC Avant Garde Gothic Pro';fill:#ffffff"
         id="path3961"
         inkscape:connector-curvature="0" />
      <path
         d="m 488.29932,391.89074 c 0,-16.29998 -13.00002,-29.5 -29.4,-29.5 -16.39999,0 -29.6,13.40002 -29.6,29.7 0,16.19998 13.40001,29.5 29.6,29.5 16.79998,0 29.4,-12.90002 29.4,-29.7 m -13.3,0.3 c 0,9.09999 -6.70001,17.2 -16.1,17.2 -9.59999,0 -16.3,-8.00001 -16.3,-17.3 0,-8.99999 6.90001,-17.5 16.3,-17.5 9.39999,0 16.1,8.70001 16.1,17.6"
         style="font-weight:bold;font-size:100px;font-family:'ITC Avant Garde Gothic Pro';-inkscape-font-specification:'ITC Avant Garde Gothic Pro';fill:#ffffff"
         id="path3963"
         inkscape:connector-curvature="0" />
    </g>
    <g
       style="font-style:normal;font-variant:normal;font-weight:normal;font-stretch:normal;font-size:44px;line-height:125%;font-family:Arial;-inkscape-font-specification:Arial;text-align:center;letter-spacing:0px;word-spacing:0px;text-anchor:middle;fill:#ffffff;fill-opacity:1;stroke:none"
       id="text3769">
      <path
         d="m 284.54662,463.79074 v -14.696 c 0,-6.29199 -3.476,-10.34 -9.944,-10.34 -3.56399,0 -6.16,1.1 -8.052,4.092 -1.276,-2.728 -4.708,-4.092 -7.568,-4.092 -3.21199,0 -4.972,0.924 -6.996,3.3 h -0.088 v -2.64 h -4.224 v 24.376 h 4.576 v -13.596 c 0,-4.09199 1.32001,-7.26 6.028,-7.26 1.892,0 3.476,0.66 4.532,2.288 1.012,1.628 1.012,3.168 1.012,5.016 v 13.552 h 4.576 v -13.596 c 0,-4.004 1.05601,-7.26 5.808,-7.26 4.488,0 5.764,3.476 5.764,7.304 v 13.552 h 4.576"
         style="font-weight:500;line-height:125%;font-family:'ITC Avant Garde Gothic Pro';-inkscape-font-specification:'ITC Avant Garde Gothic Pro Medium';writing-mode:lr-tb;fill:#ffffff"
         id="path3966"
         inkscape:connector-curvature="0" />
      <path
         d="m 310.9645,439.41474 h -4.928 l -7.348,18.92 -7.172,-18.92 h -4.928 l 9.724,23.892 -3.564,8.624 h 4.752 l 13.464,-32.516"
         style="font-weight:500;line-height:125%;font-family:'ITC Avant Garde Gothic Pro';-inkscape-font-specification:'ITC Avant Garde Gothic Pro Medium';writing-mode:lr-tb;fill:#ffffff"
         id="path3968"
         inkscape:connector-curvature="0" />
      <path
         d="m 348.94269,463.79074 v -14.432 c 0,-2.156 -0.35201,-4.4 -1.54,-6.248 -1.892,-2.992 -5.14801,-4.356 -8.624,-4.356 -2.816,0 -5.36801,0.924 -7.128,3.256 h -0.088 v -2.596 h -4.268 v 24.376 h 4.576 v -13.288 c 0,-4.09199 1.936,-7.568 6.424,-7.568 4.83999,0 6.072,3.47601 6.072,7.612 v 13.244 h 4.576"
         style="font-weight:500;line-height:125%;font-family:'ITC Avant Garde Gothic Pro';-inkscape-font-specification:'ITC Avant Garde Gothic Pro Medium';writing-mode:lr-tb;fill:#ffffff"
         id="path3970"
         inkscape:connector-curvature="0" />
      <path
         d="m 379.34875,463.79074 v -24.376 h -4.576 v 3.432 h -0.088 c -1.804,-2.772 -5.016,-4.092 -8.272,-4.092 -7.39199,0 -12.936,5.54401 -12.936,12.936 0,7.34799 5.63201,12.716 12.936,12.716 3.344,0 6.556,-1.452 8.272,-4.4 h 0.088 v 3.784 h 4.576 m -4.488,-12.144 c 0,4.708 -3.74001,8.58 -8.492,8.58 -4.664,0 -8.316,-4.004 -8.316,-8.58 0,-4.75199 3.52,-8.712 8.36,-8.712 4.97199,0 8.448,3.82801 8.448,8.712"
         style="font-weight:500;line-height:125%;font-family:'ITC Avant Garde Gothic Pro';-inkscape-font-specification:'ITC Avant Garde Gothic Pro Medium';writing-mode:lr-tb;fill:#ffffff"
         id="path3972"
         inkscape:connector-curvature="0" />
      <path
         d="m 422.13256,463.79074 v -14.696 c 0,-6.29199 -3.47601,-10.34 -9.944,-10.34 -3.564,0 -6.16,1.1 -8.052,4.092 -1.276,-2.728 -4.708,-4.092 -7.568,-4.092 -3.212,0 -4.972,0.924 -6.996,3.3 h -0.088 v -2.64 h -4.224 v 24.376 h 4.576 v -13.596 c 0,-4.09199 1.32001,-7.26 6.028,-7.26 1.892,0 3.476,0.66 4.532,2.288 1.012,1.628 1.012,3.168 1.012,5.016 v 13.552 h 4.576 v -13.596 c 0,-4.004 1.05601,-7.26 5.808,-7.26 4.488,0 5.764,3.476 5.764,7.304 v 13.552 h 4.576"
         style="font-weight:500;line-height:125%;font-family:'ITC Avant Garde Gothic Pro';-inkscape-font-specification:'ITC Avant Garde Gothic Pro Medium';writing-mode:lr-tb;fill:#ffffff"
         id="path3974"
         inkscape:connector-curvature="0" />
      <path
         d="m 451.6435,451.29474 c 0,-6.86399 -5.50001,-12.54 -12.408,-12.54 -7.12799,0 -12.496,5.76401 -12.496,12.804 0,6.81999 5.45601,12.848 12.408,12.848 5.32399,0 9.856,-3.3 11.704,-8.272 h -4.576 c -1.32,2.552 -4.092,4.092 -6.952,4.092 -4.004,0 -7.084,-2.86 -8.008,-6.644 h 20.196 c 0.088,-0.748 0.132,-1.54 0.132,-2.288 m -4.576,-1.232 h -15.752 c 0.264,-4.004 3.916,-7.128 7.876,-7.128 3.95999,0 7.612,3.124 7.876,7.128"
         style="font-weight:500;line-height:125%;font-family:'ITC Avant Garde Gothic Pro';-inkscape-font-specification:'ITC Avant Garde Gothic Pro Medium';writing-mode:lr-tb;fill:#ffffff"
         id="path3976"
         inkscape:connector-curvature="0" />
      <path
         d="m 473.7975,436.59874 v -5.368 h -4.576 v 5.368 h 4.576 m 0,27.192 v -24.376 h -4.576 v 24.376 h 4.576"
         style="font-weight:500;line-height:125%;font-family:'ITC Avant Garde Gothic Pro';-inkscape-font-specification:'ITC Avant Garde Gothic Pro Medium';writing-mode:lr-tb;fill:#ffffff"
         id="path3978"
         inkscape:connector-curvature="0" />
      <path
         d="m 494.44587,456.61874 c 0,-4.70799 -3.344,-6.688 -7.348,-7.92 -1.67199,-0.528 -3.784,-1.012 -3.784,-3.168 0,-1.628 1.32001,-2.596 2.86,-2.596 1.848,0 2.904,1.188 3.124,2.948 h 4.576 c -0.088,-4.22399 -3.3,-7.128 -7.48,-7.128 -4.00399,0 -7.656,2.86001 -7.656,7.04 0,8.62399 11.132,5.98401 11.132,11.088 0,2.112 -1.496,3.344 -3.52,3.344 -2.72799,0 -3.96,-1.936 -4.136,-4.444 h -4.576 c 0,3.828 1.89201,6.776 5.5,8.052 1.012,0.352 2.068,0.572 3.124,0.572 4.664,0 8.184,-2.992 8.184,-7.788"
         style="font-weight:500;line-height:125%;font-family:'ITC Avant Garde Gothic Pro';-inkscape-font-specification:'ITC Avant Garde Gothic Pro Medium';writing-mode:lr-tb;fill:#ffffff"
         id="path3980"
         inkscape:connector-curvature="0" />
    </g>
    <rect
       style="fill:#ffffff;fill-opacity:1;fill-rule:nonzero;stroke:none"
       id="rect3773"
       width="600"
       height="232.85713"
       x="71.060242"
       y="487.50504" />
  </g>
  <path
     style="fill:none;fill-opacity:0;stroke:#363636;stroke-width:2.06921;stroke-linecap:round;stroke-linejoin:round;stroke-dasharray:none;stroke-opacity:1"
     d="m 125.88553,357.18266 v 9.9322 h 9.93221 l -9.93221,9.9322 -9.9322,-9.9322 h 9.9322"
     id="path140" />
  <path
     d="m 394.10696,377.04697 a 29.796602,29.796602 0 0 0 0,-59.59312"
     id="path154"
     style="fill:none;fill-opacity:0;stroke:#363636;stroke-width:2.06921;stroke-linecap:round;stroke-linejoin:round;stroke-dasharray:none;stroke-opacity:1" />
  <path
     d="m 394.10696,377.04697 a 29.796602,29.796602 0 0 0 0,-59.59312"
     id="path160"
     style="fill:none;fill-opacity:0;stroke:#363636;stroke-width:2.06921;stroke-linecap:round;stroke-linejoin:round;stroke-dasharray:none;stroke-opacity:1" />
  <path
     style="fill:none;fill-opacity:0.6;fill-rule:evenodd;stroke:#363636;stroke-width:2.06921;stroke-linecap:round;stroke-linejoin:round;stroke-dasharray:none;stroke-opacity:1"
     d="m 394.05496,317.45381 h -29.79661 v 59.59321 h 29.79661"
     id="path166" />
  <path
     style="fill:none;fill-opacity:0;stroke:#363636;stroke-width:2.06921;stroke-linecap:round;stroke-linejoin:round;stroke-dasharray:none;stroke-opacity:1"
     d="m 394.05496,317.45381 h -29.79661 v 59.59321 h 29.79661"
     id="path172" />
  <path
     style="fill:none;fill-opacity:0;stroke:#363636;stroke-width:2.06921;stroke-linecap:round;stroke-linejoin:round;stroke-dasharray:none;stroke-opacity:1"
     d="m 389.08886,357.18261 v -19.8644 h 9.9322"
     id="path176" />
  <path
     style="fill:none;fill-opacity:0;stroke:#363636;stroke-width:2.06921;stroke-linecap:round;stroke-linejoin:round;stroke-dasharray:none;stroke-opacity:1"
     d="m 389.08886,357.18261 v -19.8644 h 9.9322"
     id="path178" />
  <path
     style="fill:none;fill-opacity:0;stroke:#363636;stroke-width:2.06921;stroke-linecap:round;stroke-linejoin:round;stroke-dasharray:none;stroke-opacity:1"
     d="m 384.12276,357.18261 h 14.8983 v -19.8644 h 4.9661"
     id="path180" />
  <path
     style="fill:none;fill-opacity:0;stroke:#363636;stroke-width:2.06921;stroke-linecap:round;stroke-linejoin:round;stroke-dasharray:none;stroke-opacity:1"
     d="m 384.12276,357.18261 h 14.8983 v -19.8644 h 4.9661"
     id="path182" />
  <path
     d="m 394.10696,377.04697 a 29.796602,29.796602 0 0 0 0,-59.59312"
     id="path186"
     style="fill:none;fill-opacity:0;stroke:#363636;stroke-width:2.06921;stroke-linecap:round;stroke-linejoin:round;stroke-dasharray:none;stroke-opacity:1" />
  <path
     style="fill:none;fill-opacity:0;stroke:#363636;stroke-width:2.06921;stroke-linecap:round;stroke-linejoin:round;stroke-dasharray:none;stroke-opacity:1"
     d="m 394.05496,317.45381 h -29.79661 v 59.59321 h 29.79661"
     id="path188" />
  <circle
     cx="428.81769"
     cy="347.25043"
     r="4.9661007"
     id="circle192"
     style="fill:none;fill-opacity:0;stroke:#363636;stroke-width:2.06921;stroke-linecap:round;stroke-linejoin:round;stroke-dasharray:none;stroke-opacity:1" />
  <path
     d="m 433.78376,347.25041 h 19.8644"
     id="path194"
     style="fill:none;fill-opacity:0;stroke:#363636;stroke-width:2.06921;stroke-linecap:round;stroke-linejoin:round;stroke-dasharray:none;stroke-opacity:1" />
  <path
     d="m 364.25835,327.38601 h -29.7966"
     id="path210"
     style="fill:none;fill-opacity:0;stroke:#363636;stroke-width:2.06921;stroke-linecap:round;stroke-linejoin:round;stroke-dasharray:none;stroke-opacity:1" />
  <path
     d="m 364.25835,367.11482 h -29.7966"
     id="path224"
     style="fill:none;fill-opacity:0;stroke:#363636;stroke-width:2.06921;stroke-linecap:round;stroke-linejoin:round;stroke-dasharray:none;stroke-opacity:1" />
  <path
     d="m 394.10696,312.48767 a 29.796602,29.796602 0 0 0 0,-59.59312"
     id="path250"
     style="fill:none;fill-opacity:0;stroke:#363636;stroke-width:2.06921;stroke-linecap:round;stroke-linejoin:round;stroke-dasharray:none;stroke-opacity:1" />
  <path
     d="m 394.10696,312.48767 a 29.796602,29.796602 0 0 0 0,-59.59312"
     id="path256"
     style="fill:none;fill-opacity:0;stroke:#363636;stroke-width:2.06921;stroke-linecap:round;stroke-linejoin:round;stroke-dasharray:none;stroke-opacity:1" />
  <path
     style="fill:none;fill-opacity:0.6;fill-rule:evenodd;stroke:#363636;stroke-width:2.06921;stroke-linecap:round;stroke-linejoin:round;stroke-dasharray:none;stroke-opacity:1"
     d="m 394.05496,252.89451 h -29.79661 v 59.5932 h 29.79661"
     id="path262" />
  <path
     style="fill:none;fill-opacity:0;stroke:#363636;stroke-width:2.06921;stroke-linecap:round;stroke-linejoin:round;stroke-dasharray:none;stroke-opacity:1"
     d="m 394.05496,252.89451 h -29.79661 v 59.5932 h 29.79661"
     id="path268" />
  <path
     style="fill:none;fill-opacity:0;stroke:#363636;stroke-width:2.06921;stroke-linecap:round;stroke-linejoin:round;stroke-dasharray:none;stroke-opacity:1"
     d="m 389.08886,292.62331 v -19.8644 h 9.9322"
     id="path272" />
  <path
     style="fill:none;fill-opacity:0;stroke:#363636;stroke-width:2.06921;stroke-linecap:round;stroke-linejoin:round;stroke-dasharray:none;stroke-opacity:1"
     d="m 389.08886,292.62331 v -19.8644 h 9.9322"
     id="path274" />
  <path
     style="fill:none;fill-opacity:0;stroke:#363636;stroke-width:2.06921;stroke-linecap:round;stroke-linejoin:round;stroke-dasharray:none;stroke-opacity:1"
     d="m 384.12276,292.62331 h 14.8983 v -19.8644 h 4.9661"
     id="path276" />
  <path
     style="fill:none;fill-opacity:0;stroke:#363636;stroke-width:2.06921;stroke-linecap:round;stroke-linejoin:round;stroke-dasharray:none;stroke-opacity:1"
     d="m 384.12276,292.62331 h 14.8983 v -19.8644 h 4.9661"
     id="path278" />
  <path
     d="m 394.10696,312.48767 a 29.796602,29.796602 0 0 0 0,-59.59312"
     id="path282"
     style="fill:none;fill-opacity:0;stroke:#363636;stroke-width:2.06921;stroke-linecap:round;stroke-linejoin:round;stroke-dasharray:none;stroke-opacity:1" />
  <path
     style="fill:none;fill-opacity:0;stroke:#363636;stroke-width:2.06921;stroke-linecap:round;stroke-linejoin:round;stroke-dasharray:none;stroke-opacity:1"
     d="m 394.05496,252.89451 h -29.79661 v 59.5932 h 29.79661"
     id="path284" />
  <circle
     cx="428.81769"
     cy="282.6911"
     r="4.9661007"
     id="circle288"
     style="fill:none;fill-opacity:0;stroke:#363636;stroke-width:2.06921;stroke-linecap:round;stroke-linejoin:round;stroke-dasharray:none;stroke-opacity:1" />
  <path
     d="m 433.78376,282.69111 h 19.8644"
     id="path290"
     style="fill:none;fill-opacity:0;stroke:#363636;stroke-width:2.06921;stroke-linecap:round;stroke-linejoin:round;stroke-dasharray:none;stroke-opacity:1" />
  <path
     d="m 364.25835,262.82671 h -29.7966"
     id="path304"
     style="fill:none;fill-opacity:0;stroke:#363636;stroke-width:2.06921;stroke-linecap:round;stroke-linejoin:round;stroke-dasharray:none;stroke-opacity:1" />
  <path
     d="m 364.25835,302.55551 h -29.7966"
     id="path314"
     style="fill:none;fill-opacity:0;stroke:#363636;stroke-width:2.06921;stroke-linecap:round;stroke-linejoin:round;stroke-dasharray:none;stroke-opacity:1" />
  <path
     d="m 394.10696,247.92836 a 29.796602,29.796602 0 0 0 0,-59.59312"
     id="path336"
     style="fill:none;fill-opacity:0;stroke:#363636;stroke-width:2.06921;stroke-linecap:round;stroke-linejoin:round;stroke-dasharray:none;stroke-opacity:1" />
  <path
     d="m 394.10696,247.92836 a 29.796602,29.796602 0 0 0 0,-59.59312"
     id="path342"
     style="fill:none;fill-opacity:0;stroke:#363636;stroke-width:2.06921;stroke-linecap:round;stroke-linejoin:round;stroke-dasharray:none;stroke-opacity:1" />
  <path
     style="fill:none;fill-opacity:0.6;fill-rule:evenodd;stroke:#363636;stroke-width:2.06921;stroke-linecap:round;stroke-linejoin:round;stroke-dasharray:none;stroke-opacity:1"
     d="m 394.05496,188.3352 h -29.79661 v 59.59321 h 29.79661"
     id="path348" />
  <path
     style="fill:none;fill-opacity:0;stroke:#363636;stroke-width:2.06921;stroke-linecap:round;stroke-linejoin:round;stroke-dasharray:none;stroke-opacity:1"
     d="m 394.05496,188.3352 h -29.79661 v 59.59321 h 29.79661"
     id="path354" />
  <path
     style="fill:none;fill-opacity:0;stroke:#363636;stroke-width:2.06921;stroke-linecap:round;stroke-linejoin:round;stroke-dasharray:none;stroke-opacity:1"
     d="m 389.08886,228.064 v -19.8644 h 9.9322"
     id="path358" />
  <path
     style="fill:none;fill-opacity:0;stroke:#363636;stroke-width:2.06921;stroke-linecap:round;stroke-linejoin:round;stroke-dasharray:none;stroke-opacity:1"
     d="m 389.08886,228.064 v -19.8644 h 9.9322"
     id="path360" />
  <path
     style="fill:none;fill-opacity:0;stroke:#363636;stroke-width:2.06921;stroke-linecap:round;stroke-linejoin:round;stroke-dasharray:none;stroke-opacity:1"
     d="m 384.12276,228.064 h 14.8983 v -19.8644 h 4.9661"
     id="path362" />
  <path
     style="fill:none;fill-opacity:0;stroke:#363636;stroke-width:2.06921;stroke-linecap:round;stroke-linejoin:round;stroke-dasharray:none;stroke-opacity:1"
     d="m 384.12276,228.064 h 14.8983 v -19.8644 h 4.9661"
     id="path364" />
  <path
     d="m 394.10696,247.92836 a 29.796602,29.796602 0 0 0 0,-59.59312"
     id="path368"
     style="fill:none;fill-opacity:0;stroke:#363636;stroke-width:2.06921;stroke-linecap:round;stroke-linejoin:round;stroke-dasharray:none;stroke-opacity:1" />
  <path
     style="fill:none;fill-opacity:0;stroke:#363636;stroke-width:2.06921;stroke-linecap:round;stroke-linejoin:round;stroke-dasharray:none;stroke-opacity:1"
     d="m 394.05496,188.3352 h -29.79661 v 59.59321 h 29.79661"
     id="path370" />
  <circle
     cx="428.81769"
     cy="218.13181"
     r="4.9661007"
     id="circle374"
     style="fill:none;fill-opacity:0;stroke:#363636;stroke-width:2.06921;stroke-linecap:round;stroke-linejoin:round;stroke-dasharray:none;stroke-opacity:1" />
  <path
     d="m 433.78376,218.1318 h 19.8644"
     id="path376"
     style="fill:none;fill-opacity:0;stroke:#363636;stroke-width:2.06921;stroke-linecap:round;stroke-linejoin:round;stroke-dasharray:none;stroke-opacity:1" />
  <path
     d="m 364.25835,198.2674 h -29.7966"
     id="path388"
     style="fill:none;fill-opacity:0;stroke:#363636;stroke-width:2.06921;stroke-linecap:round;stroke-linejoin:round;stroke-dasharray:none;stroke-opacity:1" />
  <path
     d="m 364.25835,237.99621 h -29.7966"
     id="path398"
     style="fill:none;fill-opacity:0;stroke:#363636;stroke-width:2.06921;stroke-linecap:round;stroke-linejoin:round;stroke-dasharray:none;stroke-opacity:1" />
  <rect
     x="485.43121"
     y="200.25385"
     width="3.9728801"
     height="35.755924"
     rx="0.000000"
     id="rect412"
     style="fill:none;fill-opacity:0;stroke:#363636;stroke-width:2.06921;stroke-linecap:round;stroke-linejoin:round;stroke-dasharray:none;stroke-opacity:1" />
  <path
     style="fill:none;fill-opacity:0;stroke:#363636;stroke-width:2.06921;stroke-linecap:round;stroke-linejoin:round;stroke-dasharray:none;stroke-opacity:1"
     d="m 475.499,232.03688 v -7.94576"
     id="path414" />
  <path
     style="fill:none;fill-opacity:0;stroke:#363636;stroke-width:2.06921;stroke-linecap:round;stroke-linejoin:round;stroke-dasharray:none;stroke-opacity:1"
     d="m 471.52612,228.064 h 7.94576"
     id="path416" />
  <rect
     x="497.34988"
     y="200.25385"
     width="3.9728801"
     height="35.755924"
     rx="0.000000"
     id="rect420"
     style="fill:none;fill-opacity:1;stroke:#363636;stroke-width:2.06921;stroke-linecap:round;stroke-linejoin:round;stroke-dasharray:none;stroke-opacity:1" />
  <path
     d="M 485.4312,218.1318 H 463.58036"
     id="path424"
     style="fill:none;fill-opacity:0;stroke:#363636;stroke-width:2.06921;stroke-linecap:round;stroke-linejoin:round;stroke-dasharray:none;stroke-opacity:1" />
  <path
     d="m 501.32272,218.1318 h 21.85085"
     id="path426"
     style="fill:none;fill-opacity:0;stroke:#363636;stroke-width:2.06921;stroke-linecap:round;stroke-linejoin:round;stroke-dasharray:none;stroke-opacity:1" />
  <circle
     cx="40.468636"
     cy="198.2674"
     r="3.9728801"
     id="circle432"
     style="fill:none;fill-opacity:0;stroke:#363636;stroke-width:2.06921;stroke-linecap:round;stroke-linejoin:round;stroke-dasharray:none;stroke-opacity:1" />
  <path
     style="fill:none;fill-opacity:0;stroke:#363636;stroke-width:2.06921;stroke-linecap:round;stroke-linejoin:round;stroke-dasharray:none;stroke-opacity:1"
     d="M 44.441488,196.28096 68.27877,184.36232"
     id="path434" />
  <circle
     cx="72.251648"
     cy="198.2674"
     r="3.9728801"
     id="circle436"
     style="fill:none;fill-opacity:0;stroke:#363636;stroke-width:2.06921;stroke-linecap:round;stroke-linejoin:round;stroke-dasharray:none;stroke-opacity:1" />
  <path
     d="M 36.495727,198.2674 H 16.631325"
     id="path438"
     style="fill:none;fill-opacity:0;stroke:#363636;stroke-width:2.06921;stroke-linecap:round;stroke-linejoin:round;stroke-dasharray:none;stroke-opacity:1" />
  <path
     d="M 76.22453,198.2674 H 96.088932"
     id="path450"
     style="fill:none;fill-opacity:0;stroke:#363636;stroke-width:2.06921;stroke-linecap:round;stroke-linejoin:round;stroke-dasharray:none;stroke-opacity:1" />
  <path
     style="fill:none;fill-opacity:0;stroke:#363636;stroke-width:2.06921;stroke-linecap:round;stroke-linejoin:round;stroke-dasharray:none;stroke-opacity:1"
     d="m 10.672005,188.3352 5.95932,-9.9322"
     id="path464" />
  <path
     style="fill:none;fill-opacity:0;stroke:#363636;stroke-width:2.06921;stroke-linecap:round;stroke-linejoin:round;stroke-dasharray:none;stroke-opacity:1"
     d="M 16.631325,198.2674 V 178.403"
     id="path466" />
  <path
     style="fill:none;fill-opacity:0;stroke:#363636;stroke-width:2.06921;stroke-linecap:round;stroke-linejoin:round;stroke-dasharray:none;stroke-opacity:1"
     d="m 16.631325,178.403 5.959321,9.9322"
     id="path468" />
  <rect
     x="543.03796"
     y="208.1996"
     width="27.810162"
     height="39.728806"
     rx="0.000000"
     id="rect476"
     style="fill:none;fill-opacity:0;stroke:#363636;stroke-width:2.06921;stroke-linecap:round;stroke-linejoin:round;stroke-dasharray:none;stroke-opacity:1" />
  <path
     style="fill:none;fill-opacity:0;stroke:#363636;stroke-width:2.06921;stroke-linecap:round;stroke-linejoin:round;stroke-dasharray:none;stroke-opacity:1"
     d="m 570.84813,208.1996 19.8644,-19.8644 v 79.45761 l -19.8644,-19.8644"
     id="path478" />
  <path
     d="m 543.03797,218.1318 h -19.8644"
     id="path482"
     style="fill:none;fill-opacity:0;stroke:#363636;stroke-width:2.06921;stroke-linecap:round;stroke-linejoin:round;stroke-dasharray:none;stroke-opacity:1" />
  <path
     d="m 543.03797,237.99621 h -19.8644"
     id="path494"
     style="fill:none;fill-opacity:0;stroke:#363636;stroke-width:2.06921;stroke-linecap:round;stroke-linejoin:round;stroke-dasharray:none;stroke-opacity:1" />
  <path
     style="fill:none;fill-opacity:0;stroke:#363636;stroke-width:2.06921;stroke-linecap:round;stroke-linejoin:round;stroke-dasharray:none;stroke-opacity:1"
     d="m 523.17357,277.72501 v 9.9322 h 9.9322 l -9.9322,9.9322 -9.9322,-9.9322 h 9.9322"
     id="path508" />
  <path
     style="fill:none;fill-opacity:0;stroke:#363636;stroke-width:2.06921;stroke-linecap:round;stroke-linejoin:round;stroke-dasharray:none;stroke-opacity:1"
     d="m 165.61434,357.18266 v 9.9322 h 9.9322 l -9.9322,9.9322 -9.9322,-9.9322 h 9.9322"
     id="path514" />
  <rect
     x="147.73639"
     y="304.54196"
     width="35.755924"
     height="3.9728801"
     rx="0.000000"
     id="rect520"
     style="fill:none;fill-opacity:0;stroke:#363636;stroke-width:2.06921;stroke-linecap:round;stroke-linejoin:round;stroke-dasharray:none;stroke-opacity:1" />
  <path
     style="fill:none;fill-opacity:0;stroke:#363636;stroke-width:2.06921;stroke-linecap:round;stroke-linejoin:round;stroke-dasharray:none;stroke-opacity:1"
     d="m 151.70926,294.60975 h 7.94576"
     id="path522" />
  <path
     style="fill:none;fill-opacity:0;stroke:#363636;stroke-width:2.06921;stroke-linecap:round;stroke-linejoin:round;stroke-dasharray:none;stroke-opacity:1"
     d="m 155.68214,290.63687 v 7.94576"
     id="path524" />
  <rect
     x="147.73639"
     y="316.4606"
     width="35.755924"
     height="3.9728801"
     rx="0.000000"
     id="rect528"
     style="fill:none;fill-opacity:1;stroke:#363636;stroke-width:2.06921;stroke-linecap:round;stroke-linejoin:round;stroke-dasharray:none;stroke-opacity:1" />
  <path
     d="M 165.61434,304.54195 V 282.69111"
     id="path532"
     style="fill:none;fill-opacity:0;stroke:#363636;stroke-width:2.06921;stroke-linecap:round;stroke-linejoin:round;stroke-dasharray:none;stroke-opacity:1" />
  <path
     d="m 165.61434,320.43347 v 21.85084"
     id="path534"
     style="fill:none;fill-opacity:0;stroke:#363636;stroke-width:2.06921;stroke-linecap:round;stroke-linejoin:round;stroke-dasharray:none;stroke-opacity:1" />
  <path
     style="fill:none;fill-opacity:0;stroke:#363636;stroke-width:2.06921;stroke-linecap:round;stroke-linejoin:round;stroke-dasharray:none;stroke-opacity:1"
     d="m 125.88553,315.46737 v 1.98644"
     id="path540" />
  <path
     style="fill:none;fill-opacity:0;stroke:#363636;stroke-width:2.06921;stroke-linecap:round;stroke-linejoin:round;stroke-dasharray:none;stroke-opacity:1"
     d="m 125.88553,279.71145 v -1.98644"
     id="path542" />
  <path
     style="fill:none;fill-opacity:0;stroke:#363636;stroke-width:2.06921;stroke-linecap:round;stroke-linejoin:round;stroke-dasharray:none;stroke-opacity:1"
     d="m 125.88553,303.54873 7.94576,2.97966 -7.94576,2.97966 -7.94576,2.97966 7.94576,2.97966"
     id="path544" />
  <path
     style="fill:none;fill-opacity:0;stroke:#363636;stroke-width:2.06921;stroke-linecap:round;stroke-linejoin:round;stroke-dasharray:none;stroke-opacity:1"
     d="m 125.88553,291.63009 7.94576,2.97966 -7.94576,2.97966 -7.94576,2.97966 7.94576,2.97966"
     id="path546" />
  <path
     style="fill:none;fill-opacity:0;stroke:#363636;stroke-width:2.06921;stroke-linecap:round;stroke-linejoin:round;stroke-dasharray:none;stroke-opacity:1"
     d="m 125.88553,279.71145 7.94576,2.97966 -7.94576,2.97966 -7.94576,2.97966 7.94576,2.97966"
     id="path548" />
  <path
     style="fill:none;fill-opacity:0;stroke:#363636;stroke-width:2.06921;stroke-linecap:round;stroke-linejoin:round;stroke-dasharray:none;stroke-opacity:1"
     d="m 143.7635,285.67077 1.98644,-7.94576 -7.94576,1.98644 7.94576,-1.98644 -35.75593,35.75592"
     id="path550" />
  <path
     d="m 125.88553,277.72501 v -9.9322"
     id="path552"
     style="fill:none;fill-opacity:0;stroke:#363636;stroke-width:2.06921;stroke-linecap:round;stroke-linejoin:round;stroke-dasharray:none;stroke-opacity:1" />
  <path
     d="m 125.88553,317.45381 v 9.9322"
     id="path554"
     style="fill:none;fill-opacity:0;stroke:#363636;stroke-width:2.06921;stroke-linecap:round;stroke-linejoin:round;stroke-dasharray:none;stroke-opacity:1" />
  <rect
     x="83.177063"
     y="259.84705"
     width="35.755924"
     height="3.9728801"
     rx="0.000000"
     id="rect560"
     style="fill:none;fill-opacity:0;stroke:#363636;stroke-width:2.06921;stroke-linecap:round;stroke-linejoin:round;stroke-dasharray:none;stroke-opacity:1" />
  <path
     style="fill:none;fill-opacity:0;stroke:#363636;stroke-width:2.06921;stroke-linecap:round;stroke-linejoin:round;stroke-dasharray:none;stroke-opacity:1"
     d="m 87.149951,249.91485 h 7.945761"
     id="path562" />
  <path
     style="fill:none;fill-opacity:0;stroke:#363636;stroke-width:2.06921;stroke-linecap:round;stroke-linejoin:round;stroke-dasharray:none;stroke-opacity:1"
     d="m 91.122831,245.94197 v 7.94576"
     id="path564" />
  <rect
     x="83.177063"
     y="271.76569"
     width="35.755924"
     height="3.9728801"
     rx="0.000000"
     id="rect568"
     style="fill:none;fill-opacity:1;stroke:#363636;stroke-width:2.06921;stroke-linecap:round;stroke-linejoin:round;stroke-dasharray:none;stroke-opacity:1" />
  <path
     d="M 101.05503,259.84705 V 237.99621"
     id="path572"
     style="fill:none;fill-opacity:0;stroke:#363636;stroke-width:2.06921;stroke-linecap:round;stroke-linejoin:round;stroke-dasharray:none;stroke-opacity:1" />
  <path
     d="m 101.05503,275.73857 v 21.85084"
     id="path574"
     style="fill:none;fill-opacity:0;stroke:#363636;stroke-width:2.06921;stroke-linecap:round;stroke-linejoin:round;stroke-dasharray:none;stroke-opacity:1" />
  <path
     style="fill:none;fill-opacity:0;stroke:#363636;stroke-width:2.06921;stroke-linecap:round;stroke-linejoin:round;stroke-dasharray:none;stroke-opacity:1"
     d="M 125.88553,215.15214 V 213.1657"
     id="path580" />
  <path
     style="fill:none;fill-opacity:0;stroke:#363636;stroke-width:2.06921;stroke-linecap:round;stroke-linejoin:round;stroke-dasharray:none;stroke-opacity:1"
     d="m 125.88553,250.90807 v 1.98644"
     id="path582" />
  <path
     style="fill:none;fill-opacity:0;stroke:#363636;stroke-width:2.06921;stroke-linecap:round;stroke-linejoin:round;stroke-dasharray:none;stroke-opacity:1"
     d="m 125.88553,227.07078 -7.94576,-2.97966 7.94576,-2.97966 7.94576,-2.97966 -7.94576,-2.97966"
     id="path584" />
  <path
     style="fill:none;fill-opacity:0;stroke:#363636;stroke-width:2.06921;stroke-linecap:round;stroke-linejoin:round;stroke-dasharray:none;stroke-opacity:1"
     d="m 125.88553,238.98943 -7.94576,-2.97966 7.94576,-2.97967 7.94576,-2.97966 -7.94576,-2.97966"
     id="path586" />
  <path
     style="fill:none;fill-opacity:0;stroke:#363636;stroke-width:2.06921;stroke-linecap:round;stroke-linejoin:round;stroke-dasharray:none;stroke-opacity:1"
     d="m 125.88553,250.90807 -7.94576,-2.97966 7.94576,-2.97966 7.94576,-2.97966 -7.94576,-2.97966"
     id="path588" />
  <path
     d="m 125.88553,252.89451 v 9.9322"
     id="path590"
     style="fill:none;fill-opacity:0;stroke:#363636;stroke-width:2.06921;stroke-linecap:round;stroke-linejoin:round;stroke-dasharray:none;stroke-opacity:1" />
  <path
     d="m 125.88553,213.1657 v -9.9322"
     id="path592"
     style="fill:none;fill-opacity:0;stroke:#363636;stroke-width:2.06921;stroke-linecap:round;stroke-linejoin:round;stroke-dasharray:none;stroke-opacity:1" />
  <path
     d="m 230.22564,247.92836 a 29.796602,29.796602 0 0 0 0,-59.59312"
     id="path606"
     style="fill:none;fill-opacity:0;stroke:#363636;stroke-width:2.06921;stroke-linecap:round;stroke-linejoin:round;stroke-dasharray:none;stroke-opacity:1" />
  <path
     style="fill:none;fill-opacity:0.6;fill-rule:evenodd;stroke:#363636;stroke-width:2.06921;stroke-linecap:round;stroke-linejoin:round;stroke-dasharray:none;stroke-opacity:1"
     d="m 230.17364,188.3352 h -29.7966 v 59.59321 h 29.7966"
     id="path618" />
  <path
     style="fill:none;fill-opacity:0;stroke:#363636;stroke-width:2.06921;stroke-linecap:round;stroke-linejoin:round;stroke-dasharray:none;stroke-opacity:1"
     d="m 225.20754,228.064 v -19.8644 h 9.9322"
     id="path628" />
  <path
     style="fill:none;fill-opacity:0;stroke:#363636;stroke-width:2.06921;stroke-linecap:round;stroke-linejoin:round;stroke-dasharray:none;stroke-opacity:1"
     d="m 225.20754,228.064 v -19.8644 h 9.9322"
     id="path630" />
  <path
     style="fill:none;fill-opacity:0;stroke:#363636;stroke-width:2.06921;stroke-linecap:round;stroke-linejoin:round;stroke-dasharray:none;stroke-opacity:1"
     d="m 220.24144,228.064 h 14.8983 v -19.8644 h 4.9661"
     id="path632" />
  <path
     style="fill:none;fill-opacity:0;stroke:#363636;stroke-width:2.06921;stroke-linecap:round;stroke-linejoin:round;stroke-dasharray:none;stroke-opacity:1"
     d="m 220.24144,228.064 h 14.8983 v -19.8644 h 4.9661"
     id="path634" />
  <path
     d="m 200.37704,198.2674 h -29.7966"
     id="path644"
     style="fill:none;fill-opacity:0;stroke:#363636;stroke-width:2.06921;stroke-linecap:round;stroke-linejoin:round;stroke-dasharray:none;stroke-opacity:1" />
  <path
     d="m 200.37704,237.99621 h -29.7966"
     id="path656"
     style="fill:none;fill-opacity:0;stroke:#363636;stroke-width:2.06921;stroke-linecap:round;stroke-linejoin:round;stroke-dasharray:none;stroke-opacity:1" />
  <circle
     cx="264.93637"
     cy="218.13181"
     r="4.9661007"
     id="circle666"
     style="fill:none;fill-opacity:0;stroke:#363636;stroke-width:2.06921;stroke-linecap:round;stroke-linejoin:round;stroke-dasharray:none;stroke-opacity:1" />
  <path
     d="m 269.90245,218.1318 h 19.8644"
     id="path668"
     style="fill:none;fill-opacity:0;stroke:#363636;stroke-width:2.06921;stroke-linecap:round;stroke-linejoin:round;stroke-dasharray:none;stroke-opacity:1" />
  <path
     style="fill:none;fill-opacity:0;stroke:#363636;stroke-width:2.06921;stroke-linecap:round;stroke-linejoin:round;stroke-dasharray:none;stroke-opacity:1"
     d="m 223.2211,272.75891 h 1.98644"
     id="path682" />
  <path
     style="fill:none;fill-opacity:0;stroke:#363636;stroke-width:2.06921;stroke-linecap:round;stroke-linejoin:round;stroke-dasharray:none;stroke-opacity:1"
     d="m 187.46518,272.75891 h -1.98644"
     id="path684" />
  <path
     style="fill:none;fill-opacity:0;stroke:#363636;stroke-width:2.06921;stroke-linecap:round;stroke-linejoin:round;stroke-dasharray:none;stroke-opacity:1"
     d="m 211.30246,272.75891 2.97966,-7.94576 2.97966,7.94576 2.97966,7.94576 2.97966,-7.94576"
     id="path686" />
  <path
     style="fill:none;fill-opacity:0;stroke:#363636;stroke-width:2.06921;stroke-linecap:round;stroke-linejoin:round;stroke-dasharray:none;stroke-opacity:1"
     d="m 199.38382,272.75891 2.97966,-7.94576 2.97966,7.94576 2.97966,7.94576 2.97966,-7.94576"
     id="path688" />
  <path
     style="fill:none;fill-opacity:0;stroke:#363636;stroke-width:2.06921;stroke-linecap:round;stroke-linejoin:round;stroke-dasharray:none;stroke-opacity:1"
     d="m 187.46518,272.75891 2.97966,-7.94576 2.97966,7.94576 2.97966,7.94576 2.97966,-7.94576"
     id="path690" />
  <path
     d="m 185.47874,272.75891 h -9.9322"
     id="path692"
     style="fill:none;fill-opacity:0;stroke:#363636;stroke-width:2.06921;stroke-linecap:round;stroke-linejoin:round;stroke-dasharray:none;stroke-opacity:1" />
  <path
     d="m 225.20754,272.75891 h 9.9322"
     id="path694"
     style="fill:none;fill-opacity:0;stroke:#363636;stroke-width:2.06921;stroke-linecap:round;stroke-linejoin:round;stroke-dasharray:none;stroke-opacity:1" />
  <path
     style="fill:none;fill-opacity:0;stroke:#363636;stroke-width:2.06921;stroke-linecap:round;stroke-linejoin:round;stroke-dasharray:none;stroke-opacity:1"
     d="m 247.05838,272.75891 h -1.98644"
     id="path700" />
  <path
     style="fill:none;fill-opacity:0;stroke:#363636;stroke-width:2.06921;stroke-linecap:round;stroke-linejoin:round;stroke-dasharray:none;stroke-opacity:1"
     d="m 282.81431,272.75891 h 1.98644"
     id="path702" />
  <path
     style="fill:none;fill-opacity:0;stroke:#363636;stroke-width:2.06921;stroke-linecap:round;stroke-linejoin:round;stroke-dasharray:none;stroke-opacity:1"
     d="m 258.97703,272.75891 -2.97967,-7.94576 -2.97966,7.94576 -2.97966,7.94576 -2.97966,-7.94576"
     id="path704" />
  <path
     style="fill:none;fill-opacity:0;stroke:#363636;stroke-width:2.06921;stroke-linecap:round;stroke-linejoin:round;stroke-dasharray:none;stroke-opacity:1"
     d="m 270.89567,272.75891 -2.97966,-7.94576 -2.97966,7.94576 -2.97966,7.94576 -2.97966,-7.94576"
     id="path706" />
  <path
     style="fill:none;fill-opacity:0;stroke:#363636;stroke-width:2.06921;stroke-linecap:round;stroke-linejoin:round;stroke-dasharray:none;stroke-opacity:1"
     d="m 282.81431,272.75891 -2.97966,-7.94576 -2.97966,7.94576 -2.97966,7.94576 -2.97966,-7.94576"
     id="path708" />
  <path
     style="fill:none;fill-opacity:0;stroke:#363636;stroke-width:2.06921;stroke-linecap:round;stroke-linejoin:round;stroke-dasharray:none;stroke-opacity:1"
     d="m 276.85499,254.88095 7.94576,-1.98644 -1.98644,7.94576 1.98644,-7.94576 -35.75593,35.75592"
     id="path710" />
  <path
     d="m 284.80075,272.75891 h 9.9322"
     id="path712"
     style="fill:none;fill-opacity:0;stroke:#363636;stroke-width:2.06921;stroke-linecap:round;stroke-linejoin:round;stroke-dasharray:none;stroke-opacity:1" />
  <path
     d="m 245.07194,272.75891 h -9.9322"
     id="path714"
     style="fill:none;fill-opacity:0;stroke:#363636;stroke-width:2.06921;stroke-linecap:round;stroke-linejoin:round;stroke-dasharray:none;stroke-opacity:1" />
  <path
     d="m 294.73295,272.75891 h 4.9661"
     id="path722"
     style="fill:none;fill-opacity:0;stroke:#363636;stroke-width:2.06921;stroke-linecap:round;stroke-linejoin:round;stroke-dasharray:none;stroke-opacity:1" />
  <path
     d="m 299.69905,218.1318 v 54.62711"
     id="path724"
     style="fill:none;fill-opacity:0;stroke:#363636;stroke-width:2.06921;stroke-linecap:round;stroke-linejoin:round;stroke-dasharray:none;stroke-opacity:1" />
  <path
     d="m 289.76685,218.1318 h 9.9322"
     id="path726"
     style="fill:none;fill-opacity:0;stroke:#363636;stroke-width:2.06921;stroke-linecap:round;stroke-linejoin:round;stroke-dasharray:none;stroke-opacity:1" />
  <path
     d="m 299.69905,218.1318 h 19.8644"
     id="path728"
     style="fill:none;fill-opacity:0;stroke:#363636;stroke-width:2.06921;stroke-linecap:round;stroke-linejoin:round;stroke-dasharray:none;stroke-opacity:1" />
  <path
     d="m 165.61434,237.99621 v 34.7627"
     id="path730"
     style="fill:none;fill-opacity:0;stroke:#363636;stroke-width:2.06921;stroke-linecap:round;stroke-linejoin:round;stroke-dasharray:none;stroke-opacity:1" />
  <path
     d="m 101.05503,297.58941 v 34.7627"
     id="path732"
     style="fill:none;fill-opacity:0;stroke:#363636;stroke-width:2.06921;stroke-linecap:round;stroke-linejoin:round;stroke-dasharray:none;stroke-opacity:1" />
  <path
     d="M 165.61434,333.77267 V 357.3422"
     id="path734"
     style="fill:none;fill-opacity:0;stroke:#363636;stroke-width:2.069;stroke-linecap:round;stroke-linejoin:round;stroke-dasharray:none;stroke-opacity:1" />
  <path
     d="m 125.88553,262.82671 v 4.9661"
     id="path736"
     style="fill:none;fill-opacity:0;stroke:#363636;stroke-width:2.06921;stroke-linecap:round;stroke-linejoin:round;stroke-dasharray:none;stroke-opacity:1" />
  <path
     d="m 170.58044,237.99621 h -4.9661"
     id="path738"
     style="fill:none;fill-opacity:0;stroke:#363636;stroke-width:2.06921;stroke-linecap:round;stroke-linejoin:round;stroke-dasharray:none;stroke-opacity:1" />
  <path
     d="m 175.54654,272.75891 h -9.9322"
     id="path740"
     style="fill:none;fill-opacity:0;stroke:#363636;stroke-width:2.06921;stroke-linecap:round;stroke-linejoin:round;stroke-dasharray:none;stroke-opacity:1" />
  <path
     d="M 125.88553,327.91899 V 359.0898"
     id="path742"
     style="fill:none;fill-opacity:0;stroke:#363636;stroke-width:2.069;stroke-linecap:round;stroke-linejoin:round;stroke-dasharray:none;stroke-opacity:1" />
  <path
     d="m 101.05503,332.35211 h 24.8305"
     id="path744"
     style="fill:none;fill-opacity:0;stroke:#363636;stroke-width:2.06921;stroke-linecap:round;stroke-linejoin:round;stroke-dasharray:none;stroke-opacity:1" />
  <path
     d="m 334.46175,218.1318 h -14.8983"
     id="path746"
     style="fill:none;fill-opacity:0;stroke:#363636;stroke-width:2.06921;stroke-linecap:round;stroke-linejoin:round;stroke-dasharray:none;stroke-opacity:1" />
  <path
     d="m 334.46175,198.2674 v 19.8644"
     id="path748"
     style="fill:none;fill-opacity:0;stroke:#363636;stroke-width:2.06921;stroke-linecap:round;stroke-linejoin:round;stroke-dasharray:none;stroke-opacity:1" />
  <path
     d="m 319.56345,218.1318 v 64.55931"
     id="path750"
     style="fill:none;fill-opacity:0;stroke:#363636;stroke-width:2.06921;stroke-linecap:round;stroke-linejoin:round;stroke-dasharray:none;stroke-opacity:1" />
  <path
     d="m 453.64816,218.1318 h 9.9322"
     id="path752"
     style="fill:none;fill-opacity:0;stroke:#363636;stroke-width:2.06921;stroke-linecap:round;stroke-linejoin:round;stroke-dasharray:none;stroke-opacity:1" />
  <path
     d="m 165.61434,272.75891 v 9.9322"
     id="path754"
     style="fill:none;fill-opacity:0;stroke:#363636;stroke-width:2.06921;stroke-linecap:round;stroke-linejoin:round;stroke-dasharray:none;stroke-opacity:1" />
  <path
     d="m 523.17357,237.99621 v 39.7288"
     id="path756"
     style="fill:none;fill-opacity:0;stroke:#363636;stroke-width:2.06921;stroke-linecap:round;stroke-linejoin:round;stroke-dasharray:none;stroke-opacity:1" />
  <path
     d="m 96.088932,198.2674 h 4.966098"
     id="path758"
     style="fill:none;fill-opacity:0;stroke:#363636;stroke-width:2.06921;stroke-linecap:round;stroke-linejoin:round;stroke-dasharray:none;stroke-opacity:1" />
  <path
     d="m 101.05503,198.2674 v 39.72881"
     id="path760"
     style="fill:none;fill-opacity:0;stroke:#363636;stroke-width:2.06921;stroke-linecap:round;stroke-linejoin:round;stroke-dasharray:none;stroke-opacity:1" />
  <path
     d="m 334.46175,218.1318 v 19.86441"
     id="path762"
     style="fill:none;fill-opacity:0;stroke:#363636;stroke-width:2.06921;stroke-linecap:round;stroke-linejoin:round;stroke-dasharray:none;stroke-opacity:1" />
  <path
     d="m 334.46175,262.82671 v 19.8644"
     id="path764"
     style="fill:none;fill-opacity:0;stroke:#363636;stroke-width:2.06921;stroke-linecap:round;stroke-linejoin:round;stroke-dasharray:none;stroke-opacity:1" />
  <path
     d="m 125.88553,198.2674 h -24.8305"
     id="path766"
     style="fill:none;fill-opacity:0;stroke:#363636;stroke-width:2.06921;stroke-linecap:round;stroke-linejoin:round;stroke-dasharray:none;stroke-opacity:1" />
  <path
     d="m 125.88553,198.2674 v 4.9661"
     id="path768"
     style="fill:none;fill-opacity:0;stroke:#363636;stroke-width:2.06921;stroke-linecap:round;stroke-linejoin:round;stroke-dasharray:none;stroke-opacity:1" />
  <path
     d="m 453.64816,218.1318 v 64.55931"
     id="path770"
     style="fill:none;fill-opacity:0;stroke:#363636;stroke-width:2.06921;stroke-linecap:round;stroke-linejoin:round;stroke-dasharray:none;stroke-opacity:1" />
  <path
     d="m 334.46175,282.69111 h -14.8983"
     id="path772"
     style="fill:none;fill-opacity:0;stroke:#363636;stroke-width:2.06921;stroke-linecap:round;stroke-linejoin:round;stroke-dasharray:none;stroke-opacity:1" />
  <path
     d="m 319.56345,282.69111 v 64.5593"
     id="path774"
     style="fill:none;fill-opacity:0;stroke:#363636;stroke-width:2.06921;stroke-linecap:round;stroke-linejoin:round;stroke-dasharray:none;stroke-opacity:1" />
  <path
     d="m 334.46175,282.69111 v 19.8644"
     id="path776"
     style="fill:none;fill-opacity:0;stroke:#363636;stroke-width:2.06921;stroke-linecap:round;stroke-linejoin:round;stroke-dasharray:none;stroke-opacity:1" />
  <path
     d="m 334.46175,327.38601 v 19.8644"
     id="path778"
     style="fill:none;fill-opacity:0;stroke:#363636;stroke-width:2.06921;stroke-linecap:round;stroke-linejoin:round;stroke-dasharray:none;stroke-opacity:1" />
  <path
     d="m 319.56345,347.25041 h 14.8983"
     id="path780"
     style="fill:none;fill-opacity:0;stroke:#363636;stroke-width:2.06921;stroke-linecap:round;stroke-linejoin:round;stroke-dasharray:none;stroke-opacity:1" />
  <path
     d="m 334.46175,347.25041 v 19.86441"
     id="path782"
     style="fill:none;fill-opacity:0;stroke:#363636;stroke-width:2.06921;stroke-linecap:round;stroke-linejoin:round;stroke-dasharray:none;stroke-opacity:1" />
  <path
     d="m 125.88553,198.2674 h 44.69491"
     id="path784"
     style="fill:none;fill-opacity:0;stroke:#363636;stroke-width:2.06921;stroke-linecap:round;stroke-linejoin:round;stroke-dasharray:none;stroke-opacity:1" />
  <path
     d="m 453.64816,282.69111 v 64.5593"
     id="path786"
     style="fill:none;fill-opacity:0;stroke:#363636;stroke-width:2.06921;stroke-linecap:round;stroke-linejoin:round;stroke-dasharray:none;stroke-opacity:1" />
</svg>
