<?xml version="1.0" encoding="UTF-8" standalone="no"?>
<!-- Created with Inkscape (http://www.inkscape.org/) -->

<svg
   width="600"
   height="428.66318"
   id="svg2"
   version="1.1"
   inkscape:version="1.2.1 (9c6d41e4, 2022-07-14)"
   sodipodi:docname="wordmark.svg"
   xmlns:inkscape="http://www.inkscape.org/namespaces/inkscape"
   xmlns:sodipodi="http://sodipodi.sourceforge.net/DTD/sodipodi-0.dtd"
   xmlns="http://www.w3.org/2000/svg"
   xmlns:svg="http://www.w3.org/2000/svg"
   xmlns:rdf="http://www.w3.org/1999/02/22-rdf-syntax-ns#"
   xmlns:cc="http://creativecommons.org/ns#"
   xmlns:dc="http://purl.org/dc/elements/1.1/">
  <defs
     id="defs4" />
  <sodipodi:namedview
     id="base"
     pagecolor="#ffffff"
     bordercolor="#666666"
     borderopacity="1.0"
     inkscape:pageopacity="0.0"
     inkscape:pageshadow="2"
     inkscape:zoom="5.6"
     inkscape:cx="456.875"
     inkscape:cy="247.58929"
     inkscape:document-units="px"
     inkscape:current-layer="g22507"
     showgrid="false"
     fit-margin-top="0"
     fit-margin-left="0"
     fit-margin-right="0"
     fit-margin-bottom="0"
     inkscape:window-width="1920"
     inkscape:window-height="1027"
     inkscape:window-x="0"
     inkscape:window-y="25"
     inkscape:window-maximized="1"
     inkscape:showpageshadow="2"
     inkscape:pagecheckerboard="0"
     inkscape:deskcolor="#d1d1d1" />
  <metadata
     id="metadata7">
    <rdf:RDF>
      <cc:Work
         rdf:about="">
        <dc:format>image/svg+xml</dc:format>
        <dc:type
           rdf:resource="http://purl.org/dc/dcmitype/StillImage" />
        <dc:title />
      </cc:Work>
    </rdf:RDF>
  </metadata>
  <g
     inkscape:label="Layer 1"
     inkscape:groupmode="layer"
     id="layer1"
     transform="translate(-71.060242,-326.03787)"
     style="display:inline"
     sodipodi:insensitive="true">
    <rect
       style="fill:#ef3d33;fill-opacity:1;fill-rule:nonzero;stroke:none"
       id="rect2991"
       width="600"
       height="428.66318"
       x="71.060242"
       y="326.03787"
       rx="29.901646"
       ry="32.257545" />
    <g
       style="font-style:normal;font-variant:normal;font-weight:normal;font-stretch:normal;font-size:44px;line-height:125%;font-family:Arial;-inkscape-font-specification:Arial;text-align:center;letter-spacing:0px;word-spacing:0px;text-anchor:middle;fill:#ffffff;fill-opacity:1;stroke:none"
       id="text3761">
      <path
         d="m 307.72119,419.79074 v -74 h -13.7 v 30.1 h -26.5 v -30.1 h -13.7 v 74 h 13.7 v -31.1 h 26.5 v 31.1 h 13.7"
         style="font-weight:bold;font-size:100px;font-family:'ITC Avant Garde Gothic Pro';-inkscape-font-specification:'ITC Avant Garde Gothic Pro';fill:#ffffff"
         id="path3955"
         inkscape:connector-curvature="0" />
      <path
         d="m 375.68994,391.29074 c 0,-16.09998 -12.50001,-28.9 -28.7,-28.9 -16.79998,0 -29.2,13.20002 -29.2,29.8 0,16.49998 12.70002,29.4 29.3,29.4 11.79999,0 23.20001,-8.00001 26.8,-19.3 h -14 c -2.7,4.9 -7.4,7.1 -12.8,7.1 -5.49999,0 -10.5,-2.8 -13.5,-7.4 -0.8,-1.2 -1.5,-2.5 -1.8,-4 h 43.1 c 0.5,-2.2 0.8,-4.5 0.8,-6.7 m -13.6,-4 h -30.7 c 1.9,-7.89999 7.60001,-12.7 15.7,-12.7 8.09999,0 13.7,4.70001 15,12.7"
         style="font-weight:bold;font-size:100px;font-family:'ITC Avant Garde Gothic Pro';-inkscape-font-specification:'ITC Avant Garde Gothic Pro';fill:#ffffff"
         id="path3957"
         inkscape:connector-curvature="0" />
      <path
         d="m 397.45244,419.79074 v -74 h -13.3 v 74 h 13.3"
         style="font-weight:bold;font-size:100px;font-family:'ITC Avant Garde Gothic Pro';-inkscape-font-specification:'ITC Avant Garde Gothic Pro';fill:#ffffff"
         id="path3959"
         inkscape:connector-curvature="0" />
      <path
         d="m 421.47588,419.79074 v -74 h -13.3 v 74 h 13.3"
         style="font-weight:bold;font-size:100px;font-family:'ITC Avant Garde Gothic Pro';-inkscape-font-specification:'ITC Avant Garde Gothic Pro';fill:#ffffff"
         id="path3961"
         inkscape:connector-curvature="0" />
      <path
         d="m 488.29932,391.89074 c 0,-16.29998 -13.00002,-29.5 -29.4,-29.5 -16.39999,0 -29.6,13.40002 -29.6,29.7 0,16.19998 13.40001,29.5 29.6,29.5 16.79998,0 29.4,-12.90002 29.4,-29.7 m -13.3,0.3 c 0,9.09999 -6.70001,17.2 -16.1,17.2 -9.59999,0 -16.3,-8.00001 -16.3,-17.3 0,-8.99999 6.90001,-17.5 16.3,-17.5 9.39999,0 16.1,8.70001 16.1,17.6"
         style="font-weight:bold;font-size:100px;font-family:'ITC Avant Garde Gothic Pro';-inkscape-font-specification:'ITC Avant Garde Gothic Pro';fill:#ffffff"
         id="path3963"
         inkscape:connector-curvature="0" />
    </g>
    <g
       style="font-style:normal;font-variant:normal;font-weight:normal;font-stretch:normal;font-size:44px;line-height:125%;font-family:Arial;-inkscape-font-specification:Arial;text-align:center;letter-spacing:0px;word-spacing:0px;text-anchor:middle;fill:#ffffff;fill-opacity:1;stroke:none"
       id="text3769">
      <path
         d="m 284.54662,463.79074 v -14.696 c 0,-6.29199 -3.476,-10.34 -9.944,-10.34 -3.56399,0 -6.16,1.1 -8.052,4.092 -1.276,-2.728 -4.708,-4.092 -7.568,-4.092 -3.21199,0 -4.972,0.924 -6.996,3.3 h -0.088 v -2.64 h -4.224 v 24.376 h 4.576 v -13.596 c 0,-4.09199 1.32001,-7.26 6.028,-7.26 1.892,0 3.476,0.66 4.532,2.288 1.012,1.628 1.012,3.168 1.012,5.016 v 13.552 h 4.576 v -13.596 c 0,-4.004 1.05601,-7.26 5.808,-7.26 4.488,0 5.764,3.476 5.764,7.304 v 13.552 h 4.576"
         style="font-weight:500;line-height:125%;font-family:'ITC Avant Garde Gothic Pro';-inkscape-font-specification:'ITC Avant Garde Gothic Pro Medium';writing-mode:lr-tb;fill:#ffffff"
         id="path3966"
         inkscape:connector-curvature="0" />
      <path
         d="m 310.9645,439.41474 h -4.928 l -7.348,18.92 -7.172,-18.92 h -4.928 l 9.724,23.892 -3.564,8.624 h 4.752 l 13.464,-32.516"
         style="font-weight:500;line-height:125%;font-family:'ITC Avant Garde Gothic Pro';-inkscape-font-specification:'ITC Avant Garde Gothic Pro Medium';writing-mode:lr-tb;fill:#ffffff"
         id="path3968"
         inkscape:connector-curvature="0" />
      <path
         d="m 348.94269,463.79074 v -14.432 c 0,-2.156 -0.35201,-4.4 -1.54,-6.248 -1.892,-2.992 -5.14801,-4.356 -8.624,-4.356 -2.816,0 -5.36801,0.924 -7.128,3.256 h -0.088 v -2.596 h -4.268 v 24.376 h 4.576 v -13.288 c 0,-4.09199 1.936,-7.568 6.424,-7.568 4.83999,0 6.072,3.47601 6.072,7.612 v 13.244 h 4.576"
         style="font-weight:500;line-height:125%;font-family:'ITC Avant Garde Gothic Pro';-inkscape-font-specification:'ITC Avant Garde Gothic Pro Medium';writing-mode:lr-tb;fill:#ffffff"
         id="path3970"
         inkscape:connector-curvature="0" />
      <path
         d="m 379.34875,463.79074 v -24.376 h -4.576 v 3.432 h -0.088 c -1.804,-2.772 -5.016,-4.092 -8.272,-4.092 -7.39199,0 -12.936,5.54401 -12.936,12.936 0,7.34799 5.63201,12.716 12.936,12.716 3.344,0 6.556,-1.452 8.272,-4.4 h 0.088 v 3.784 h 4.576 m -4.488,-12.144 c 0,4.708 -3.74001,8.58 -8.492,8.58 -4.664,0 -8.316,-4.004 -8.316,-8.58 0,-4.75199 3.52,-8.712 8.36,-8.712 4.97199,0 8.448,3.82801 8.448,8.712"
         style="font-weight:500;line-height:125%;font-family:'ITC Avant Garde Gothic Pro';-inkscape-font-specification:'ITC Avant Garde Gothic Pro Medium';writing-mode:lr-tb;fill:#ffffff"
         id="path3972"
         inkscape:connector-curvature="0" />
      <path
         d="m 422.13256,463.79074 v -14.696 c 0,-6.29199 -3.47601,-10.34 -9.944,-10.34 -3.564,0 -6.16,1.1 -8.052,4.092 -1.276,-2.728 -4.708,-4.092 -7.568,-4.092 -3.212,0 -4.972,0.924 -6.996,3.3 h -0.088 v -2.64 h -4.224 v 24.376 h 4.576 v -13.596 c 0,-4.09199 1.32001,-7.26 6.028,-7.26 1.892,0 3.476,0.66 4.532,2.288 1.012,1.628 1.012,3.168 1.012,5.016 v 13.552 h 4.576 v -13.596 c 0,-4.004 1.05601,-7.26 5.808,-7.26 4.488,0 5.764,3.476 5.764,7.304 v 13.552 h 4.576"
         style="font-weight:500;line-height:125%;font-family:'ITC Avant Garde Gothic Pro';-inkscape-font-specification:'ITC Avant Garde Gothic Pro Medium';writing-mode:lr-tb;fill:#ffffff"
         id="path3974"
         inkscape:connector-curvature="0" />
      <path
         d="m 451.6435,451.29474 c 0,-6.86399 -5.50001,-12.54 -12.408,-12.54 -7.12799,0 -12.496,5.76401 -12.496,12.804 0,6.81999 5.45601,12.848 12.408,12.848 5.32399,0 9.856,-3.3 11.704,-8.272 h -4.576 c -1.32,2.552 -4.092,4.092 -6.952,4.092 -4.004,0 -7.084,-2.86 -8.008,-6.644 h 20.196 c 0.088,-0.748 0.132,-1.54 0.132,-2.288 m -4.576,-1.232 h -15.752 c 0.264,-4.004 3.916,-7.128 7.876,-7.128 3.95999,0 7.612,3.124 7.876,7.128"
         style="font-weight:500;line-height:125%;font-family:'ITC Avant Garde Gothic Pro';-inkscape-font-specification:'ITC Avant Garde Gothic Pro Medium';writing-mode:lr-tb;fill:#ffffff"
         id="path3976"
         inkscape:connector-curvature="0" />
      <path
         d="m 473.7975,436.59874 v -5.368 h -4.576 v 5.368 h 4.576 m 0,27.192 v -24.376 h -4.576 v 24.376 h 4.576"
         style="font-weight:500;line-height:125%;font-family:'ITC Avant Garde Gothic Pro';-inkscape-font-specification:'ITC Avant Garde Gothic Pro Medium';writing-mode:lr-tb;fill:#ffffff"
         id="path3978"
         inkscape:connector-curvature="0" />
      <path
         d="m 494.44587,456.61874 c 0,-4.70799 -3.344,-6.688 -7.348,-7.92 -1.67199,-0.528 -3.784,-1.012 -3.784,-3.168 0,-1.628 1.32001,-2.596 2.86,-2.596 1.848,0 2.904,1.188 3.124,2.948 h 4.576 c -0.088,-4.22399 -3.3,-7.128 -7.48,-7.128 -4.00399,0 -7.656,2.86001 -7.656,7.04 0,8.62399 11.132,5.98401 11.132,11.088 0,2.112 -1.496,3.344 -3.52,3.344 -2.72799,0 -3.96,-1.936 -4.136,-4.444 h -4.576 c 0,3.828 1.89201,6.776 5.5,8.052 1.012,0.352 2.068,0.572 3.124,0.572 4.664,0 8.184,-2.992 8.184,-7.788"
         style="font-weight:500;line-height:125%;font-family:'ITC Avant Garde Gothic Pro';-inkscape-font-specification:'ITC Avant Garde Gothic Pro Medium';writing-mode:lr-tb;fill:#ffffff"
         id="path3980"
         inkscape:connector-curvature="0" />
    </g>
    <rect
       style="fill:#ffffff;fill-opacity:1;fill-rule:nonzero;stroke:none"
       id="rect3773"
       width="600"
       height="232.85713"
       x="71.060242"
       y="487.50504" />
  </g>
  <g
     inkscape:groupmode="layer"
     id="layer2"
     inkscape:label="Layer 2"
     style="display:inline">
    <g
       id="g5047"
       transform="matrix(4.5385354,0,0,4.5385354,-3098.0289,-725.80652)"
       style="fill:none;stroke:#000000;stroke-opacity:1;stroke-width:0.45587394;stroke-dasharray:none">
      <g
         id="g22507"
         style="stroke-width:0.45552175;stroke-dasharray:none;stroke:#000000;stroke-opacity:1">
        <g
           id="g23946">
          <path
             style="stroke:#000000;fill:none;stroke-width:0.45552175"
             d="M 689.218505,206.079749 l 5.430371,-5.430371 c 0.883279,-0.883279 2.733642,-0.967083 1.850363,-0.083804 l -7.451836,7.451836 c -0.883279,0.883279 -1.379055,3.145614 -0.495776,2.262334 l 9.426679,-9.426679 c 0.883279,-0.883279 2.109574,-0.343016 1.226295,0.540264 l -10.979895,10.979895 c -0.883279,0.883279 -1.098625,2.865184 -0.215346,1.981904 l 12.228314,-12.228314 c 0.883279,-0.883279 1.762030,0.004528 0.878751,0.887807 l -13.245756,13.245756 c -0.883279,0.883279 -0.966959,2.733517 -0.083679,1.850238 l 5.102253,-5.102253 c 0.883279,-0.883279 0.375139,1.391419 -0.508140,2.274699 l -4.626664,4.626664 c -0.883279,0.883279 -0.881166,2.647725 0.002113,1.764445 l 4.378827,-4.378827 c 0.883279,-0.883279 0.757826,1.008733 -0.125453,1.892012 l -4.215144,4.215144 c -0.883279,0.883279 -0.805901,2.572460 0.077378,1.689181 l 4.085276,-4.085276 c 0.883279,-0.883279 0.879058,0.887500 -0.004221,1.770780 l -3.966821,3.966821 c -0.883279,0.883279 -0.720529,2.487087 0.162751,1.603808 l 3.846860,-3.846860 c 0.883279,-0.883279 0.976761,0.789797 0.093482,1.673076 l -3.735838,3.735838 c -0.883279,0.883279 -0.623218,2.389776 0.260061,1.506497 l 3.633707,-3.633707 c 0.883279,-0.883279 1.118714,0.647845 0.235435,1.531124 l -3.558892,3.558892 c -0.883279,0.883279 -0.510562,2.277121 0.372717,1.393841 l 3.520490,-3.520490 c 0.883279,-0.883279 1.352572,0.413987 0.469292,1.297266 l -3.551908,3.551908 c -0.883279,0.883279 -0.371357,2.137915 0.511922,1.254636 l 3.700434,-3.700434 c 0.883279,-0.883279 1.859413,-0.092854 0.976133,0.790425 l -4.083383,4.083383 c -0.883279,0.883279 -0.197138,1.963697 0.686141,1.080418 l 5.734376,-5.734376 M 696.751991,209.145614 l 5.117191,-5.117191 c 0.883279,-0.883279 1.530023,0.236536 0.646744,1.119815 l -3.849416,3.849416 c -0.883279,0.883279 -0.081828,1.848386 0.801452,0.965107 l 3.604656,-3.604656 c 0.883279,-0.883279 1.359512,0.407046 0.476233,1.290326 l -3.524648,3.524648 c -0.883279,0.883279 -0.484546,2.251105 0.398733,1.367825 l 3.532529,-3.532529 c 0.883279,-0.883279 1.225406,0.541152 0.342127,1.424431 l -3.592868,3.592868 c -0.883279,0.883279 -0.690724,2.457282 0.192556,1.574003 l 3.683522,-3.683522 c 0.883279,-0.883279 1.113963,0.652595 0.230684,1.535875 l -3.790276,3.790276 c -0.883279,0.883279 -0.816007,2.582566 0.067272,1.699286 l 3.906362,-3.906362 c 0.883279,-0.883279 1.020577,0.745981 0.137298,1.629261 l -4.021753,4.021753 c -0.883279,0.883279 -0.905409,2.671968 -0.022130,1.788689 l 4.141909,-4.141909 c 0.883279,-0.883279 0.939386,0.827172 0.056107,1.710452 l -4.273229,4.273229 c -0.883279,0.883279 -1.043592,2.810150 -0.160312,1.926871 l 4.456314,-4.456314 c 0.883279,-0.883279 0.870214,0.896344 -0.013065,1.779624 l -4.757022,4.757022 c -0.883279,0.883279 -1.685859,3.452418 -0.802580,2.569138 l 5.505910,-5.505910 c 0.883279,-0.883279 0.781305,0.985254 -0.101974,1.868533 l -12.818642,12.818642 c -0.883279,0.883279 0.045888,1.720671 0.929167,0.837391 l 11.725388,-11.725388 c 0.883279,-0.883279 0.630762,1.135796 -0.252517,2.019076 l -10.380078,10.380078 c -0.883279,0.883279 0.423120,1.343438 1.306400,0.460159 l 8.696870,-8.696870 c 0.883279,-0.883279 0.294832,1.471726 -0.588447,2.355005 l -6.513030,6.513030 c -0.883279,0.883279 1.217565,0.548994 2.100844,-0.334286 l 3.996612,-3.996612"
             id="path23944" />
        </g>
        <g
           id="g23951">
          <path
             style="stroke:#000000;fill:none;stroke-width:0.45552175"
             d="M 708.428074,202.994179 l 1.646976,-1.646976 c 0.883279,-0.883279 3.383919,-1.617360 2.500639,-0.734081 l -4.826847,4.826847 c -0.883279,0.883279 -1.347246,3.113805 -0.463967,2.230526 l 6.950195,-6.950195 c 0.883279,-0.883279 2.235971,-0.469412 1.352692,0.413867 l -8.501535,8.501535 c -0.883279,0.883279 -0.939620,2.706179 -0.056341,1.822899 l 9.732378,-9.732378 c 0.883279,-0.883279 1.936942,-0.170384 1.053663,0.712895 l -10.748585,10.748585 c -0.883279,0.883279 -0.764259,2.530817 0.119021,1.647538 l 3.962581,-3.962581 c 0.883279,-0.883279 0.675828,1.090730 -0.207451,1.974010 l -3.543877,3.543877 c -0.883279,0.883279 -0.564211,2.330770 0.319068,1.447490 l 3.619545,-3.619545 c 0.883279,-0.883279 1.604934,0.161625 0.721655,1.044904 l -3.915926,3.915926 c -0.883279,0.883279 -0.355986,2.122544 0.527294,1.239265 l 4.219704,-4.219704 c 0.883279,-0.883279 1.748456,0.018103 0.865177,0.901382 l -4.443808,4.443808 c -0.883279,0.883279 -0.146013,1.912572 0.737266,1.029292 l 4.589402,-4.589402 c 0.883279,-0.883279 1.752831,0.013727 0.869552,0.897006 l -4.648160,4.648160 c -0.883279,0.883279 -0.015177,1.781736 0.868102,0.898457 l 4.583077,-4.583077 c 0.883279,-0.883279 1.607580,0.158979 0.724300,1.042258 l -4.415216,4.415216 c -0.883279,0.883279 -0.006806,1.773365 0.876473,0.890086 l 4.168664,-4.168664 c 0.883279,-0.883279 1.403409,0.363150 0.520129,1.246429 l -3.862315,3.862315 c -0.883279,0.883279 -0.245587,2.012146 0.637692,1.128866 l 3.628089,-3.628089 c 0.883279,-0.883279 1.175092,0.591466 0.291813,1.474746 l -3.631587,3.631587 c -0.883279,0.883279 -1.263639,3.030198 -0.380360,2.146919 l 4.200066,-4.200066 c 0.883279,-0.883279 0.975286,0.791273 0.092006,1.674552 l -11.205645,11.205645 c -0.883279,0.883279 -1.805973,0.039415 -0.922694,-0.843864 l 5.500481,-5.500481 c 0.883279,-0.883279 -0.925184,-0.841375 -1.808463,0.041905 l -3.826392,3.826392 c -0.883279,0.883279 -0.883279,-0.883279 0.000000,-1.766559 l 2.506529,-2.506529 c 0.883279,-0.883279 -0.257440,-1.509118 -1.140720,-0.625839 l -1.365810,1.365810 c -0.883279,0.883279 -0.883279,-0.883279 0.000000,-1.766559 l 0.640320,-0.640320 c 0.488795,-0.488795 -0.447388,-1.319171 -0.936183,-0.830375 l -0.366596,0.366596 M 712.995255,209.026349 l 5.788621,-5.788621 c 0.883279,-0.883279 1.041480,0.725078 0.158201,1.608357 l -3.648001,3.648001 c -0.883279,0.883279 0.318226,1.448333 1.201505,0.565053 l 2.047058,-2.047058 c 0.883279,-0.883279 0.483842,1.282717 -0.399438,2.165996 l -0.976999,0.976999 c -0.388375,0.388375 0.560365,1.206193 0.948740,0.817819 l 0.291281,-0.291281 M 719.822983,230.463559 l -10.838349,10.838349 c -0.883279,0.883279 0.331046,1.435513 1.214325,0.552234 l 8.851011,-8.851011 c 0.883279,-0.883279 0.603794,1.162764 -0.279485,2.046044 l -7.103306,7.103306 c -0.883279,0.883279 0.839161,0.927398 1.722440,0.044119 l 5.467506,-5.467506 M 715.474271,241.878505 l 1.702541,-1.702541"
             id="path23949" />
        </g>
        <g
           id="g23956">
          <path
             style="stroke:#000000;fill:none;stroke-width:0.45552175"
             d="M 721.665492,200.535650 l -0.478746,0.478746 c -0.638328,0.638328 -0.638328,2.404887 0.000000,1.766559 l 1.582845,-1.582845 c 0.883279,-0.883279 2.649838,-0.883279 1.766559,0.000000 l -3.165690,3.165690 c -0.883279,0.883279 -0.883279,2.649838 0.000000,1.766559 l 3.947931,-3.947931 c 0.883279,-0.883279 0.883279,0.883279 0.000000,1.766559 l -3.947931,3.947931 c -0.883279,0.883279 -0.883279,2.649838 0.000000,1.766559 l 3.947931,-3.947931 c 0.883279,-0.883279 0.883279,0.883279 0.000000,1.766559 l -3.947931,3.947931 c -0.883279,0.883279 -0.883279,2.649838 0.000000,1.766559 l 3.947931,-3.947931 c 0.883279,-0.883279 0.883279,0.883279 0.000000,1.766559 l -3.947931,3.947931 c -0.883279,0.883279 -0.883279,2.649838 0.000000,1.766559 l 3.947931,-3.947931 c 0.883279,-0.883279 0.883279,0.883279 0.000000,1.766559 l -3.947931,3.947931 c -0.883279,0.883279 -0.883279,2.649838 0.000000,1.766559 l 3.947931,-3.947931 c 0.883279,-0.883279 0.883279,0.883279 0.000000,1.766559 l -3.947931,3.947931 c -0.883279,0.883279 -0.883279,2.649838 0.000000,1.766559 l 11.855862,-11.855862 c 0.883279,-0.883279 0.024300,1.742259 -0.858980,2.625538 l -10.996883,10.996883 c -0.883279,0.883279 -0.883279,2.649838 0.000000,1.766559 l 10.137903,-10.137903 c 0.883279,-0.883279 0.024300,1.742259 -0.858980,2.625538 l -9.278923,9.278923 c -0.883279,0.883279 -0.883279,2.649838 0.000000,1.766559 l 9.599495,-9.599495 c 0.883279,-0.883279 1.248845,0.517713 0.365566,1.400992 l -3.113507,3.113507 c -0.883279,0.883279 -0.540996,2.307554 0.342284,1.424275 l 3.136789,-3.136789 c 0.883279,-0.883279 1.248845,0.517713 0.365566,1.400992 l -3.160071,3.160071 c -0.883279,0.883279 -0.540996,2.307554 0.342284,1.424275 l 3.183354,-3.183354 c 0.883279,-0.883279 1.248845,0.517713 0.365566,1.400992 l -3.206636,3.206636 c -0.883279,0.883279 -0.540996,2.307554 0.342284,1.424275 l 3.229919,-3.229919 c 0.883279,-0.883279 1.248845,0.517713 0.365566,1.400992 l -3.253201,3.253201 c -0.883279,0.883279 -0.540996,2.307554 0.342284,1.424275 l 3.276484,-3.276484 c 0.883279,-0.883279 1.248845,0.517713 0.365566,1.400992 l -3.299766,3.299766 c -0.883279,0.883279 -0.540996,2.307554 0.342284,1.424275 l 3.323048,-3.323048 c 0.883279,-0.883279 1.248845,0.517713 0.365566,1.400992 l -3.346331,3.346331 c -0.883279,0.883279 -0.540996,2.307554 0.342284,1.424275 l 3.369613,-3.369613 c 0.883279,-0.883279 1.248845,0.517713 0.365566,1.400992 l -2.170745,2.170745 c -0.883279,0.883279 0.883279,0.883279 1.766559,0.000000 l 1.085372,-1.085372 c 0.462453,-0.462453 0.828019,0.938540 0.365566,1.400992 l -0.346839,0.346839 M 731.385268,201.415226 l 0.439788,-0.439788 c 0.586384,-0.586384 2.352942,-0.586384 1.766559,0.000000 l -2.369651,2.369651 c -0.883279,0.883279 -1.709044,3.475602 -0.825765,2.592323 l 4.739303,-4.739303 c 0.883279,-0.883279 2.410018,-0.643460 1.526739,0.239819 l -7.091806,7.091806 c -0.883279,0.883279 -1.709044,3.475602 -0.825765,2.592323 l 7.058591,-7.058591 c 0.883279,-0.883279 0.024300,1.742259 -0.858980,2.625538 l -7.034797,7.034797 c -0.883279,0.883279 -1.681546,3.448105 -0.798267,2.564825 l 7.636543,-7.636543 M 727.090144,226.909053 l -5.719684,5.719684 c -0.883279,0.883279 -0.883279,2.649838 0.000000,1.766559 l 3.947931,-3.947931 c 0.883279,-0.883279 0.883279,0.883279 0.000000,1.766559 l -3.947931,3.947931 c -0.883279,0.883279 -0.883279,2.649838 0.000000,1.766559 l 3.947931,-3.947931 c 0.883279,-0.883279 0.883279,0.883279 0.000000,1.766559 l -3.947931,3.947931 c -0.883279,0.883279 -0.883279,2.649838 0.000000,1.766559 l 3.947931,-3.947931 c 0.883279,-0.883279 0.883279,0.883279 0.000000,1.766559 l -2.366173,2.366173 c -0.883279,0.883279 0.883279,0.883279 1.766559,0.000000 l 1.183086,-1.183086 c 0.105316,-0.105316 0.105316,1.661242 0.000000,1.766559 l -0.078987,0.078987"
             id="path23954" />
        </g>
        <g
           id="g23961">
          <path
             style="stroke:#000000;fill:none;stroke-width:0.45552175"
             d="M 739.225094,200.535650 l -0.408387,0.408387 c -0.544516,0.544516 -0.544516,2.311075 0.000000,1.766559 l 1.512486,-1.512486 c 0.883279,-0.883279 2.649838,-0.883279 1.766559,0.000000 l -3.024972,3.024972 c -0.883279,0.883279 -0.883279,2.649838 0.000000,1.766559 l 3.947931,-3.947931 c 0.883279,-0.883279 0.883279,0.883279 0.000000,1.766559 l -3.947931,3.947931 c -0.883279,0.883279 -0.883279,2.649838 0.000000,1.766559 l 3.947931,-3.947931 c 0.883279,-0.883279 0.883279,0.883279 0.000000,1.766559 l -3.947931,3.947931 c -0.883279,0.883279 -0.883279,2.649838 0.000000,1.766559 l 3.947931,-3.947931 c 0.883279,-0.883279 0.883279,0.883279 0.000000,1.766559 l -3.947931,3.947931 c -0.883279,0.883279 -0.883279,2.649838 0.000000,1.766559 l 3.947931,-3.947931 c 0.883279,-0.883279 0.883279,0.883279 0.000000,1.766559 l -3.947931,3.947931 c -0.883279,0.883279 -0.883279,2.649838 0.000000,1.766559 l 3.947931,-3.947931 c 0.883279,-0.883279 0.883279,0.883279 0.000000,1.766559 l -3.947931,3.947931 c -0.883279,0.883279 -0.883279,2.649838 0.000000,1.766559 l 3.947931,-3.947931 c 0.883279,-0.883279 0.883279,0.883279 0.000000,1.766559 l -3.947931,3.947931 c -0.883279,0.883279 -0.883279,2.649838 0.000000,1.766559 l 3.947931,-3.947931 c 0.883279,-0.883279 0.883279,0.883279 0.000000,1.766559 l -3.947931,3.947931 c -0.883279,0.883279 -0.883279,2.649838 0.000000,1.766559 l 3.947931,-3.947931 c 0.883279,-0.883279 0.883279,0.883279 0.000000,1.766559 l -3.947931,3.947931 c -0.883279,0.883279 -0.883279,2.649838 0.000000,1.766559 l 3.947931,-3.947931 c 0.883279,-0.883279 0.883279,0.883279 0.000000,1.766559 l -3.947931,3.947931 c -0.883279,0.883279 -0.883279,2.649838 0.000000,1.766559 l 3.947931,-3.947931 c 0.883279,-0.883279 0.883279,0.883279 0.000000,1.766559 l -3.947931,3.947931 c -0.883279,0.883279 -0.883279,2.649838 0.000000,1.766559 l 3.947931,-3.947931 c 0.883279,-0.883279 0.883279,0.883279 0.000000,1.766559 l -2.506891,2.506891 c -0.883279,0.883279 0.883279,0.883279 1.766559,0.000000 l 1.253445,-1.253445 c 0.199128,-0.199128 0.199128,1.567430 0.000000,1.766559 l -0.149346,0.149346"
             id="path23959" />
        </g>
        <g
           id="g23966">
          <path
             style="stroke:#000000;fill:none;stroke-width:0.45552175"
             d="M 744.721050,200.996016 l 0.230183,-0.230183 c 0.306911,-0.306911 2.073469,-0.306911 1.766559,0.000000 l -1.334282,1.334282 c -0.883279,0.883279 -0.883279,2.649838 0.000000,1.766559 l 2.668564,-2.668564 c 0.883279,-0.883279 2.649838,-0.883279 1.766559,0.000000 l -4.435123,4.435123 c -0.883279,0.883279 -0.883279,2.649838 0.000000,1.766559 l 6.201681,-6.201681 c 0.883279,-0.883279 2.649838,-0.883279 1.766559,0.000000 l -7.904041,7.904041 c -0.883279,0.883279 0.883279,0.883279 1.766559,0.000000 l 7.904041,-7.904041 c 0.883279,-0.883279 2.649838,-0.883279 1.766559,0.000000 l -7.904041,7.904041 c -0.883279,0.883279 0.261005,1.505554 1.144284,0.622274 l 8.526316,-8.526316 c 0.883279,-0.883279 1.006645,0.759914 0.123366,1.643193 l -8.649681,8.649681 c -0.883279,0.883279 -0.883279,2.649838 0.000000,1.766559 l 8.649681,-8.649681 c 0.883279,-0.883279 0.883279,0.883279 0.000000,1.766559 l -2.727731,2.727731 c -0.883279,0.883279 0.883279,0.883279 1.766559,0.000000 l 1.363865,-1.363865 c 0.346355,-0.346355 0.346355,1.420204 0.000000,1.766559 l -0.259766,0.259766 M 749.462650,215.686560 l 4.583831,-4.583831 c 0.883279,-0.883279 0.883279,0.883279 0.000000,1.766559 l -3.921371,3.921371 c -0.883279,0.883279 -0.883279,2.649838 0.000000,1.766559 l 3.921371,-3.921371 c 0.883279,-0.883279 0.883279,0.883279 0.000000,1.766559 l -3.921371,3.921371 c -0.883279,0.883279 -0.883279,2.649838 0.000000,1.766559 l 3.921371,-3.921371 c 0.883279,-0.883279 0.883279,0.883279 0.000000,1.766559 l -3.921371,3.921371 c -0.883279,0.883279 -0.883279,2.649838 0.000000,1.766559 l 3.921371,-3.921371 c 0.883279,-0.883279 0.883279,0.883279 0.000000,1.766559 l -3.921371,3.921371 c -0.883279,0.883279 -0.883279,2.649838 0.000000,1.766559 l 3.921371,-3.921371 c 0.883279,-0.883279 0.883279,0.883279 0.000000,1.766559 l -3.921371,3.921371 c -0.883279,0.883279 -0.883279,2.649838 0.000000,1.766559 l 3.921371,-3.921371 c 0.883279,-0.883279 0.883279,0.883279 0.000000,1.766559 l -3.921371,3.921371 c -0.883279,0.883279 -0.883279,2.649838 0.000000,1.766559 l 3.921371,-3.921371 c 0.883279,-0.883279 0.883279,0.883279 0.000000,1.766559 l -3.921371,3.921371 c -0.883279,0.883279 -0.883279,2.649838 0.000000,1.766559 l 3.921371,-3.921371 c 0.883279,-0.883279 0.883279,0.883279 0.000000,1.766559 l -3.921371,3.921371 c -0.883279,0.883279 0.759428,1.007130 1.642708,0.123851 l 2.278663,-2.278663 c 0.883279,-0.883279 0.883279,0.883279 0.000000,1.766559 l -1.139332,1.139332 c -0.046977,0.046977 1.719582,0.046977 1.766559,0.000000 l 0.035233,-0.035233"
             id="path23964" />
        </g>
        <g
           id="g23971">
          <path
             style="stroke:#000000;fill:none;stroke-width:0.45552175"
             d="M 761.194245,206.079749 l 5.430369,-5.430369 c 0.883279,-0.883279 2.733645,-0.967086 1.850366,-0.083807 l -7.451837,7.451837 c -0.883279,0.883279 -1.379055,3.145614 -0.495776,2.262334 l 9.426681,-9.426681 c 0.883279,-0.883279 2.109575,-0.343016 1.226296,0.540263 l -10.979898,10.979898 c -0.883279,0.883279 -1.098625,2.865184 -0.215346,1.981904 l 12.228317,-12.228317 c 0.883279,-0.883279 1.762030,0.004528 0.878751,0.887808 l -13.245759,13.245759 c -0.883279,0.883279 -0.966959,2.733517 -0.083679,1.850238 l 5.102267,-5.102267 c 0.883279,-0.883279 0.375137,1.391422 -0.508142,2.274701 l -4.626675,4.626675 c -0.883279,0.883279 -0.881166,2.647725 0.002113,1.764445 l 4.378838,-4.378838 c 0.883279,-0.883279 0.757826,1.008733 -0.125454,1.892012 l -4.215155,4.215155 c -0.883279,0.883279 -0.805902,2.572460 0.077378,1.689181 l 4.085287,-4.085287 c 0.883279,-0.883279 0.879058,0.887501 -0.004221,1.770780 l -3.966832,3.966832 c -0.883279,0.883279 -0.720529,2.487088 0.162750,1.603809 l 3.846871,-3.846871 c 0.883279,-0.883279 0.976761,0.789797 0.093482,1.673077 l -3.735849,3.735849 c -0.883279,0.883279 -0.623219,2.389777 0.260061,1.506498 l 3.633719,-3.633719 c 0.883279,-0.883279 1.118713,0.647845 0.235434,1.531124 l -3.558904,3.558904 c -0.883279,0.883279 -0.510563,2.277122 0.372716,1.393842 l 3.520503,-3.520503 c 0.883279,-0.883279 1.352571,0.413988 0.469292,1.297267 l -3.551921,3.551921 c -0.883279,0.883279 -0.371357,2.137916 0.511922,1.254637 l 3.700446,-3.700446 c 0.883279,-0.883279 1.859410,-0.092852 0.976131,0.790428 l -4.083390,4.083390 c -0.883279,0.883279 -0.197136,1.963694 0.686143,1.080415 l 5.734371,-5.734371 M 768.727732,209.145613 l 5.117193,-5.117193 c 0.883279,-0.883279 1.530022,0.236537 0.646743,1.119816 l -3.849414,3.849414 c -0.883279,0.883279 -0.081826,1.848385 0.801453,0.965105 l 3.604652,-3.604652 c 0.883279,-0.883279 1.359512,0.407046 0.476233,1.290326 l -3.524642,3.524642 c -0.883279,0.883279 -0.484545,2.251103 0.398735,1.367824 l 3.532521,-3.532521 c 0.883279,-0.883279 1.225406,0.541152 0.342127,1.424431 l -3.592860,3.592860 c -0.883279,0.883279 -0.690723,2.457282 0.192556,1.574002 l 3.683513,-3.683513 c 0.883279,-0.883279 1.113963,0.652595 0.230684,1.535875 l -3.790267,3.790267 c -0.883279,0.883279 -0.816007,2.582565 0.067272,1.699286 l 3.906352,-3.906352 c 0.883279,-0.883279 1.020577,0.745981 0.137298,1.629261 l -4.021743,4.021743 c -0.883279,0.883279 -0.905409,2.671968 -0.022130,1.788689 l 4.141899,-4.141899 c 0.883279,-0.883279 0.939386,0.827172 0.056107,1.710452 l -4.273220,4.273220 c -0.883279,0.883279 -1.043593,2.810152 -0.160314,1.926872 l 4.456306,-4.456306 c 0.883279,-0.883279 0.870214,0.896344 -0.013065,1.779624 l -4.757016,4.757016 c -0.883279,0.883279 -1.685857,3.452416 -0.802578,2.569136 l 5.505903,-5.505903 c 0.883279,-0.883279 0.781305,0.985254 -0.101974,1.868533 l -12.818641,12.818641 c -0.883279,0.883279 0.045889,1.720670 0.929168,0.837390 l 11.725386,-11.725386 c 0.883279,-0.883279 0.630762,1.135796 -0.252517,2.019076 l -10.380075,10.380075 c -0.883279,0.883279 0.423120,1.343439 1.306399,0.460160 l 8.696869,-8.696869 c 0.883279,-0.883279 0.294832,1.471726 -0.588447,2.355005 l -6.513030,6.513030 c -0.883279,0.883279 1.217561,0.548998 2.100840,-0.334282 l 3.996618,-3.996618"
             id="path23969" />
        </g>
        <g
           id="g23976">
          <path
             style="stroke:#000000;fill:none;stroke-width:0.45552175"
             d="M 778.689910,201.897669 l 0.699559,-0.699559 c 0.883279,-0.883279 2.649838,-0.883279 1.766559,0.000000 l -1.803658,1.803658 c -0.883279,0.883279 -0.883279,2.649838 0.000000,1.766559 l 3.570217,-3.570217 c 0.883279,-0.883279 2.649838,-0.883279 1.766559,0.000000 l -5.336776,5.336776 c -0.883279,0.883279 -0.883279,2.649838 0.000000,1.766559 l 5.836758,-5.836758 c 0.883279,-0.883279 1.229091,0.537467 0.345812,1.420747 l -6.182570,6.182570 c -0.883279,0.883279 -0.883279,2.649838 0.000000,1.766559 l 6.528381,-6.528381 c 0.883279,-0.883279 1.229091,0.537467 0.345812,1.420747 l -6.874193,6.874193 c -0.883279,0.883279 -0.883279,2.649838 0.000000,1.766559 l 7.220005,-7.220005 c 0.883279,-0.883279 1.229091,0.537467 0.345812,1.420747 l -2.971969,2.971969 c -0.883279,0.883279 -0.540222,2.306780 0.343058,1.423501 l 2.974723,-2.974723 c 0.883279,-0.883279 1.229091,0.537467 0.345812,1.420747 l -2.977477,2.977477 c -0.883279,0.883279 -0.540222,2.306780 0.343058,1.423501 l 2.980231,-2.980231 c 0.883279,-0.883279 1.229091,0.537467 0.345812,1.420747 l -2.982985,2.982985 c -0.883279,0.883279 -0.540222,2.306780 0.343058,1.423501 l 2.985739,-2.985739 c 0.883279,-0.883279 1.229091,0.537467 0.345812,1.420747 l -2.988493,2.988493 c -0.883279,0.883279 -0.540222,2.306780 0.343058,1.423501 l 2.991247,-2.991247 c 0.883279,-0.883279 1.229091,0.537467 0.345812,1.420747 l -2.994001,2.994001 c -0.883279,0.883279 -0.540222,2.306780 0.343058,1.423501 l 2.996756,-2.996756 c 0.883279,-0.883279 1.229091,0.537467 0.345812,1.420747 l -2.999510,2.999510 c -0.883279,0.883279 -0.540222,2.306780 0.343058,1.423501 l 3.002264,-3.002264 c 0.883279,-0.883279 1.229091,0.537467 0.345812,1.420747 l -3.005018,3.005018 c -0.883279,0.883279 -0.540222,2.306780 0.343058,1.423501 l 3.007772,-3.007772 c 0.883279,-0.883279 1.229091,0.537467 0.345812,1.420747 l -3.010526,3.010526 c -0.883279,0.883279 -0.540222,2.306780 0.343058,1.423501 l 7.423572,-7.423572 c 0.883279,-0.883279 0.883279,-2.649837 -0.000000,-1.766558 l -3.191640,3.191640 c -0.883279,0.883279 -0.929893,-0.836665 -0.046614,-1.719945 l 3.238254,-3.238254 c 0.883279,-0.883279 0.883279,-2.649837 -0.000000,-1.766558 l -3.277068,3.277068 c -0.883279,0.883279 -0.917249,-0.849310 -0.033969,-1.732589 l 3.311037,-3.311037 c 0.883279,-0.883279 0.883279,-2.649837 -0.000000,-1.766558 l -3.336538,3.336538 c -0.883279,0.883279 -0.894434,-0.872124 -0.011155,-1.755404 l 3.347693,-3.347693 c 0.883279,-0.883279 0.883279,-2.649837 -0.000000,-1.766558 l -3.350264,3.350264 c -0.883279,0.883279 -0.883279,-0.883279 0.000000,-1.766559 l 3.350264,-3.350264 c 0.883279,-0.883279 0.883279,-2.649837 -0.000000,-1.766558 l -3.350263,3.350263 c -0.883279,0.883279 -0.883279,-0.883279 0.000000,-1.766559 l 3.350263,-3.350263 c 0.883279,-0.883279 0.883279,-2.649837 -0.000000,-1.766558 l -3.350262,3.350262 c -0.883279,0.883279 -0.883279,-0.883279 0.000000,-1.766559 l 3.350262,-3.350262 c 0.883279,-0.883279 0.883279,-2.649837 -0.000000,-1.766558 l -3.350262,3.350262 c -0.883279,0.883279 -0.883279,-0.883279 0.000000,-1.766559 l 3.350261,-3.350261 c 0.883279,-0.883279 -0.343875,-1.422684 -1.227154,-0.539405 l -2.123107,2.123107 c -0.883279,0.883279 -0.883279,-0.883279 0.000000,-1.766559 l 1.019008,-1.019008 M 778.689910,217.796696 l 3.750867,-3.750867 c 0.883279,-0.883279 0.941037,0.825521 0.057758,1.708801 l -3.146166,3.146166 c -0.883279,0.883279 -0.883279,2.649838 0.000000,1.766559 l 3.199978,-3.199978 c 0.883279,-0.883279 0.930753,0.835805 0.047474,1.719085 l -3.247452,3.247452 c -0.883279,0.883279 -0.883279,2.649838 0.000000,1.766559 l 3.284855,-3.284855 c 0.883279,-0.883279 0.912390,0.854169 0.029111,1.737448 l -3.313966,3.313966 c -0.883279,0.883279 -0.883279,2.649838 0.000000,1.766559 l 3.323701,-3.323701 c 0.883279,-0.883279 0.883279,0.883279 0.000000,1.766559 l -3.323701,3.323701 c -0.883279,0.883279 -0.883279,2.649838 0.000000,1.766559 l 3.323701,-3.323701 c 0.883279,-0.883279 0.883279,0.883279 0.000000,1.766559 l -3.323701,3.323701 c -0.883279,0.883279 -0.883279,2.649838 0.000000,1.766559 l 3.323701,-3.323701 c 0.883279,-0.883279 0.883279,0.883279 0.000000,1.766559 l -3.323701,3.323701 c -0.883279,0.883279 -0.883279,2.649838 0.000000,1.766559 l 3.323701,-3.323701 c 0.883279,-0.883279 0.883279,0.883279 0.000000,1.766559 l -3.323701,3.323701 c -0.883279,0.883279 -0.663553,2.430112 0.219726,1.546832 l 3.103975,-3.103975 c 0.883279,-0.883279 0.883279,0.883279 0.000000,1.766559 l -1.551987,1.551987 c -0.597184,0.597184 1.169374,0.597184 1.766559,0.000000 l 0.447888,-0.447888 M 797.178116,227.573427 l -7.742974,7.742974 c -0.883279,0.883279 -0.540222,2.306780 0.343058,1.423501 l 6.737457,-6.737457 c 0.883279,-0.883279 0.883280,0.883279 0.000000,1.766558 l -6.394400,6.394400 c -0.883279,0.883279 -0.540222,2.306780 0.343058,1.423501 l 6.051342,-6.051342 c 0.883279,-0.883279 0.883280,0.883279 0.000000,1.766558 l -5.708285,5.708285 c -0.883279,0.883279 0.247353,1.519206 1.130632,0.635926 l 4.577653,-4.577653 c 0.883279,-0.883279 0.883280,0.883279 0.000000,1.766558 l -2.811095,2.811095 c -0.883279,0.883279 0.883279,0.883279 1.766559,0.000000 l 1.405548,-1.405548 c 0.401932,-0.401932 0.401932,1.364626 0.000000,1.766558 l -0.301449,0.301449"
             id="path23974" />
        </g>
        <g
           id="g23981">
          <path
             style="stroke:#000000;fill:none;stroke-width:0.45552175"
             d="M 799.386004,200.535650 l -0.654107,0.654107 c -0.872143,0.872143 -0.872143,2.638701 0.000000,1.766559 l 1.758206,-1.758206 c 0.883279,-0.883279 2.649838,-0.883279 1.766559,0.000000 l -3.516412,3.516412 c -0.883279,0.883279 -0.883279,2.649838 0.000000,1.766559 l 5.282971,-5.282971 c 0.883279,-0.883279 2.649838,-0.883279 1.766559,0.000000 l -7.049529,7.049529 c -0.883279,0.883279 -0.883279,2.649838 0.000000,1.766559 l 8.816088,-8.816088 c 0.883279,-0.883279 2.270842,-0.504284 1.387563,0.378996 l -10.203651,10.203651 c -0.883279,0.883279 -0.883279,2.649838 0.000000,1.766559 l 10.203651,-10.203651 c 0.883279,-0.883279 0.883279,0.883279 0.000000,1.766559 l -3.820478,3.820478 c -0.883279,0.883279 0.883279,0.883279 1.766559,0.000000 l 2.053920,-2.053920 c 0.883279,-0.883279 0.883279,0.883279 0.000000,1.766559 l -0.949821,0.949821 M 798.077790,215.976333 l 4.583841,-4.583841 c 0.883279,-0.883279 0.883279,0.883279 0.000000,1.766559 l -3.921381,3.921381 c -0.883279,0.883279 -0.883279,2.649838 0.000000,1.766559 l 3.921381,-3.921381 c 0.883279,-0.883279 0.883279,0.883279 0.000000,1.766559 l -3.921381,3.921381 c -0.883279,0.883279 -0.883279,2.649838 0.000000,1.766559 l 5.552778,-5.552778 c 0.883279,-0.883279 2.649838,-0.883279 1.766559,0.000000 l -7.319337,7.319337 c -0.883279,0.883279 -0.883279,2.649838 0.000000,1.766559 l 9.085895,-9.085895 c 0.883279,-0.883279 1.536165,0.230394 0.652886,1.113673 l -9.738781,9.738781 c -0.883279,0.883279 -0.883279,2.649838 0.000000,1.766559 l 9.738781,-9.738781 c 0.883279,-0.883279 0.883279,0.883279 0.000000,1.766559 l -3.085801,3.085801 c -0.883279,0.883279 0.883279,0.883279 1.766559,0.000000 l 1.542900,-1.542900 c 0.585069,-0.585069 0.585069,1.181490 0.000000,1.766559 l -0.438801,0.438801 M 803.324090,226.629060 l -4.583841,4.583841 c -0.883279,0.883279 -0.883279,2.649838 0.000000,1.766559 l 3.921381,-3.921381 c 0.883279,-0.883279 0.883279,0.883279 0.000000,1.766559 l -3.921381,3.921381 c -0.883279,0.883279 -0.883279,2.649838 0.000000,1.766559 l 3.921381,-3.921381 c 0.883279,-0.883279 1.470154,0.296405 0.586874,1.179684 l -4.508255,4.508255 c -0.883279,0.883279 -0.883279,2.649838 0.000000,1.766559 l 6.274814,-6.274814 c 0.883279,-0.883279 2.649838,-0.883279 1.766559,0.000000 l -7.875451,7.875451 c -0.883279,0.883279 0.883279,0.883279 1.766559,0.000000 l 7.875451,-7.875451 c 0.883279,-0.883279 1.278999,0.487559 0.395720,1.370839 l -6.504612,6.504612 c -0.883279,0.883279 0.883279,0.883279 1.766559,0.000000 l 4.738054,-4.738054 c 0.883279,-0.883279 0.883279,0.883279 0.000000,1.766559 l -2.971495,2.971495 c -0.883279,0.883279 0.883279,0.883279 1.766559,0.000000 l 1.485748,-1.485748 c 0.508865,-0.508865 0.508865,1.257694 0.000000,1.766559 l -0.381648,0.381648"
             id="path23979" />
        </g>
      </g>
    </g>
  </g>
</svg>
