<?xml version="1.0" encoding="UTF-8" standalone="no"?>
<!-- Created with Inkscape (http://www.inkscape.org/) -->

<svg
   sodipodi:docname="wordmark copy.svg"
   inkscape:version="1.2.1 (9c6d41e4, 2022-07-14)"
   version="1.1"
   id="svg2"
   height="428.66318"
   width="600"
   xmlns:inkscape="http://www.inkscape.org/namespaces/inkscape"
   xmlns:sodipodi="http://sodipodi.sourceforge.net/DTD/sodipodi-0.dtd"
   xmlns="http://www.w3.org/2000/svg"
   xmlns:svg="http://www.w3.org/2000/svg"
   xmlns:rdf="http://www.w3.org/1999/02/22-rdf-syntax-ns#"
   xmlns:cc="http://creativecommons.org/ns#"
   xmlns:dc="http://purl.org/dc/elements/1.1/">
  <defs
     id="defs4" />
  <sodipodi:namedview
     id="base"
     pagecolor="#ffffff"
     bordercolor="#666666"
     borderopacity="1.0"
     inkscape:pageopacity="0.0"
     inkscape:pageshadow="2"
     inkscape:zoom="1.9432507"
     inkscape:cx="394.95677"
     inkscape:cy="214.33159"
     inkscape:document-units="px"
     inkscape:current-layer="g5047"
     showgrid="false"
     fit-margin-top="0"
     fit-margin-left="0"
     fit-margin-right="0"
     fit-margin-bottom="0"
     inkscape:window-width="1920"
     inkscape:window-height="1027"
     inkscape:window-x="0"
     inkscape:window-y="25"
     inkscape:window-maximized="1"
     inkscape:showpageshadow="2"
     inkscape:pagecheckerboard="0"
     inkscape:deskcolor="#d1d1d1" />
  <metadata
     id="metadata7">
    <rdf:RDF>
      <cc:Work
         rdf:about="">
        <dc:format>image/svg+xml</dc:format>
        <dc:type
           rdf:resource="http://purl.org/dc/dcmitype/StillImage" />
        <dc:title />
      </cc:Work>
    </rdf:RDF>
  </metadata>
  <g
     inkscape:label="Layer 1"
     inkscape:groupmode="layer"
     id="layer1"
     transform="translate(-71.060242,-326.03787)"
     style="display:inline"
     sodipodi:insensitive="true">
    <rect
       style="fill:#ef3d33;fill-opacity:1;fill-rule:nonzero;stroke:none"
       id="rect2991"
       width="600"
       height="428.66318"
       x="71.060242"
       y="326.03787"
       rx="29.901646"
       ry="32.257545" />
    <g
       style="font-style:normal;font-variant:normal;font-weight:normal;font-stretch:normal;font-size:44px;line-height:125%;font-family:Arial;-inkscape-font-specification:Arial;text-align:center;letter-spacing:0px;word-spacing:0px;text-anchor:middle;fill:#ffffff;fill-opacity:1;stroke:none"
       id="text3761">
      <path
         d="m 307.72119,419.79074 v -74 h -13.7 v 30.1 h -26.5 v -30.1 h -13.7 v 74 h 13.7 v -31.1 h 26.5 v 31.1 h 13.7"
         style="font-weight:bold;font-size:100px;font-family:'ITC Avant Garde Gothic Pro';-inkscape-font-specification:'ITC Avant Garde Gothic Pro';fill:#ffffff"
         id="path3955"
         inkscape:connector-curvature="0" />
      <path
         d="m 375.68994,391.29074 c 0,-16.09998 -12.50001,-28.9 -28.7,-28.9 -16.79998,0 -29.2,13.20002 -29.2,29.8 0,16.49998 12.70002,29.4 29.3,29.4 11.79999,0 23.20001,-8.00001 26.8,-19.3 h -14 c -2.7,4.9 -7.4,7.1 -12.8,7.1 -5.49999,0 -10.5,-2.8 -13.5,-7.4 -0.8,-1.2 -1.5,-2.5 -1.8,-4 h 43.1 c 0.5,-2.2 0.8,-4.5 0.8,-6.7 m -13.6,-4 h -30.7 c 1.9,-7.89999 7.60001,-12.7 15.7,-12.7 8.09999,0 13.7,4.70001 15,12.7"
         style="font-weight:bold;font-size:100px;font-family:'ITC Avant Garde Gothic Pro';-inkscape-font-specification:'ITC Avant Garde Gothic Pro';fill:#ffffff"
         id="path3957"
         inkscape:connector-curvature="0" />
      <path
         d="m 397.45244,419.79074 v -74 h -13.3 v 74 h 13.3"
         style="font-weight:bold;font-size:100px;font-family:'ITC Avant Garde Gothic Pro';-inkscape-font-specification:'ITC Avant Garde Gothic Pro';fill:#ffffff"
         id="path3959"
         inkscape:connector-curvature="0" />
      <path
         d="m 421.47588,419.79074 v -74 h -13.3 v 74 h 13.3"
         style="font-weight:bold;font-size:100px;font-family:'ITC Avant Garde Gothic Pro';-inkscape-font-specification:'ITC Avant Garde Gothic Pro';fill:#ffffff"
         id="path3961"
         inkscape:connector-curvature="0" />
      <path
         d="m 488.29932,391.89074 c 0,-16.29998 -13.00002,-29.5 -29.4,-29.5 -16.39999,0 -29.6,13.40002 -29.6,29.7 0,16.19998 13.40001,29.5 29.6,29.5 16.79998,0 29.4,-12.90002 29.4,-29.7 m -13.3,0.3 c 0,9.09999 -6.70001,17.2 -16.1,17.2 -9.59999,0 -16.3,-8.00001 -16.3,-17.3 0,-8.99999 6.90001,-17.5 16.3,-17.5 9.39999,0 16.1,8.70001 16.1,17.6"
         style="font-weight:bold;font-size:100px;font-family:'ITC Avant Garde Gothic Pro';-inkscape-font-specification:'ITC Avant Garde Gothic Pro';fill:#ffffff"
         id="path3963"
         inkscape:connector-curvature="0" />
    </g>
    <g
       style="font-style:normal;font-variant:normal;font-weight:normal;font-stretch:normal;font-size:44px;line-height:125%;font-family:Arial;-inkscape-font-specification:Arial;text-align:center;letter-spacing:0px;word-spacing:0px;text-anchor:middle;fill:#ffffff;fill-opacity:1;stroke:none"
       id="text3769">
      <path
         d="m 284.54662,463.79074 v -14.696 c 0,-6.29199 -3.476,-10.34 -9.944,-10.34 -3.56399,0 -6.16,1.1 -8.052,4.092 -1.276,-2.728 -4.708,-4.092 -7.568,-4.092 -3.21199,0 -4.972,0.924 -6.996,3.3 h -0.088 v -2.64 h -4.224 v 24.376 h 4.576 v -13.596 c 0,-4.09199 1.32001,-7.26 6.028,-7.26 1.892,0 3.476,0.66 4.532,2.288 1.012,1.628 1.012,3.168 1.012,5.016 v 13.552 h 4.576 v -13.596 c 0,-4.004 1.05601,-7.26 5.808,-7.26 4.488,0 5.764,3.476 5.764,7.304 v 13.552 h 4.576"
         style="font-weight:500;line-height:125%;font-family:'ITC Avant Garde Gothic Pro';-inkscape-font-specification:'ITC Avant Garde Gothic Pro Medium';writing-mode:lr-tb;fill:#ffffff"
         id="path3966"
         inkscape:connector-curvature="0" />
      <path
         d="m 310.9645,439.41474 h -4.928 l -7.348,18.92 -7.172,-18.92 h -4.928 l 9.724,23.892 -3.564,8.624 h 4.752 l 13.464,-32.516"
         style="font-weight:500;line-height:125%;font-family:'ITC Avant Garde Gothic Pro';-inkscape-font-specification:'ITC Avant Garde Gothic Pro Medium';writing-mode:lr-tb;fill:#ffffff"
         id="path3968"
         inkscape:connector-curvature="0" />
      <path
         d="m 348.94269,463.79074 v -14.432 c 0,-2.156 -0.35201,-4.4 -1.54,-6.248 -1.892,-2.992 -5.14801,-4.356 -8.624,-4.356 -2.816,0 -5.36801,0.924 -7.128,3.256 h -0.088 v -2.596 h -4.268 v 24.376 h 4.576 v -13.288 c 0,-4.09199 1.936,-7.568 6.424,-7.568 4.83999,0 6.072,3.47601 6.072,7.612 v 13.244 h 4.576"
         style="font-weight:500;line-height:125%;font-family:'ITC Avant Garde Gothic Pro';-inkscape-font-specification:'ITC Avant Garde Gothic Pro Medium';writing-mode:lr-tb;fill:#ffffff"
         id="path3970"
         inkscape:connector-curvature="0" />
      <path
         d="m 379.34875,463.79074 v -24.376 h -4.576 v 3.432 h -0.088 c -1.804,-2.772 -5.016,-4.092 -8.272,-4.092 -7.39199,0 -12.936,5.54401 -12.936,12.936 0,7.34799 5.63201,12.716 12.936,12.716 3.344,0 6.556,-1.452 8.272,-4.4 h 0.088 v 3.784 h 4.576 m -4.488,-12.144 c 0,4.708 -3.74001,8.58 -8.492,8.58 -4.664,0 -8.316,-4.004 -8.316,-8.58 0,-4.75199 3.52,-8.712 8.36,-8.712 4.97199,0 8.448,3.82801 8.448,8.712"
         style="font-weight:500;line-height:125%;font-family:'ITC Avant Garde Gothic Pro';-inkscape-font-specification:'ITC Avant Garde Gothic Pro Medium';writing-mode:lr-tb;fill:#ffffff"
         id="path3972"
         inkscape:connector-curvature="0" />
      <path
         d="m 422.13256,463.79074 v -14.696 c 0,-6.29199 -3.47601,-10.34 -9.944,-10.34 -3.564,0 -6.16,1.1 -8.052,4.092 -1.276,-2.728 -4.708,-4.092 -7.568,-4.092 -3.212,0 -4.972,0.924 -6.996,3.3 h -0.088 v -2.64 h -4.224 v 24.376 h 4.576 v -13.596 c 0,-4.09199 1.32001,-7.26 6.028,-7.26 1.892,0 3.476,0.66 4.532,2.288 1.012,1.628 1.012,3.168 1.012,5.016 v 13.552 h 4.576 v -13.596 c 0,-4.004 1.05601,-7.26 5.808,-7.26 4.488,0 5.764,3.476 5.764,7.304 v 13.552 h 4.576"
         style="font-weight:500;line-height:125%;font-family:'ITC Avant Garde Gothic Pro';-inkscape-font-specification:'ITC Avant Garde Gothic Pro Medium';writing-mode:lr-tb;fill:#ffffff"
         id="path3974"
         inkscape:connector-curvature="0" />
      <path
         d="m 451.6435,451.29474 c 0,-6.86399 -5.50001,-12.54 -12.408,-12.54 -7.12799,0 -12.496,5.76401 -12.496,12.804 0,6.81999 5.45601,12.848 12.408,12.848 5.32399,0 9.856,-3.3 11.704,-8.272 h -4.576 c -1.32,2.552 -4.092,4.092 -6.952,4.092 -4.004,0 -7.084,-2.86 -8.008,-6.644 h 20.196 c 0.088,-0.748 0.132,-1.54 0.132,-2.288 m -4.576,-1.232 h -15.752 c 0.264,-4.004 3.916,-7.128 7.876,-7.128 3.95999,0 7.612,3.124 7.876,7.128"
         style="font-weight:500;line-height:125%;font-family:'ITC Avant Garde Gothic Pro';-inkscape-font-specification:'ITC Avant Garde Gothic Pro Medium';writing-mode:lr-tb;fill:#ffffff"
         id="path3976"
         inkscape:connector-curvature="0" />
      <path
         d="m 473.7975,436.59874 v -5.368 h -4.576 v 5.368 h 4.576 m 0,27.192 v -24.376 h -4.576 v 24.376 h 4.576"
         style="font-weight:500;line-height:125%;font-family:'ITC Avant Garde Gothic Pro';-inkscape-font-specification:'ITC Avant Garde Gothic Pro Medium';writing-mode:lr-tb;fill:#ffffff"
         id="path3978"
         inkscape:connector-curvature="0" />
      <path
         d="m 494.44587,456.61874 c 0,-4.70799 -3.344,-6.688 -7.348,-7.92 -1.67199,-0.528 -3.784,-1.012 -3.784,-3.168 0,-1.628 1.32001,-2.596 2.86,-2.596 1.848,0 2.904,1.188 3.124,2.948 h 4.576 c -0.088,-4.22399 -3.3,-7.128 -7.48,-7.128 -4.00399,0 -7.656,2.86001 -7.656,7.04 0,8.62399 11.132,5.98401 11.132,11.088 0,2.112 -1.496,3.344 -3.52,3.344 -2.72799,0 -3.96,-1.936 -4.136,-4.444 h -4.576 c 0,3.828 1.89201,6.776 5.5,8.052 1.012,0.352 2.068,0.572 3.124,0.572 4.664,0 8.184,-2.992 8.184,-7.788"
         style="font-weight:500;line-height:125%;font-family:'ITC Avant Garde Gothic Pro';-inkscape-font-specification:'ITC Avant Garde Gothic Pro Medium';writing-mode:lr-tb;fill:#ffffff"
         id="path3980"
         inkscape:connector-curvature="0" />
    </g>
    <rect
       style="fill:#ffffff;fill-opacity:1;fill-rule:nonzero;stroke:none"
       id="rect3773"
       width="600"
       height="232.85713"
       x="71.060242"
       y="487.50504" />
  </g>
  <g
     inkscape:groupmode="layer"
     id="layer2"
     inkscape:label="Layer 2"
     style="display:inline">
    <g
       id="g5047"
       transform="matrix(5.302162,0,0,5.3188238,-3624.2218,-835.30237)"
       style="fill:none;stroke:#000000;stroke-width:0.71171025;stroke-dasharray:none;stroke-opacity:1;fill-opacity:1">
      <g
         id="g29080"
         style="stroke-linecap:round">
        <path
           style="stroke:#000000;fill:none;stroke-width:0.71171;stroke-linecap:round"
           d="M 691.069544,201.162543 l -2.600571,2.592424 M 687.690233,206.038668 l 5.666775,-5.649023 M 695.001533,200.257669 l -7.529010,7.505425 M 687.482958,209.260091 l 8.976192,-8.948074 M 697.758679,200.523958 l -2.741582,2.732994 M 687.631713,210.619200 l 4.016662,-4.004080 M 698.906302,200.887330 l -2.507800,2.499944 M 687.881965,211.877131 l 3.606840,-3.595541 M 699.907618,201.396549 l -2.521187,2.513289 M 688.272440,212.995278 l 3.257692,-3.247487 M 700.760448,202.053789 l -2.634824,2.626570 M 688.820075,213.956758 l 2.950407,-2.941164 M 701.470753,202.853108 l -2.838303,2.829412 M 689.496348,214.790002 l 2.694753,-2.686311 M 702.047576,203.785491 l -3.166035,3.156117 M 690.295364,215.500888 l 2.541453,-2.533492 M 702.493112,204.848750 l -3.487206,3.476282 M 691.225564,216.081000 l 2.532602,-2.524669 M 702.808155,206.042093 l -3.874973,3.862834 M 692.312395,216.504973 l 2.674763,-2.666384 M 702.984207,207.373991 l -4.553910,4.539644 M 693.573163,216.755553 l 3.252741,-3.242551 M 703.013840,208.851849 l -8.060067,8.034818 M 696.523234,216.829522 l 6.387744,-6.367734 M 702.435448,212.443227 l -3.971475,3.959034"
           id="path29078" />
      </g>
      <g
         id="g29085"
         style="stroke-linecap:round">
        <path
           style="stroke:#000000;fill:none;stroke-width:0.71171;stroke-linecap:round"
           d="M 708.033348,200.464282 l -3.901916,3.889693 M 704.188900,205.804084 l 5.538976,-5.521624 M 711.180337,200.341948 l -6.630798,6.610026 M 709.835619,203.189852 l 2.647311,-2.639018 M 707.930405,205.089098 l -2.802064,2.793286 M 711.228636,203.308598 l 2.446448,-2.438784 M 708.651868,205.877294 l -2.740918,2.732331 M 712.426788,203.621598 l 2.352865,-2.345495 M 709.581859,206.457615 l -2.735658,2.727089 M 713.524499,204.034725 l 0.480986,-0.479479 M 710.600110,206.949953 l -2.739837,2.731254 M 704.002765,213.526631 l 0.560497,-0.558741 M 711.636060,207.424647 l -2.734213,2.725648 M 703.996707,215.040069 l 1.668716,-1.663489 M 712.622888,207.948309 l -2.724178,2.715645 M 704.411297,216.134176 l 2.436905,-2.429271 M 713.525648,208.555776 l -2.744849,2.736250 M 705.541306,216.515105 l 2.624418,-2.616197 M 714.238823,209.352234 l -3.030534,3.021041 M 706.790315,216.777409 l 2.952879,-2.943629 M 714.755153,210.344920 l -6.571665,6.551079 M 709.765046,216.826794 l 5.242790,-5.226366 M 714.820099,213.294975 l -3.163023,3.153114"
           id="path29083" />
      </g>
      <g
         id="g29090"
         style="stroke-linecap:round">
        <path
           style="stroke:#000000;fill:none;stroke-width:0.71171;stroke-linecap:round"
           d="M 717.944613,200.519530 l -1.442593,1.438074 M 716.502020,203.465003 l 2.954729,-2.945473 M 720.306781,201.179559 l -3.804761,3.792842 M 716.502020,206.479800 l 3.804922,-3.793003 M 720.306857,204.194281 l -3.804837,3.792918 M 716.502020,209.494598 l 3.803780,-3.791864 M 727.017427,200.519530 l -3.842932,3.830894 M 716.502020,211.001997 l 3.802723,-3.790811 M 728.529563,200.519530 l -12.027543,11.989865 M 716.502020,214.016794 l 12.822587,-12.782419 M 725.850784,206.204715 l -4.121871,4.108958 M 716.502020,215.524193 l 3.804620,-3.792702 M 725.193418,208.367421 l -2.565805,2.557767 M 716.876585,216.658200 l 3.430055,-3.419310 M 725.733509,209.336420 l -2.594061,2.585934 M 718.388721,216.658200 l 1.917919,-1.911911 M 726.273600,210.305420 l -2.622316,2.614102 M 719.900857,216.658200 l 0.405783,-0.404512 M 726.813692,211.274419 l -2.650572,2.642269 M 724.674955,214.913855 l 2.678828,-2.670436 M 727.893874,213.212418 l -2.707083,2.698603 M 725.949400,216.658200 l 2.484566,-2.476783 M 728.974057,215.150417 l -1.512521,1.507783 M 728.973671,216.658200 l 0.540477,-0.538784"
           id="path29088" />
      </g>
      <g
         id="g29095"
         style="stroke-linecap:round">
        <path
           style="stroke:#000000;fill:none;stroke-width:0.71171;stroke-linecap:round"
           d="M 733.052822,200.519530 l -1.261802,1.257849 M 731.791020,203.284778 l 2.773938,-2.765248 M 735.595700,200.999415 l -3.804680,3.792761 M 731.791020,206.299576 l 3.804680,-3.792761 M 735.595700,204.014213 l -3.804680,3.792761 M 731.791020,209.314373 l 3.804680,-3.792761 M 735.595700,207.029011 l -3.804680,3.792761 M 731.791020,212.329171 l 3.804680,-3.792761 M 735.595700,210.043808 l -3.804680,3.792761 M 731.791020,215.343969 l 3.804680,-3.792761 M 735.595700,213.058606 l -3.610906,3.599594 M 733.496930,216.658200 l 2.098770,-2.092195 M 735.595700,216.073404 l -0.586634,0.584796"
           id="path29093" />
      </g>
      <g
         id="g29100"
         style="stroke-linecap:round">
        <path
           style="stroke:#000000;fill:none;stroke-width:0.71171;stroke-linecap:round"
           d="M 738.598373,200.519530 l -1.354233,1.349991 M 737.244140,203.376920 l 2.866369,-2.857390 M 741.622645,200.519530 l -2.989836,2.980470 M 740.144945,203.500000 l 2.989836,-2.980470 M 744.646916,200.519530 l -3.307076,3.296717 M 741.339840,205.323645 l 4.819212,-4.804115 M 747.671188,200.519530 l -6.331348,6.311514 M 746.193488,203.500000 l 2.989836,-2.980470 M 745.121090,204.569038 l -3.781250,3.769405 M 747.705623,203.500000 l 1.499457,-1.494759 M 745.121090,206.076437 l -3.781250,3.769405 M 741.339840,211.353241 l 3.781250,-3.769405 M 745.121090,209.091235 l -3.781250,3.769405 M 741.339840,214.368038 l 3.781250,-3.769405 M 745.121090,212.106032 l -3.781250,3.769405 M 742.066753,216.658200 l 3.054337,-3.044769 M 745.121090,215.120830 l -1.542201,1.537370 M 745.091025,216.658200 l 0.030065,-0.029971"
           id="path29098" />
      </g>
      <g
         id="g29105"
         style="stroke-linecap:round">
        <path
           style="stroke:#000000;fill:none;stroke-width:0.71171;stroke-linecap:round"
           d="M 753.230836,201.168704 l -2.593216,2.585093 M 749.861878,206.034507 l 5.659808,-5.642078 M 757.169598,200.257078 l -7.531447,7.507854 M 749.648016,209.262497 l 8.980295,-8.952163 M 759.925800,200.524308 l -2.741347,2.732760 M 749.801023,210.617368 l 4.017517,-4.004932 M 761.073709,200.887394 l -2.507016,2.499163 M 750.056792,211.869799 l 3.600731,-3.589452 M 762.074731,201.396906 l -2.520098,2.512203 M 750.441125,212.994069 l 3.258014,-3.247808 M 762.930347,202.051369 l -2.636789,2.628529 M 750.987873,213.956432 l 2.951324,-2.942078 M 763.641203,202.850140 l -2.840945,2.832045 M 751.664943,214.788882 l 2.694565,-2.686124 M 764.216617,203.783927 l -3.166007,3.156089 M 752.465135,215.498595 l 2.540655,-2.532696 M 764.661808,204.847529 l -3.486225,3.475304 M 753.395281,216.078762 l 2.532714,-2.524780 M 764.975415,206.042303 l -3.874257,3.862120 M 754.479384,216.505454 l 2.675508,-2.667126 M 765.154170,207.371507 l -4.554982,4.540713 M 755.739747,216.756438 l 3.250761,-3.240578 M 765.184291,208.848879 l -8.063315,8.038056 M 758.690979,216.829249 l 6.389864,-6.369847 M 764.603353,212.442795 l -3.973144,3.960698"
           id="path29103" />
      </g>
      <g
         id="g29110"
         style="stroke-linecap:round">
        <path
           style="stroke:#000000;fill:none;stroke-width:0.71171;stroke-linecap:round"
           d="M 768.088618,200.519530 l -1.504638,1.499925 M 766.583980,203.526854 l 3.016774,-3.007324 M 771.112890,200.519530 l -4.528910,4.514723 M 766.583980,206.541651 l 5.562840,-5.545413 M 772.663736,201.988340 l -2.742307,2.733717 M 766.583980,208.049050 l 3.036955,-3.027442 M 773.180651,202.980442 l -2.465066,2.457344 M 766.583980,209.556449 l 3.142171,-3.132328 M 773.696163,203.973945 l -2.489666,2.481867 M 766.583980,211.063848 l 3.212275,-3.202212 M 778.673569,200.519530 l -0.157555,0.157061 M 771.721960,207.449362 l 2.489310,-2.481512 M 769.836162,209.329252 l -3.252182,3.241994 M 778.518796,202.181217 l 1.666908,-1.661687 M 774.726497,205.961636 l -2.489241,2.481443 M 766.583980,214.078646 l 3.269191,-3.258950 M 781.697840,200.519530 l -3.183011,3.173040 M 772.750348,209.438993 l 2.492884,-2.485075 M 769.854626,212.325644 l -3.270646,3.260400 M 778.511108,205.203678 l 3.291622,-3.281311 M 775.759967,207.946201 l -2.496526,2.488706 M 767.020591,216.658200 l 2.828514,-2.819653 M 781.802730,203.429766 l -3.288152,3.277851 M 773.776432,211.430921 l 2.501514,-2.493678 M 769.845492,215.349547 l -1.312766,1.308653 M 778.531849,208.197799 l 3.270881,-3.260634 M 776.798100,209.926117 l -2.508918,2.501058 M 778.567273,209.669885 l 3.235457,-3.225321 M 777.321581,210.911676 l -2.519647,2.511754 M 778.629154,211.115597 l 3.173576,-3.163634 M 777.814825,211.927375 l -2.500141,2.492309 M 775.827435,215.415939 l 5.975295,-5.956577 M 781.802730,210.966760 l -5.462545,5.445433 M 777.605541,216.658200 l 4.197189,-4.184041 M 781.802730,213.981558 l -2.685053,2.676642 M 780.629813,216.658200 l 1.172917,-1.169243"
           id="path29108" />
      </g>
      <g
         id="g29115"
         style="stroke-linecap:round">
        <path
           style="stroke:#000000;fill:none;stroke-width:0.71171;stroke-linecap:round"
           d="M 784.371328,200.519530 l -1.041248,1.037986 M 783.330080,203.064915 l 2.553384,-2.545385 M 787.395600,200.519530 l -4.065520,4.052784 M 783.330080,206.079713 l 5.577655,-5.560183 M 790.419871,200.519530 l -2.921261,2.912110 M 783.330080,207.587111 l 3.781250,-3.769405 M 791.932007,200.519530 l -2.921261,2.912110 M 783.330080,209.094510 l 3.781250,-3.769405 M 792.539060,201.421777 l -2.016179,2.009863 M 783.330080,210.601909 l 3.781250,-3.769405 M 792.539060,202.929176 l -0.504043,0.502464 M 783.330080,212.109308 l 5.287983,-5.271418 M 790.130199,206.837890 l -2.921261,2.912110 M 783.330080,213.616707 l 3.781250,-3.769405 M 791.642335,206.837890 l -2.921261,2.912110 M 783.330080,215.124106 l 3.781250,-3.769405 M 792.136720,207.852452 l -1.903511,1.897548 M 783.330080,216.631504 l 3.781250,-3.769405 M 792.136720,209.359851 l -0.391375,0.390149 M 784.815436,216.658200 l 2.978079,-2.968750 M 789.305651,213.689450 l -2.978079,2.968750 M 787.839708,216.658200 l 2.978079,-2.968750 M 792.329923,213.689450 l -2.978079,2.968750 M 790.863979,216.658200 l 1.675081,-1.669833 M 792.539060,216.495765 l -0.162945,0.162435"
           id="path29113" />
      </g>
    </g>
  </g>
</svg>
